<?xml version="1.0" encoding="UTF-8"?>
<svg id="Layer_1" xmlns="http://www.w3.org/2000/svg" version="1.1" viewBox="0 0 200 100">
  <!-- Generator: Adobe Illustrator 29.6.0, SVG Export Plug-In . SVG Version: 2.1.1 Build 207)  -->
  <path d="M151.78325-27.71704s-43.5205-9.77546-71.3554-19.6042l-2.46283,6.2691c-7.01776,19.146-14.04565,38.28839-21.06824,57.43262-2.77911,7.57635-5.52435,15.16528-8.34186,22.72736-.42249,1.13409-.50543,2.1095.07837,3.1908.37488.6944.56659,1.48773.84039,2.23669-.59161,1.49963.37329,2.52747,1.06677,3.66211.32874.5379.49152,1.17615.73889,1.76501.24719.58838.47485,1.18793.76721,1.75354.43323.83813,1.0813,1.38092,2.10004,1.29346,1.24707-.10706,2.10986.56287,2.90338,1.40607,2.40479,2.55518,2.91742,5.92212,1.18488,9.05139-.83972,1.51672-.73206,2.88916.0177,4.31567.71423,1.35883,1.66357,2.53522,2.85645,3.51068,1.30145,1.06433,2.66272,2.03601,4.12012,2.88312,1.43066.8316,1.61414,1.38049,1.15503,2.96472-.17731.61182-.44739,1.20337-.56335,1.82501-.2406,1.28955.17023,1.95331,1.39282,2.37506.98114.3385,1.98688.61121,2.95227.98853.89935.35162,1.70612.8761,2.30396,1.66693.61151.80884.75421,1.72986.71924,2.7196-.02655.74976-.46521,1.10236-1.04242,1.46265-.69586.43451-.81366,1.09344-.51752,1.88049.42731,1.13538.59473,2.32709.44141,3.53693-.64111,5.05719-2.86713,9.11243-7.52112,11.52869-.84918.4408-1.14032.95111-1.14484,1.84662-.01575,3.12354.88635,5.97894,2.40686,8.66913.70782.66376,1.49304,1.06006,2.48914,1.27539,6.0683,1.31195,12.13605,2.61987,18.22168,3.85419,7.48926,1.51898,15.00891,2.85925,22.54016,4.13446,5.09711.8631,10.22369,1.55225,15.3371,2.31921l27.21503-154.59546c-.01196-.00903-.02673-.01666-.03894-.02557l.20764-.32Z" fill="#264898"/>
</svg>