<?xml version="1.0" encoding="UTF-8"?>
<svg id="Layer_1" xmlns="http://www.w3.org/2000/svg" version="1.1" viewBox="0 0 200 100">
  <!-- Generator: Adobe Illustrator 29.6.0, SVG Export Plug-In . SVG Version: 2.1.1 Build 207)  -->
  <path d="M85.92993-24.08334" fill="#264898"/>
  <g>
    <path d="M144.3913-24.07425c-.00568-.00049-.01221-.00092-.01782-.00146l.01227-.47552h-.00037l-.01233.47748c-.00049-.00018.01453-.00031.01825-.00049Z" fill="#264898"/>
    <path d="M144.37012-24.07364c-.03247-.00146-4.15826-.18707-5.52478-.28461-.0177-.005-.03583-.00616-.05353-.01141-.03339.00024-.06671.00012-.1001.00031-38.82025-2.77789-55.67847-6.5473-55.67847-6.5473,0,0,.00372.02289.00586.03601l-.13086-.03601-27.27954,154.96185c12.35907,1.95825,25.29968,3.36591,37.1908,4.37592.03101.00281.06189.00641.0929.00922.15802.01428.31628.02502.4743.03894.94958.0799,1.89154.15698,2.82648.23187.22046.01697.44073.03625.66125.0528,3.29205.26062,6.48328.49048,9.53955.69342.59894.047,1.19824.08984,1.79688.14099,6.68866.57166,13.39478.79633,20.09576,1.12683,2.55292.12598,10.39331.20148,10.39331.20148l5.6853-154.99017.00488-.00012Z" fill="#264898"/>
  </g>
</svg>