<?xml version="1.0" encoding="UTF-8"?>
<svg id="Layer_1" xmlns="http://www.w3.org/2000/svg" version="1.1" viewBox="0 0 200 100">
  <!-- Generator: Adobe Illustrator 29.6.0, SVG Export Plug-In . SVG Version: 2.1.1 Build 207)  -->
  <path d="M131.48204,21.55468c-1.10073-1.06317-1.89915.45229-2.68983,1.14086-.36134.31458-.66341.69986-.97725,1.06587-1.25096,1.45839-2.72641,1.43237-4.50318.59406,1.10085-1.00732,2.20796-1.89669,3.16128-2.92819.92055-.99578.48715-2.28283-.79191-2.59925-1.5567-.38491-3.13697-.67777-4.68496-1.09299-1.98764-.53306-1.85017-.52017-2.76998,1.91793-.58363,1.5475-1.0887,3.10482-3.67973,2.84154-2.21336-.22474-2.2994.36049-2.96575-1.11091-.3314-.73153-.62916-1.48073-1.00634-2.18783-.31618-.59271-.82788-.94779-1.55081-.92018-.73374.02811-1.24126.50544-1.52467,1.0439-.75374,1.43065-1.38536,2.99558-1.26139,4.60359.21025,2.73046-.9829,4.57671-3.0378,6.15734-1.00524.77314-1.778,1.84367-2.70198,2.73156-.14385.13833-.54177.05769-.80615.00258-.10482-.02185-.22388-.2445-.23664-.38479-.02872-.31434-.00577-.63505.01571-.95184.17294-2.55065-.61799-3.29764-2.86633-2.48695-3.44382,1.24188-6.46616,2.95004-6.87721,7.16356-.10298,1.05519-.96866,1.11644-1.80955,1.0871-.68894-.47009-1.3424-.47868-1.94677.14986-.32465.54177-.68943,1.15976-1.36695,1.13031-.85242-.03707-.85623-.85893-.82616-1.43372.04014-.76393.292-1.51743.45978-2.27399.09586-.43253.37472-.88998-.20645-1.20567-.60056-.32649-1.25415-.35926-1.75149.07205-.45205.39203-.89796.92177-1.07225,1.47692-.38184,1.2161-1.28938,1.50589-2.17138,1.02095-2.10081-1.15485-3.8739-.67899-5.67952.59504-.48666.3433-1.18075.39289-1.77997.57589v.00012s.00025.00086.00037.00135c.88164,1.2096.95111,2.54132.60069,3.93576-.24609.83279-.81376,1.47177-1.31626,2.14647-.01129.02283-.0232.04578-.03461.06861-1.02414,2.94243-.96228,6.10015-1.46379,9.14617-1.12822,2.45246-1.05666,5.29326-2.53665,7.65317-.42308.67458-.17269,1.55658.48556,2.16537.76258.70551,1.66349.9732,2.63129.5635,1.42267-.60204,2.29658-1.67294,2.4311-3.26033.10236-1.20653-.72232-2.61214.58326-3.55797,1.10907-.80357,2.4932-.11317,3.71115-.46322.15097-.04345.31532-.04124.47341-.06014,4.95818-2.95777,8.44631-8.09037,14.32823-9.70242,1.62531-.78639,2.26957.73779,3.30611,1.39346.25419.20817.47156.42762.69679.68194.19933.18595.31949.38712.41412.64684.02713.02725-.29322.11317-.27052.14827-.1749-.15993-.34637-.37571-.48924-.59209-.28733-.4723-.73558-.77142-1.23537-.99173-.88299-.23406-1.74499-.15121-2.57605.2348-2.26601,1.46784-4.26703,3.24241-6.20803,5.11909-2.13137,2.06067-2.61582,4.23083-.99726,6.77926.4491.69139,1.20984,1.0277,1.77469,1.58101-.72834-.30808-1.39407-.7384-2.12204-1.04549-1.0979-.3174-2.58121.02099-2.63436-1.89141-.06395-2.30112-1.25305-2.59164-3.04148-1.44256-.34662.52582-1.04292,1.09839-.97971,1.56922.28672,2.13775-.71655,3.56484-1.99059,5.14106-2.11382,2.61533-4.09618,5.38261-5.77231,8.29411-2.09013,3.63026-4.35909,7.13116-6.68353,10.6053-1.43053,2.138-3.03522,4.1832-4.24531,6.43989-2.80644,5.23324-4.37333,10.71932-2.27092,16.64542.55441,1.56296.44923,3.16348.55085,4.76388.23971,3.78025,2.09725,6.71041,5.09098,8.88596.90177.65531,1.40291.09107,1.27747-1.04378-.08567-.77449.44383-1.19008,1.20272-1.00806,1.72927.4151,3.43867.90336,4.5092,2.51984.81143,1.22543,1.86012,2.20391,3.10052,2.99226,1.96273,1.24752,3.10837,1.03653,4.45188-.92398,1.39383-2.03379,2.74212-4.00744.43167-6.4146-.80124-.83475-.387-2.14782.23652-3.16778.72404-1.1848,1.71172-.33888,2.58587-.3066.74773.02762,1.41617-.32747,1.35099-.99861-.30808-3.17367,1.02107-5.97741,1.80906-8.9083.3314-1.23267.29948-2.61042.8345-3.73005.84003-1.75751,2.76421-3.04087,2.19041-5.37893,1.92762-1.77297,1.11239-3.80603.50691-5.78863-.2332-.7627-.67678-1.45839-.97455-2.20452-.49648-1.24409-.5074-2.52021-.04235-3.77043.42112-1.13203,1.21586-1.80476,2.46068-2.03453,1.29637-.23934.97774-1.40291,1.16737-2.3037.29985-1.42365,1.64618-1.92934,2.32923-.78639,1.43151,2.396,3.25284,2.15923,5.39746,1.42746,1.05703-.36073,1.70694-.84764,1.37186-2.05846-.83536-3.0189-.48678-5.8284,1.94161-7.96321,2.15003-1.88994,2.89726-5.14131,5.98539-6.08259.15367-.04676.30292-.1085.45426-.16275,2.13996-.76651,3.97258-2.09369,5.92856-3.20215,2.07896-1.17805,3.36723-2.58747,3.62032-5.20415.19025-1.9653.50888-4.24948,2.30578-5.65939,1.20469-.94534,1.64336-1.81335.74356-3.24106-.35275-.55945.1371-1.22985.80296-1.49705.74073-.2974,1.50748-.53085,2.26405-.78835.85684-.29163,1.52958-.93626,1.21119-1.77542-.76233-2.009.56693-2.90708,1.73713-4.02953.91085-.87366,2.029-1.89448.28316-3.08628-.39988-.27297-.36478-.60731.12151-.63456,1.7429-.0977,2.5979-1.0099,2.70333-2.70677,2.54537-.02737,2.11811-2.76912,3.51538-3.94104.93945-.78799.71999-2.72322-.12053-3.53514Z" fill="#264898"/>
  <path d="M139.47237-3.92467c2.11897-2.00004.52913-3.32047-.73423-4.69355-.75534-.82088-1.65391-1.50847-2.43196-2.31045-.94288-.97222-1.934-1.01309-3.01853-.30758-.66918.43523-1.3273.88728-1.99046,1.33172-1.16369.63554-3.05032.60572-3.25235,2.20293l-.60277.05167c-.11955-.38516-.23554-.77031-.43057-1.15706-.75411.51219-1.56333.64757-2.02545-.25788-.95602-1.873-1.31896-3.91796-1.63771-5.99545-.31789-2.07196-.87538-4.24531-3.09708-5.10228-1.68472-.6499-3.11635-1.54271-4.47078-2.70395-.88642-.76-2.38114-.0977-2.61889,1.08133-.15637.77534-.15306,1.58567-.18816,2.38188-.04922,1.12086.19626,2.33364-.15085,3.34723-.8998,2.62822-.24928,4.99279.56816,7.48023,1.15252,3.50728,2.03711,7.16491.93847,10.82561-.916,3.05241.06284,5.68762,1.11914,8.37843.81364,2.07245,2.38286,3.40982,4.44844,4.1292,1.96223.68341,3.95884,1.26962,5.94365,1.88749.85795.26696,1.76426.08972,2.08657-.69655,1.02917-2.511,3.09119-3.01607,5.44926-3.16741.64352-.04136,1.40672-.41474,1.3807-1.10932-.09353-2.50793,1.47717-4.03113,2.87198-5.82828,1.53719-1.9804,3.01914-4.23156,1.42844-7.04696-.47353-.83794-.30574-2.04079.41498-2.72101Z" fill="#264898"/>
</svg>