<?xml version="1.0" encoding="UTF-8"?>
<svg id="Layer_1" xmlns="http://www.w3.org/2000/svg" version="1.1" viewBox="0 0 200 200">
  <!-- Generator: Adobe Illustrator 29.6.0, SVG Export Plug-In . SVG Version: 2.1.1 Build 207)  -->
  <path d="M57.21317,168.97159c.33695-1.02313.16609-1.76821-.92795-2.10858-.68743-.21387-.69617-.61356-.5314-1.28906.29104-1.1932-.01654-1.54395-1.20355-1.84881-.0773-.01989-.15498-.0414-.23385-.05153-1.134-.14593-2.14537-.4931-2.68293-1.62393.37265-1.03034,1.04542-1.73133,2.10548-2.1019.59278-.20719.60332-.69935.21313-1.13344-.40761-.45352-.57463-.97746-.48383-1.54386.15641-.97576-.28261-1.67361-.89035-2.35638-.57477-.64579-1.16205-1.05832-2.0814-.7173-.4559.16913-.97011.18346-1.21703-.3895-.23586-.54727-.23879-1.08756.19639-1.56021.45371-.49283,1.40021-.80092,1.03527-1.64584-.29204-.67614-1.13749-.36489-1.74482-.43389-.55767-.06328-.87364-.31345-.91143-.88714-.03009-.4568-.28632-.68083-.72987-.79661-.69635-.18182-1.38334-.32502-2.11378-.32344-.55676.00117-.81087-.68927-.33994-1.0103.97318-.66346,1.03516-1.4577.75989-2.48224-.13512-.50291.31512-.88113.84637-.93146.74096-.07014,1.41618.1788,2.10287.38959.38823.11918.78966.18668,1.12949-.1176.43864-.39267.30512-.87747.12607-1.31997-.11509-.28447-.31404-.5538-.53263-.77273-.25348-.25397-.60641-.30167-.7212.1137-.16144.58418-.49479.76629-1.05004.65687-.07816-.01535-.15583-.03378-.23298-.05367-2.24379-.57809-2.33625-.68663-2.58475-3.03416-.05042-.47637-.10842-.95212-.14826-1.42937-.07662-.91793.21237-1.19684,1.06116-1.0033.46161.10526.93715.42094,1.36401.35728,1.39531-.20798,2.24966.55761,3.09561,1.45559.655.69539,1.33719,1.3691,2.04902,2.00578.54423.48686,1.0236.98358,1.27239,1.69737.35044,1.0055,1.0408,1.76514,1.83759,2.46439,2.04083,1.79092,4.08794,3.55834,6.38288,5.03798,1.46703.94585,2.67681,2.24634,4.11091,3.26807.98297.70031,1.43481,1.77583,1.44704,3.11725.01645,1.80457.15629,3.62007.77164,5.37771.35714,1.02012.74256,2.12854.11134,3.2422-.38876.68589-.19736,1.39535.06162,2.08356.45728,1.21512,1.20093,2.25305,2.06416,3.19898.91451,1.00222,1.85513,1.98413,2.83386,2.92336,1.35868,1.30377,1.89602,2.70987,1.59336,4.7032-.3147,2.07264-.24348,4.27213.9531,6.20572.40209.64972.18277,1.40736.31342,2.10762.07912.42407-.04856.84437-.61151.73216-.61849-.12325-1.09318.15765-1.56693.44271-.96884.58304-1.87424.34813-2.67132-.27434-.94162-.73529-1.82159-1.55309-2.69681-2.36889-.81592-.76052-1.52897-1.64505-2.54077-2.1641-.48368-.24814-.72954-.58711-.7152-1.12286.0101-.37749-.24258-.56854-.53296-.71432-.21132-.10611-.46786-.13711-.65748-.26886-.83734-.58189-.79334-1.83009-1.53084-2.34653-.76013-.53232-1.29052-1.13936-1.68605-1.91757-.35525-.69899-.09491-1.32943.70869-1.40007,1.49732-.13163,2.6897-.96205,3.99319-1.53732.35837-.15812.66377-.44505.75562-.87129.01438-.06677.00413-.15123-.02613-.21188-.03396-.06812-.09892-.15855-.15888-.16547-.06141-.00709-.14005.06738-.19932.11959-1.33062,1.17117-2.85957,1.14103-4.50244.89593-.76652-.11435-.94823-.82362-1.52494-1.02642-.6671-.23461-1.12374.6133-1.79102.43567-.21513-.05728-.50505-.21105-.57055-.39023-.36105-.98774-.91112-1.85405-1.53608-2.68819-.2702-.36062-.2333-.81724.09791-1.07883.25086-.19816.58389.0087.85165.22143.16935.13453.41447.17367.63612.25969Z" fill="#264898"/>
  <path d="M34.35195,84.80076c.78006.07482,1.44964-.22907,1.93926-.77265.78741-.87416,1.78921-1.58815,2.06674-2.86983.12472-.57595.6766-.80807,1.11237-.53927.93034.57398,1.8639.85491,2.94061.48451.26212-.09018.43373.13547.5403.35848.12301.2574.00481.50892-.18371.63044-1.25495.80848-2.12247,2.1087-3.68273,2.57127-1.05112.31166-1.88028,1.15233-2.45744,2.18013-.38746.69-.93135,1.29035-1.3785,1.949-.62517.92083-1.4185,1.48822-2.59027,1.39228-.23188-.01898-.47624.04269-.70717.09876-.5169.1256-.96218.70427-1.55109.3392-.80856-.50127-1.63001-.99208-2.00946-1.96579-.47363-1.21526-.30365-1.57102,1.08154-1.99819.51806-.15981.61964-.39088.31857-.78958-.33622-.44522-.71184-.86109-1.04072-1.31139-.50981-.69797-.72078-1.40751-.08538-2.1779.19139-.23203.33616-.56736.35629-.86525.12604-1.86463,1.08015-3.30158,2.30267-4.60907.48531-.51908.74937-1.45887,1.44762-1.5114.93408-.07025,1.36869.96712,2.03966,1.49854.2701.21393.20548.52477.18368.8591-.05491.84211.13078,1.04543.79966,1.05346.31525.00381.63186-.10854.94717-.10512.44993.00486.76121.28011.84924.70198.34946,1.67487-.43983,2.98462-2.07534,3.49066-.84736.26221-1.71985.33765-2.60246.33911-.24951.00038-.49618.11956-.50363.36659-.00664.22031.11756.46031.23106.66565.39523.71487,1.10004.48967,1.71145.53628Z" fill="#264898"/>
  <path d="M29.5655,103.50254c.28556-1.79947-.45159-3.3733-.75971-4.99315-.15244-.80139.20254-1.35867.2402-2.02377.03527-.62285-1.00199-.65514-1.01909-1.47756-.02148-1.03301.05368-1.31933,1.08693-1.74475.14539-.05988.31449-.08042.43917-.1672.1231-.08572.31095-.27618.28316-.34418-.0858-.20985-.22305-.46178-.41037-.55225-.27567-.13304-.62172-.1113-.91916-.21105-.24888-.0835-.72706-.04989-.49484-.55005.15003-.32314.49458-.43808.8085-.34685,1.55633.45226,3.11972.54908,4.72601.30214.62679-.09633,1.03037.28403,1.20338.91541.06282.22925.09601.4713.10669.7091.01721.38323.39109.80092.06312,1.13446-.46847.47637-.84185-.0806-1.25214-.23036-1.1089-.40479-1.68655-.20947-2.05712.87179-.59269,1.72934-.89427,3.52661-.99606,5.3555-.02773.49825.10049.94351.34481,1.36825.58161,1.01115.7563,2.0707.49605,3.22775-.16918.7522-.06089,1.42676.89314,1.64587.42213.09688.67937.43093.51791.89892-.18781.54428-.66499.69442-1.15581.59637-.91181-.18211-1.59906-.69501-1.87188-1.62729-.27148-.92777-.32766-1.88147-.2729-2.7571Z" fill="#264898"/>
  <path d="M53.20602,109.25501c.27502-1.4441.42401-3.10456,1.82399-4.3282.58633-.5124.9677-1.25874,1.44507-1.89662.3661-.48914.99088-.49576,1.1062.02859.2613,1.18816.74906,2.24965,1.44661,3.23733.23726.33595.2181.74273.0913,1.14984-.50759,1.62964-1.3617,3.05947-2.48402,4.33131-.43706.49529-1.05244.50376-1.41314-.05273-.30964-.47777-.50501-.95818-1.18209-1.021-.73721-.06841-.78831-.67207-.83391-1.44853Z" fill="#264898"/>
  <path d="M54.2556,98.16289c.04831.39387.13794.78797.13588,1.18157-.00369.70336-.67248,1.29047-1.46169,1.2723-.20371-.00469-.54051-.16143-.582-.3126-.26148-.95265-.93015-1.7903-.38804-2.94237.56091-1.19197.07914-2.51748-.09095-3.7626-.10915-.7991-.11914-1.58136-.11168-2.37492.00323-.34307.11179-.66943.48543-.67986.34603-.00967.5306.30782.635.61063.78331,2.27203,1.13049,4.6299,1.37804,7.00784Z" fill="#264898"/>
  <path d="M50.83473,98.30943c-.0137,1.48312-.23216,1.93972-.75558,2.07243-.60512.15343-1.29882-.32684-1.56614-1.14999-.11943-.36779-.16306-.77136-.17429-1.1606-.01856-.64365-.07318-1.27969-.4254-1.8288-.59407-.92613-.43925-1.98999-.58905-2.99511-.04373-.29347.05244-.6791.44433-.72097.29635-.03167.61471.04245.90773.1248.13347.03753.27827.18794.33501.32221.79702,1.88616,1.66796,3.75103,1.82338,5.33602Z" fill="#264898"/>
  <path d="M57.96124,124.05737c-.23449-.11077-.44561-.32865-.3361-.53903.53036-1.01897,1.31256-1.86908,2.46761-2.0277,1.40675-.19318,2.81086-.32578,4.17148-.77265.26158-.08596.63374.02036.90106.14944.16484.07963.27245.3607.31734.57029.02194.10245-.13147.31093-.25185.36176-.28591.12076-.60835.27044-.9004.24281-2.10373-.19863-3.87383.56124-5.49096,1.81506-.25466.19752-.5493.31078-.87817.20001Z" fill="#264898"/>
  <path d="M52.29209,88.33168c.0283.78299-.58867,1.4202-1.45626,1.47524-.13371.00844-.37942-.07213-.39606-.14959-.20554-.95689-.85023-1.16701-1.72322-1.14779-.37063.00817-.53067-.56716-.33248-.91852.38409-.68092.9733-1.00781,1.73629-.99357.30568.00571.60946.11675.91399.18041,1.12544.2352,1.21406.34482,1.25775,1.55382Z" fill="#264898"/>
  <path d="M52.53171,157.37008c-.03949.33732-.0277.50414-.08105.64652-.24386.65089-.39793,1.38905-1.18983,1.62179-.46011.13523-.87217-.45662-1.11475-1.55024-.03395-.15302-.04647-.31099-.08255-.46339-.08814-.37233-.34855-.81041.01365-1.09664.42014-.33193.68799-.89051,1.28104-.97523.33533-.04793.65471.12407.77022.4152.19914.50188.30384,1.04127.40327,1.402Z" fill="#264898"/>
  <path d="M74.33077,169.2197c-.15212.20086-.22065.38229-.33287.41534-.12594.03709-.36826-.01163-.42775-.10617-.58854-.93548-1.15666-1.88411-1.71581-2.83764-.31856-.54322-.62369-1.09564-.90002-1.66093-.0477-.09756.03672-.34761.13455-.40937.18168-.11473.4163-.18187.63259-.19245.13667-.00662.30586.09732.41654.19934,1.36521,1.25827,1.59603,3.03647,2.19278,4.59187Z" fill="#264898"/>
  <path d="M52.68421,110.98537c0,.50754.02421.82427-.00589,1.13578-.04135.42794-.27421.78943-.71409.78548-.29922-.00267-.58956-.30097-.62896-.62224-.16219-1.32234-.29219-2.65269.22575-3.93507.04607-.11405.24673-.2424.36231-.23089.12527.01248.28327.15809.34373.28523.41819.8792.28636,1.84922.41715,2.5817Z" fill="#264898"/>
  <path d="M54.83867,124.94618c-.34069-.02364-.90157-.9927-.73189-1.327.35879-.70702.8156-1.3406,1.57368-1.67628.31848-.14104.60745-.03305.87483.15803.37325.26672.45771.644.30121,1.03614-.33559.84079-.97816,1.39872-1.78544,1.77674-.06767.03173-.15448.02256-.2324.03237Z" fill="#264898"/>
  <path d="M61.44771,144.77656c.44414.07339.84235.09352,1.20862.21217.39656.1285.68314.44379.60404.88538-.07446.41569-.40245.73796-.82254.69923-.77736-.07178-1.54687-.25521-2.18386-.75478-.10105-.07928-.17732-.27876-.15491-.4028.02414-.13374.15486-.30779.27925-.35253.35915-.12914.73849-.20206,1.06939-.28667Z" fill="#264898"/>
  <path d="M53.38958,127.23529c.32484.07444.57298.24434.68806.56924.17317.48891.05382.9501-.18875,1.37361-.22757.39729-.30657,1.04493-.86535,1.03046-.66717-.01726-.38649-.73538-.58463-1.11513-.37827-.72498.02719-1.2082.53628-1.64347.11505-.09841.27489-.14446.41439-.21472Z" fill="#264898"/>
  <path d="M59.0953,99.26826c-.35369-.02417-.78853.04893-.95414-.44124-.12029-.35596.32702-.95719.82315-1.00632.6273-.06214,1.26505-.04474,1.89692-.02259.2776.0097.3578.51794.1909.79134-.46422.76052-1.22264.62798-1.95683.67881Z" fill="#264898"/>
  <path d="M54.62335,113.01248c.46811.01283.93966-.03311,1.3565.27949.35384.26534.45034.86039.15495,1.2648-.26527.36319-.63665.50771-1.02276.27053-.3966-.24363-.76081-.55638-1.08765-.88948-.14148-.14423-.2528-.44947-.19453-.61828.04979-.14426.35873-.20499.55905-.28816.06874-.02854.15567-.0133.23445-.0189Z" fill="#264898"/>
  <path d="M53.15992,103.691c-.06662.36258-.13087.82061-.24681,1.26516-.02813.10787-.2206.18217-.34816.25263-.18529.1023-.31558.03885-.35245-.16969-.08044-.45504-.19101-.90911-.22033-1.36799-.08617-1.34862.12382-1.9149.58287-1.70672.75351.34181.4355,1.06242.58488,1.72661Z" fill="#264898"/>
  <path d="M76.63802,180.3108c-.00618-.2342-.06282-.48217-.00368-.6985.05411-.19796.19681-.42018.36643-.52626.23169-.14496.47833.03085.59934.2223.24799.39226.45618.81205.65332,1.23331.14394.30762.11225.63894-.17576.83631-.43022.29484-.71362-.01222-.9537-.33073-.18626-.24718-.34734-.51331-.51961-.77104l.03367.0346Z" fill="#264898"/>
  <path d="M71.25486,158.06717c.05451-.29619.03619-.48838.12255-.59854.13486-.17206.32908-.37928.51953-.40351.19636-.02493.49367.09275.61553.24984.4472.57645.34089,1.36397-.20338,1.9403-.19218.20344-.71823.10465-.80739-.17733-.11744-.37146-.18693-.75803-.24686-1.01077Z" fill="#264898"/>
  <path d="M51.13828,92.53197c-.04416.22421-.04832.47256-.14597.67605-.094.19591-.25382.41461-.44062.49787-.23373.10415-.39776-.11604-.51976-.31629-.25015-.4106-.39329-.85058-.36359-1.335.02798-.4563.3299-.74924.72506-.79397.29645-.03357.57079.22638.64634.56827.05012.22679.06591.46113.09854.70307Z" fill="#264898"/>
  <path d="M32.12114,109.65119c-.20122.34995-.47378.90961-.83396,1.40561-.1325.18246-.48284.08646-.59715-.14373-.38562-.77657-.0177-1.7223.7298-1.95571.25589-.07989.75981.24152.7013.69384Z" fill="#264898"/>
  <path d="M76.60435,180.2762c.02684.63466.06992,1.26923.07432,1.90403.00256.37008-.2491.55339-.5978.58591-.41949.03914-.8355-.31922-.77861-.6796.07385-.46772.20458-.92707.26676-1.39588.11298-.85189.67219-.37081,1.06891-.37995l-.03357-.03451Z" fill="#264898"/>
  <path d="M58.78877,112.34703c-.05003.54806-.21742,1.14902-.58666,1.66611-.20439.28629-.52723.30272-.8391.15322-.25236-.12097-.3218-.36999-.2243-.58796.25498-.56994.54351-1.12646.85188-1.66945.05383-.0948.27436-.14657.40909-.13271.26483.02725.37891.22714.38908.57079Z" fill="#264898"/>
  <path d="M55.81765,102.2532c-.1238.73134-.56894,1.26369-1.18713,1.64183-.18792.1149-.51725.01711-.5528-.24674-.10346-.76784.25355-1.37971.8278-1.84225.12394-.09979.44108-.01904.63995.05607.11604.0438.17404.24132.27218.39108Z" fill="#264898"/>
  <path d="M59.10251,77.1023c.1598.07274.36711.10266.41968.20903.05346.10819.00624.35247-.08676.43178-.41485.35388-.84595.69495-1.30484.98795-.19072.12179-.4992.10875-.60272-.16201-.07483-.19576-.12328-.50221-.02233-.64664.38105-.54527.94386-.80751,1.59696-.82011Z" fill="#264898"/>
  <path d="M67.83149,157.0707c.0735-.47742-.02967-.91351.44072-1.10367.32596-.13178.68986.45328.64549,1.06752-.0284.39313-.03625.80906-.36497,1.09623-.1099.09598-.27699.13541-.42504.17162-.03099.00759-.12415-.10717-.13597-.17476-.06729-.38525-.11863-.77326-.16024-1.05694Z" fill="#264898"/>
  <path d="M33.01245,100.02541c-.02624.35019-.44239.60688-.863.53229-.4998-.08865-.71451-.41933-.64237-1.01602.04956-.40989.22496-.78855.68541-.75149.46453.03738.85918.71171.81995,1.23521Z" fill="#264898"/>
  <path d="M33.50457,95.26223c-.01982.41423-.13822.78633-.5279.99272-.30809.16321-.64435.14253-.84622-.15246-.38629-.56452.06849-1.54427.74611-1.66989.33381-.06187.65283.35959.628.82963Z" fill="#264898"/>
  <path d="M58.0253,100.61225c.25018.08713.40892.2272.40271.49972-.00976.42841-.17302.764-.60003.90223-.41178.13333-.78139.01113-1.06051-.30489-.15394-.17429-.22596-.41121-.00378-.60322.36454-.31494.76874-.54272,1.26161-.49383Z" fill="#264898"/>
  <path d="M60.7661,147.48286c.173.07383.47518.17021.73656.3324.08851.0549.09147.27533.0975.42161.00231.05604-.08612.13216-.15012.17197-.44969.27979-.92035.16772-1.37359.02827-.2239-.06891-.44176-.23423-.40986-.51557.02982-.263.2436-.36926.48639-.40037.1571-.0201.3167-.02077.61312-.03832Z" fill="#264898"/>
  <path d="M69.53457,155.41853c-.22825-.08323-.46571-.13099-.65369-.25421-.09836-.06448-.17951-.28043-.14838-.39545.13081-.48343.55543-.50968.94754-.49078.32061.01544.59809.15431.6844.52872.04368.18949.02357.33316-.15936.40383-.21367.08253-.43809.13723-.67051.20789Z" fill="#264898"/>
  <path d="M162.02079,168.38088c-.96539-.37732-1.97113-.65002-2.95227-.98853-1.2226-.42175-1.63342-1.08551-1.39282-2.37506.11597-.62164.38605-1.2132.56335-1.82501.45911-1.58423.27563-2.13312-1.15503-2.96472-1.4574-.84711-2.81866-1.81879-4.12012-2.88312-1.19287-.97546-2.14221-2.15186-2.85645-3.51068-.74976-1.42651-.85742-2.79895-.0177-4.31567,1.73254-3.12927,1.21991-6.49622-1.18488-9.05139-.79352-.8432-1.65631-1.51312-2.90338-1.40607-1.01874.08746-1.66681-.45532-2.10004-1.29346-.29236-.56561-.52002-1.16516-.76721-1.75354-.24738-.58887-.41016-1.22711-.73889-1.76501-.69348-1.13464-1.65839-2.16248-1.06677-3.66211-.2738-.74896-.46552-1.5423-.84039-2.23669-.5838-1.0813-.50085-2.0567-.07837-3.1908,2.8175-7.56207,5.56274-15.151,8.34186-22.72736,7.02258-19.14423,14.05048-38.28662,21.06824-57.43262l2.46661-6.27869s-9.09265-1.91907-27.82617-11.00781c-.52814-.37946-1.08386-.71283-1.67914-.98248-1.44855-.65613-2.88556-1.33533-4.32355-2.01251C116.18076,13.30953,82.66813-7.02299,37.20066-42.85337c0,0-2.875,3.125-1.25,4.75.0257.0257.05609.05713.08234.0835.2583,1.92188.55817,3.84039.70508,5.77063.08258,1.08551.56641,1.56531,1.52155,1.81232.77209.19977,1.54309.42126,2.28839.70258.79749.30109,1.72375.31531,2.41956,1.04089-.43439,1.16882-1.79218,1.72504-2.21698,3.14178,1.1933-.08252,2.23218-.17523,3.12598.54608.77106.62225,1.80682.91956,2.44897,1.86133-.4646.39563-.79572.74561-1.18896.99915-.98065.63232-1.26892,1.5097-1.22351,2.64496.03583.89496.22931,1.71576.49579,2.55835.27496.86963-.55084,1.66406-.32196,2.56799.01947.07697.02271.15802.03381.23718.33289,2.37018.59082,4.75446,1.03088,7.10461.21649,1.15631.14014,2.20551-.24133,3.28021-.21332.60107-.40417,1.21143-.57501,1.82593-.15503.55762-.67908,1.01636-.58167,1.74573.52045-.04974.91113-.07745,1.29919-.12579,1.58929-.19794,3.2146-.39801,4.71729.24304,1.25647.53595,2.16187.08905,3.06195-.64514.30542-.24908.5545-.57214.80768-.87921.32318-.39209.70972-.70422,1.22791-.56635.78137.20782,1.21344-.10968,1.48547-.79901.1767-.44751.51794-.56738.9566-.41937,1.05713.35651,2.09479.69043,3.2489.72479,2.55365.07617,2.76184-.37384,3.29797,2.89111.06464.39386.14856.7854.19342,1.1814.06433.56842.02557,1.08307-.47894,1.51208-.72791.61908-1.0556,1.58478-.75275,2.37476.40558,1.0578.27631,2.21539.8089,3.2149.44098.8277.62213,1.63495-.11713,2.42578-.13702.14648-.17059.45618-.14392.67761.11438.94983.07385,1.98151.44775,2.82452.92291,2.08069.91705,4.36841,1.64282,6.48138.09558.27832.14612.72339-.00555.91003-.79236.97559-.33514,2.16492-.62061,3.22809-.28699,1.06897-.49603,2.22803-.40063,3.31793.32983,3.76764-.58051,7.48523-.33649,11.24042.0321.49347-.06519.94647-.4455,1.31091-.39893.38232-.96765.72101-1.12396,1.19122-.22772.68518.6524,1.00165.88202,1.57812.05798.14563.09253.30054.15668.51392-.33026.39771-.69208.81635-1.03442,1.25043-.32794.41571-.44891.91705-.06598,1.31.62927.64569.42523,1.26941.14917,1.96271-.50031,1.25659-.52502,1.32092.58698,2.12762.62079.45038,1.06427.97247,1.29999,1.6579.56171,1.63336,1.55865,2.95215,2.80963,4.10791.22998.21246.62634.49548.59784.69659-.19543,1.38031,1.8443,2.05206,1.10986,3.59076-.0578.12109.17065.44037.33575.59131.23126.21143.52979.34863.79645.52234,1.07208.69824,1.15198.95111.8623,2.13593-.22009.90039-.58795,1.63892-1.52551,1.98724-1.13043.42004-1.72815,1.32739-2.20514,2.38666-.32904.73071-.66333,1.44788-.8222,2.23627-.117.19543-.29163.37909-.33453.5896-.04218.20691.04938.44098.08228.66315.20068-.08319.41632-.14288.59674-.25781.12244-.078.19531-.23352.29041-.35443h.00006c.12927.08167.32068.13269.37842.24969.72717,1.4726.68127,1.62885-.58667,2.52362-.58649.41388-1.14502.86774-1.73712,1.27301-.85156.58289-1.79767,1.04358-2.15405,2.14447-.1427.44098-.61206.45233-1.01434.45734-1.13879.01428-2.00439.39764-2.38617,1.58435-.15985.49701-.63446.61633-1.12573.7522-1.25409.3468-1.33325.51147-1.28931,1.82184.01056.31543.05988.63263.03796.94519-.0177.25299-.18579.44873-.4671.39435-.12091-.02338-.28827-.16278-.31006-.27386-.06042-.3089-.03741-.63306-.08081-.94653-.07135-.51575.2085-1.13812-.58441-1.5932-.14825.79272-.24872,1.59137-.93573,2.07208-.23993.16797-.22791.44714-.05383.60181.47058.41821.56335.8429.40668,1.4754-.2146.86682-.08807,1.72076.58014,2.44495.32788.35529.14191.80719-.22925,1.01678-1.48163.83661-1.52246,2.08539-1.12732,3.51868.33698,1.22235.6015,2.44379.638,3.742.03058,1.09015.45612,2.1709.72455,3.2514.06177.24854.63934.3573.8111.15204.30438-.36365.57788-.75311.86505-1.13123.79956-1.05273,1.87939-1.849,3.13251-1.99268,1.36523-.15662,2.67841-.28906,3.89856-.96667.17194-.09546.49786-.06067.67987.0423.30377.17181.3291.48462.22546.82996-.25085.8363-.37506,1.54797-1.63776,1.57922-1.28522.03186-2.19781,2.24249-1.63098,3.40912.18323.37714.44592.6604.82996.81769.36847.15094.75836.25348,1.11694.42352.35413.16797.71338.35632,1.00555.61023.14319.12445.17639.41705.1817.6355.00189.07495-.22821.21259-.35962.22229-.3161.02344-.63666-.00854-.95514-.02411-1.42499-.06982-2.73486-.29974-2.97729-2.07727-.01923-.14124-.14551-.2981-.26642-.38818-.18195-.13562-.4162-.31909-.6037-.29462-.17297.02252-.37158.26593-.4588.45758-.44482.97705-.7019,2.05109-.15607,3.00354,1.05139,1.83472.96008,3.64783.24432,5.52466-.05652.14825-.10162.30463-.12427.46118-.06433.44476.12878.78735.51312.9762.28015.13757.62598.14203.90491.28119.73462.3667.88953,1.18732.33698,1.78577-.26776.28998-.56812.57715-.90839.76788-1.19012.66724-2.03479,1.66034-2.90698,2.85101.37024-.02899.59619-.01074.79938-.07025.38525-.11273.78015.12024.71259.36694-.26514.96863.1098,1.2771,1.0166,1.30103.20203.00531.33649.33344.24066.57782-.08557.21832-.27814.39471-.36383.61304-.13654.34784-.06421.58459.3913.58411.30927-.00037.61853.06781.9278.10529.30145.59656,1.11652.32001,1.45398.85535.05322.03723.10974.07483.16571.11243-.07263.0498-.14789.09192-.21869.14709.0163-.08679.034-.17322.05298-.25946-.85541.13068-1.71149.25745-2.56616.39282-1.19189.18884-1.96167.93896-2.48669,1.95917-.06848.13312.14642.41211.23004.62347-.15881.31012-.31763.62024-.4765.93036h.00006c-1.30603,1.06555-1.76117,2.37854-1.19745,3.99475,1.09564.09985,2.06158.0152,2.78882-.95367.28955-.3858.91498-.09778,1.08124.42822.17792.56287.01611,1.06586-.59076,1.38635-1.50061.79254-2.80621,2.03149-4.89069,1.93036,1.64655,1.00836,1.76984,1.12488,2.18951,2.04724.10083.22162.12225.46338-.09357.62335-.11652.08643-.30377.15302-.43878.12628-.69348-.13763-1.37463-.34436-2.07141-.45642-.5658-.09094-.9361.25781-.92334.79803.01141.48364.29236.73016.76581.66364,1.25354-.17609,2.35883.11896,3.31659.95575.36267.31689.25671.55786-.41571.92316-.0379-.0672-.06128-.17426-.11639-.1944-.19379-.07056-.46167-.21704-.58643-.1424-.29871.17877-.05231.40948.09998.53967.16418.14032.39349.20471.59436.30194.0766.25775.23633.39484.5174.35583-.00006-.00012-.00012-.00012-.00012-.00012h.00012c.125.09705.29755.16931.36401.29688.10083.19348.23846.4967.15741.62219-.09454.14648-.44232.25684-.61884.19812-.44342-.14734-.85229-.39868-1.27502-.60834-.33136-.55273-.85455-.89752-1.3783-1.23102-.08746-.05573-.32001.00116-.4032.0863-.08258.08472-.1264.30304-.07483.40692.27905.56152.61713,1.08478,1.19019,1.40173v.00012c.14905.37024.29962.73987.44647,1.11102.05878.1485.09192.30951.1665.44891.30908.57758.75574.74603,1.33911.33405.69946-.49402,1.60999-.92609,2.17975-.44989.64368.53796,1.24475,1.12329,1.98737,1.53973.20264,1.30725,1.25623,1.50122,2.27551,1.72833.64819.14441,1.0224.55554.90161,1.18976-.19104,1.00317.28558,1.48114,1.12952,1.80859.28748.11163.54425.32751.77979.53577.10083.08911.19641.35327.14679.41101-.13519.1571-.34833.34033-.53186.34167-.30389.0022-.62769-.08795-.909-.21484-.50659-.22839-.97559-.54059-1.48328-.76611-.53046-.23566-.86432-.06409-1.1358.50494-.37506.78613-.25671,1.03876.44238,1.59375.71063.56415,1.83929.49579,2.31238,1.09308.83075,1.04901,1.95428,1.01605,2.96619,1.13629.86908.10327,1.49548.27887,1.99286.99896.30029.43469.77789.55353,1.271.30511.51178-.25787,1.03772-.44415,1.60791-.33105.20728.04108.43048.19366.56561.36072.18762.23206.01709.48145-.17322.61084-.52618.35767-1.09485.65369-1.6145,1.01971-.16779.11823-.3446.39569-.31708.56848.02515.15796.32062.27301.49707.4068.56421.42786,1.1748.40332,1.82294.22638.77856-.21252,1.57104-.28149,2.34387.02692.13104.05231.31134.2348.29956.33783-.02344.20642-.15869.56903-.25702.57208-1.13245.03577-1.65314.64069-1.9353,1.69714-.10205.38196-.64307.68744-1.04022.93854-.39856.25195-.87585.37561-1.30328.58661-.50067.24707-.63654.63214-.44885,1.18066.47021,1.37427,1.41461,2.47742,2.11951,3.71503.36603.64264,1.21661,1.00977,1.8924.68115.8446-.41083,1.82697-.17871,2.60803-.75647.30664-.22681.57068.03101.73511.34814.18732.36127.32892.69836.14368,1.12311-.25336.58087-.43256,1.19373-.67706,1.77887-.14398.34467-.44025.43903-.77252.2583-.20673-.11249-.37488-.29443-.578-.41541-.21039-.12524-.43311-.14539-.6496.0246-.26984.21185-.48926.50177-.34937.81372.47284,1.05444.64044,2.28369,1.78247,2.9671.38678.23151.57544.81244.96747,1.01215.50977.2597.79486-.38245,1.20624-.56543.90063-.40051,1.86206-.36292,2.79901-.15808.57886.12665.72711.8736.3006,1.31488-.22156.22925-.46436.43964-.71014.64331-.86493.71686-.71576,1.31238.37024,1.69.21704.07544.41998.19745.61877.31592.05353.03192.11023.14606.0918.19415-.04999.13062-.12225.33453-.21625.35297-.54443.10651-1.10461.13739-1.64435.26019-.20367.04639-.46368.23468-.53125.41937-.25.68317-.36603,1.44495-.08807,2.10107.17914.42291.77942.49957,1.28583.40967.36023-.0639.62445.12994.83612.36536.45532.50623,1.08844.65869,1.68243.86279,5.96136,2.04803,11.90045,4.1662,17.89954,6.09778,15.57147,5.01379,31.29773,9.49127,47.19849,13.34583,2.2478.54492,4.49799,1.08014,6.74866,1.61298.46497.11011.76447-.078.86523-.55548-1.52051-2.69019-2.42261-5.54559-2.40686-8.66913.00452-.89551.29565-1.40582,1.14484-1.84662,4.65399-2.41626,6.88-6.4715,7.52112-11.52869.15332-1.20984-.0141-2.40155-.44141-3.53693-.29614-.78705-.17834-1.44598.51752-1.88049.57721-.36029,1.01587-.71289,1.04242-1.46265.03497-.98975-.10773-1.91077-.71924-2.7196-.59784-.79083-1.4046-1.31531-2.30396-1.66693ZM62.67411,121.50216c-.00519-.0293-.01184-.06641-.01184-.06641,0,0,.00555.03076.0119.06641h-.00006Z" fill="#264898"/>
</svg>