<?xml version="1.0" encoding="UTF-8"?>
<svg id="Layer_1" xmlns="http://www.w3.org/2000/svg" version="1.1" viewBox="0 0 200 100">
  <!-- Generator: Adobe Illustrator 29.6.0, SVG Export Plug-In . SVG Version: 2.1.1 Build 207)  -->
  <path d="M189.9873,31.25974c1.84829-1.06073,3.72607-2.09033,5.46685-3.31058.92025-.64483,1.22455-1.90419.72715-2.88506-.2529-.49903-1.36195-.88176-2.0201-.80026-2.37435.29324-4.72188.80517-7.07904,1.23622-1.35335.24737-1.42502,1.26366-1.53069,2.36514-.07147.74661-.42532,1.46618-.71425,2.39524-1.87942-.67309-3.59849-1.36379-5.36385-1.90296-2.66739-.81459-2.97496-.5877-3.61344,3.01755-.21419,1.2096-.56661,2.15033-1.88986,1.79423-1.26735-.34115-2.2734-.76422-3.72852-.16136-2.63073,1.0894-1.18482-1.10865-1.41417-2.05265-.60244-2.48022-1.64352-1.17049-2.60472-.22382-2.19108,1.33185-2.35674-.84899-3.20389-1.84768-2.48534-2.20091-3.72607,2.70875-6.17045,1.00872-.8408-2.62868-1.6087-5.36569-2.60186-8.01854-.68722-1.83621-2.03381-2.97107-4.20626-2.54145-.50047.58156-1.12462,1.06912-1.39308,1.82761-.05447.46811-.06758.93746-.03952,1.40782-.27174,1.66645-.36962,3.38491-1.55464,5.0702.93991-1.9345,1.25854-3.6073.06164-5.2629-.60326-.48716-1.13588-1.19547-1.82454-1.41581-1.49219-.47774-3.53174-.19044-4.2423-1.76249-.61002-1.35007-.50784-3.09516-.43822-4.65308.04485-1.00933.75644-1.97853.86763-2.99871.07679-.70217-.16034-1.62898-.60634-2.16651-2.55496-3.08205-7.94195-2.82424-9.17285.89384-1.10865,3.34785-2.87728,3.25918-5.38146,2.85905-1.55485,2.25169-4.49397,3.11502-5.4046,5.12283.72551-1.39943,1.07629-3.56839,1.45308-5.72998.97513-1.8958,1.95621-3.78893,2.92438-5.68862,2.69523-5.2887,2.48043-10.89602,1.59048-16.5015-.43514-2.74192-1.52004-3.38225-4.96741-3.73979-.79391-.08252-1.62447-.03891-1.93819-.90244-.38498-1.06011.56825-1.22045,1.21288-1.67259,2.46814-1.73157,2.44643-1.76884.07167-3.07468-.41098-.22587-.8922-.34627-1.26223-.62128q-3.70907-2.75646-6.7559.24225c-.55146.54695-1.20387,1.38161-1.8014.45153-1.49137-2.32152-3.54832-2.39401-5.51968-1.24974-2.00167,1.16189-2.46507,3.37652-2.44746,5.63108.01884,2.4106.11385,4.82857-.03584,7.22995-.15071,2.41797-.38293,5.15785-3.28253,5.79695-2.52404.55637-3.53297-1.78215-4.8384-3.47133-3.58907-4.64427-6.28185-5.17239-11.61826-3.22171-4.91928,1.79832-9.67987,4.76448-15.37566,2.68848-1.40434-.51173-2.64097.74517-3.09618,2.00617-1.03083,2.85701-2.38848,5.37757-5.11873,6.93795-1.02858,4.04162-1.97627,8.13915-6.65659,9.66554l.09338-.10177c-.65814.47692-1.22475,1.04517-1.7029,1.70229l.10505-.10382c-.95957,1.03882-1.39656,2.47326-2.54493,3.36546-4.94468,2.16815-10.05583,2.02112-15.22331,1.07035-.76053-.27214-1.39328-.11201-1.87721.55453-.99085,1.17438-2.27294,1.60092-3.7725,1.46987-3.19181,1.6042-6.83884,2.74274-5.36487,7.75459,1.04496,3.55303-2.67844,2.09791-3.92859,3.28765-3.61447,6.15981,2.24268,8.35273,4.97335,11.85539,3.88333,5.19368,2.85127,10.48811.3219,15.81265l.02293-.07351c-.65323.4847-1.22086,1.0554-1.71293,1.70249l.10157-.10607c-.64545.49555-1.21759,1.0638-1.70311,1.71805l.10914-.07126c-1.22639,1.42338-2.26664,2.94199-2.49619,4.87444.28873,1.18892.73923,2.12043,2.22896,1.40618,2.41306-1.66297,3.60771-4.69199,6.5841-5.75251,2.33524-.8322,3.30423-2.65059,2.98745-5.06058-.33644-2.55722,1.09308-3.90975,3.03065-5.12938,2.94752-1.85546,6.00684-2.14808,9.20643-.9223,1.49301.57214,2.94854,1.27021,4.35595,2.03156,1.93778,1.04783,3.81719,1.71621,6.08711.89752,1.47396-.53159,2.47654.52586,3.18444,1.7629.65937,1.15308,1.04824,2.92745,2.02214,3.34703,2.97188,1.28045,4.5081,3.5731,5.77811,6.2925.32334.69234.92066,1.46311,1.58618,1.75389,3.29338,1.43997,4.35923,4.61868,5.76787,7.41446,2.14357,4.255,3.23277,9.10998,7.4419,12.10112.39685.28218.8148.90531.79309,1.34905-.24204,4.92686,2.89079,7.70872,6.31625,10.4191.76667.60654,1.0765,1.81655,1.53806,2.77714,1.04066,2.1661,1.98897,4.37807,3.0757,6.52,1.69287,3.33802,3.27802,4.01521,7.09665,2.69523,2.59244-.89609,5.10829-1.68631,7.78305-.57746,1.03022.42716,2.00863,1.3554,1.424,2.4321-1.63471,3.00997-.15952,4.48148,2.40384,5.47914,1.54522.60142,3.22335,1.19137,3.25673,3.06936.06,3.34908,2.04897,3.87494,4.75362,3.83726,4.28449-.05979,8.57163-.07269,12.8553.00819,2.28917.04321,4.04613-.54429,5.54896-2.47244,1.40864-1.80652,2.7925-3.97302,5.76091-3.62593,1.15984.13577,1.91423-.95199,2.385-1.89825,1.34516-2.70486,3.84975-4.24865,6.41065-6.04575-1.35765-2.08317-2.51237-3.85446-3.66689-5.62576-.05365-.04853-.08416-.10321-.13556-.15235.20948-.44436.40811-1.0339.64954-1.05172,3.40273-.25494,7.38968.63603,10.06218-.85493,2.69605-1.50406,3.60156-5.72016,6.29025-7.97697,1.72604-1.44898,2.44009-3.29748,3.04048-5.41218.93848-3.30628,2.36678-6.47024,3.45106-9.73946,1.10312-3.32491,2.79373-6.28677,5.0059-8.97545-1.51451-4.38257,3.14287-5.56596,4.42087-8.5057.73534-1.69143,1.59478-3.32901,2.39831-4.99096-1.17049-2.03197.23242-4.46673-1.01732-6.48929-.08498-.17426-.20805-.31105-.30675-.47282.74681,1.03022,1.39533,2.19948,3.0239,1.97935,1.54522-1.04701,1.81798-2.82711,2.49947-4.36926.25904-.61453.5275-1.22332.76033-1.84808.29057-.5961.6047-1.18134.89568-1.77273.83834-1.12564,1.78542-2.1917,2.196-3.58109.58463-2.32644.46873-4.54823-1.00216-6.56628-.51746-1.57225-.9696-3.10785.90817-4.18558ZM143.63283,94.42677c2.711,3.31693,1.2784,7.67022,2.76506,11.29369-2.97823-3.20737-1.96644-7.49575-2.76506-11.29369ZM177.31855,47.95864c.57439.74251,1.94699,1.467,2.79209,2.75319-.95445-1.14837-2.1362-1.97156-2.79209-2.75319Z" fill="#264898"/>
</svg>