<?xml version="1.0" encoding="UTF-8"?>
<svg id="Layer_1" xmlns="http://www.w3.org/2000/svg" version="1.1" viewBox="0 0 200 100">
  <!-- Generator: Adobe Illustrator 29.6.0, SVG Export Plug-In . SVG Version: 2.1.1 Build 207)  -->
  <path d="M109.73155,47.09303c-.04917.09632-.09833.19265-.14768.28925.11805-.06102.1626-.15995.14768-.28925Z" fill="#264898"/>
  <path d="M110.01364,45.20112c.01562.36036.03125.72075.04684,1.08108.14729-.36741.21875-.73155-.04684-1.08108Z" fill="#264898"/>
  <path d="M109.73155,47.09303c-.04917.09632-.09833.19265-.14768.28925.11805-.06102.1626-.15995.14768-.28925Z" fill="#264898"/>
  <path d="M104.18193,21.88348c.51647.1936,1.04002.36819,1.55776.55855.19088.07015.34114.27243.25328.42244-.36752.62764.15205.94888.44314,1.31097.90293,1.12316,1.34406,2.40288,1.43618,3.82471.05393.83284.051,1.66153-.07802,2.48834-.08648.5541-.08546,1.10619.11385,1.64089.14979.40191.43654.55586.86579.454.49347-.1171.97657-.29758,1.47576-.36688,1.05907-.14701,1.98411-.45298,2.3966-1.57332.01665-.04525.17505-.08433.23279-.05594.06186.03044.11442.14419.11442.22161.00004.13562-.06257.27088-.06507.40692-.01182.64411.17364.86829.76456.8903.5068.01887,1.00712.00487,1.50895-.14129.83083-.24196,1.42832-.7561,1.59176-1.57554.19914-.99826.37902-1.96722,1.08344-2.76292.13703-.15477.14884-.42769.19871-.6505.07125-.31814.15565-.62577.40346-.86462.0716.03971.14997.0691.21127.11932.75246.61664,1.32755.5862,1.86084-.119.16641-.22005.28844-.47305.44303-.7027.63508-.94345,1.3988-1.70576,2.56978-1.96962.3982-.08973.78572-.2816,1.14312-.48755,1.05572-.60835,2.20092-.98853,3.38259-1.18425,1.29397-.21434,2.41092-.90956,3.6698-1.19324.08825-.01989.17201-.06864.25222-.11389.39048-.22037.54867-.48236.43125-.91502-.15643-.57639-.36452-1.14069-.58017-1.6987-.31567-.81687-.6688-1.61924-.98564-2.43568-.38286-.98652-.7252-1.98905-1.12185-2.96978-.28266-.69885-.73328-1.27866-1.41661-1.6483-.72379-.3915-1.31499-.32759-1.88405.25832-.25374.26125-.43965.58733-.68284.86039-.06761.07594-.22989.06754-.34876.09784-.02-.08648-.07523-.18302-.05389-.25769.08839-.30925.20859-.60937.29892-.91813.03922-.13406.01132-.29405-.1353-.34339-.12232-.04123-.30491-.06747-.39514-.00522-.18263.12599-.37475.29119-.46596.48571-.19448.41475-.36724.84886-.47428,1.29298-.1172.48621-.37394.83094-.79151,1.07709-.14129-.01725-.28255-.03449-.42381-.05174h-.00004c.38209-.83993.76555-1.6793,1.14577-2.52008.20348-.44984.24598-.86314-.14345-1.26988-.65162-.68062-1.0304-1.51656-1.26935-2.4226-.05844-.22168-.16429-.43147-.25458-.64408-.17455-.41108-.44191-.63748-.93072-.68986-1.75566-.1882-3.42608-.72248-5.0692-1.35058-.29941-.11445-.61135-.21363-.92642-.2652-.42007-.06878-.70499.15265-.78047.5886-.09435.54507-.12849,1.10189-.2452,1.64139-.14768.68256-.2015,1.3376-.04733,2.04139.30735,1.40289-.12786,2.53172-1.39132,3.32443-.82424.51717-1.50112,1.2235-2.18748,1.91138-.32826.329-.43069.69843-.32026,1.13413.05601.22108.15699.43164.20305.65409.04345.20986-.11068.33394-.2701.43672-.21124.13614-.43221.14038-.65804.04088-.37175-.16376-.60464-.00963-.78537.31803-.74354,1.34808-1.75859,2.48534-2.81816,3.58494-.35207.36537-.74946.68728-.87834,1.21521-.06398.26203-.28079.34269-.52451.3629-.18401.01524-.37757-.00427-.54937.04857-.10803.03322-.19487.16422-.26389.26929-.01277.01943.09244.15787.1644.18485Z" fill="#264898"/>
  <path d="M148.81884,6.6741l.00561.00529c-.0503-.12211-.12747-.14923-.23571-.0668-.57004-.11237-.98786-.45922-1.34356-.89097-.04564-.05537-.04793-.18154-.01838-.25363.02832-.0691.12348-.15438.1906-.15558.18178-.00317.36572.06081.54627.05104.49255-.0267.76541-.26527.846-.7458.0377-.22496.04151-.46032.02575-.68855-.03587-.51788-.43954-.74142-.86914-.46878-.41796.26523-.81126.5693-1.26163.88914-.02483-.22312-.08839-.37521-.0474-.48991.43746-1.22347.05654-2.3651-.36487-3.48826-.14172-.37764-.41616-.71282-.66556-1.04024-.18827-.24721-.4721-.27603-.74611-.13498-.11745.06049-.20813.17434-.30812.26703-.24192.22429-.45517.07904-.5662-.11414-.15844-.27571-.25465-.59117-.34946-.89831-.08232-.26682-.16545-.5237-.35264-.74139-.16168-.18806-.42053-.23138-.58944-.05255-.12387.13117-.18591.3677-.32819.42388-.2318.09156-.40491-.13279-.57533-.27412-.17741-.14711-.33676-.31803-.52338-.45143-.3338-.23861-.65663-.18503-.98666.13741-.27702.2706-.27888.46681-.01249.83496.26901.37175.53576.74516.8035,1.11783l-.19279.22252c-.71137-.68654-.84868-.74022-1.46514-.26009-.57935.45122-1.12721.90007-1.91939.88928-.19981-.00272-.29433.37454-.16937.56094.37292.55636.95298.82233,1.53021,1.09244.20513.17882.43866.25681.54571.23497-.77913.34565-1.7982-.02515-2.75156.2579-.16637.07714-.33489.15004-.49876.23222-.55195.27691-.51671,1.08591.10694,1.26745.21998.06402.43517.14454.65251.21751.42783.37309.93643.21564,1.76815.19268-1.27814.09576-2.21436.11886-3.13079.32474-.21134.0916-.42882.17131-.63293.27687-.79182.40967-1.14132,1.07487-.97428,1.91766.04211.21233.16993.54126.3162.5765.67201.16189,1.25264.87383,2.04686.37556.2725-.17099.52091-.11766.71924.14814.11004.1475.22358.29451.35168.426.72537.7446,1.15596.83902,2.09035.39983.28548-.1342.52804-.36346.78209-.55974.25448-.19663.4813-.43393.75095-.60496.59442-.37701,1.0724-.32766,1.64481.12384.24305.1917.26157.5328.01598.69638-.30604.20383-.62887.38279-.94747.56722-.29409.17025-.49608.40893-.5619.74622-.04716.24167.02783.46155.18817.63822.18044.19882.4205.16813.63745.08278.16859-.06631.31923-.18076.47361-.28037,1.0123-.65318,2.14643-.77571,3.31187-.76555.33359.00289.63801.11177.91266.28407.23282.14598.49368.32692.47545.63106-.02035.3387-.33447.39157-.60535.44381-.27141.05234-.54602.1342-.81807.12997-2.0634-.03231-4.10504.5449-6.1804.21053-.37038-.05968-.56867.31056-.37249.65561.15851.27874.36646.53065.51174.81524.20736.40618.03643.69219-.41707.74079-.13671.01467-.2773-.0073-.41401.00723-.2452.02599-.44783.14355-.51562.38745-.0765.27511-.06716.57477.16006.77094.2033.17554.45069.32516.70407.41171.39062.13339.80625.19145,1.20527.30294.49679.13886.9128.37394,1.21162.83933.35122.54701.46215.57537.89527.065.56969-.67131,1.28925-.82463,2.08894-.84699.32244-.00903.64718.0176.96747-.01051.31828-.02797.64157-.07393.94585-.16701.3982-.12175.55713-.34519.45936-.84702-.09897-.50814.0868-.78943.49016-1.00916.61142-.26534.64827-.84547.70203-1.37693.17589-1.73993,1.07752-3.3924.63124-5.2064Z" fill="#264898"/>
  <path d="M125.17675-6.33726c.07724.03559.1869-.00621.27314.01809.40261.11343.48257.2962.2342.53844-.13075.12754-.30474.21191-.43009.3435-.28167.29571-.1639.72947.22118.88854.18193.07516.35137.06599.53093-.00945.33313-.14002.60888-.55883.9826-.41947.47411.17681.20408.73557.38251,1.0876.08225.16224.1445.37083.35525.35715.17427-.01129.37958-.07481.50504-.18827.2082-.18834.2888-.46458.31197-.74929.01873-.22986.03527-.46621.21822-.63424.05992-.05506.15847-.07192.24234-.09604.11308-.03255.1954.01912.19011.13861-.03206.72545.08123,1.46172-.12408,2.17355-.07795.27017-.17498.52507-.0576.8035.44624.0358.89206.07862,1.33891.1038.26072.01471.42388-.12863.51185-.37214.11258-.31165.15329-.62365.05622-.94765-.14112-.47118.21864-.65229.51153-.87083.5874-.37581.26961-1.07247.56172-1.50062-.21504.55188-.17039,1.19405-.26799,1.81665.1304.11819.24234.28735.39545.34269.2324.08394.4594-.0504.60912-.22206.14637-.16785.25966-.37676.34258-.58549.23466-.59029.57339-1.1427.62189-1.80406.01132-.15449.15935-.38784.28985-.42487.2227-.06317.18002.22792.2706.35299.14606.20164.32625.08758.4965.08013.57322-.19886.45912-.92024,1.10429-1.37386-.50236.72079-.68552,1.32279-.83648,1.93664-.05739.67469.22019,1.26293.49079,1.84871.22496.48712.74717.58831,1.12118.22164.30442-.29846.4448-.68816.57981-1.08577.24266-.71455.25494-.71144.93389-.72851.13819-.00346.27733.01457.41496.00571.72703-.04656,1.08228-.36717,1.15589-1.11085.04063-.41051-.00085-.82886-.00004-1.24368.00067-.3435.06927-.39704.39895-.26001.2021.08398.38815.30664.5948.04843.13625-.17022-.00208-.34156-.07297-.50289-.11114-.25296-.24965-.49696-.33183-.75878-.0935-.29804.01457-.56073.30703-.684.33694-.14207.70432-.21367,1.03727-.36315.66513-.29864.85708-.99033.45418-1.60531-.17544-.26774-.40713-.49851-.58398-.76548-.19353-.29218-.19374-.75638-.66732-.79094-.48342-.03524-.62771.48606-.9983.66422-.22651.10888-.08073.42878-.15001.64087-.14084.43118-.66538.58972-.98475.29574-.16888-.15544-.30128-.34992-.4649-.51188-.73091-.72347-1.80194-.89168-2.65351-.37235-1.25517.76544-2.54237,1.49054-3.5612,2.58622-.2518.27081-.54387.54493-.92568.56743-.77613.04582-1.26879.4637-1.65398,1.0887-.22584.36643-.55823.42445-.96349.28555-.29853-.10236-.5923-.22845-.93852-.16679-1.05695.1882-1.84176.7913-2.50266,1.58838-.09615.11597-.00878.26467.1226.32527Z" fill="#264898"/>
  <path d="M75.10613,29.30237c.50028.0364,1.00507.01055,1.50799.01055-.00007.00829-.00011.01658-.00018.02487.45852,0,.917-.0019,1.37552.0006.38653.00215.71501-.15537,1.01406-.37761.19586-.14556.30587-.34364.20686-.5953-.05012-.12747-.1456-.23857-.1869-.3678-.20203-.63265-.05534-.90575.60348-1.1313.26026-.08913.528-.15621.78914-.24298.2263-.0752.46906-.20602.42483-.4619-.03897-.22577-.29257-.32971-.51841-.38949-1.04796-.27751-2.00221-.09269-2.85357.58729-.82487.65885-1.6222,1.35594-2.60643,1.78455-.29391.128-.34819.40159-.33352.69349.01859.36861.3149.446.5771.46504Z" fill="#264898"/>
  <path d="M71.68566,30.00496c.09322.18316.28171.22192.46659.25194.44293.00363.98602-.33465.91785-.65004-.14785-.684.08969-1.26318.32195-1.86652.09643-.25046.1894-.55435-.03181-.78558-.26446-.27642-.47848.00138-.72008.10288-.42286.17762-.86931.29818-1.29863.46173-.40064.15265-.59946.50938-.44229.8806.23197.54782.51619,1.07388.78643,1.60499Z" fill="#264898"/>
  <path d="M152.18549-12.24297v-.00004c-.00279-.08761.01344-.17149.04867-.25173.35373-.47622.27966-.93922-.04317-1.39449-.64125.00363-1.28272-.00226-1.92362.01383-.55594.01397-1.08506.14122-1.57684.41824-.42769.24093-.70912.56218-.72894,1.0785-.01227.31899-.00547.65071-.09139.95276-.31119,1.09353-.00261,1.94581.89485,2.62706.24122.18312.48649.31976.74446.17307.56507-.32135,1.13628-.26915,1.73246-.15466.10616.02039.24026-.10497.36149-.16302.88843-.97738.35733-2.20512.58204-3.29953Z" fill="#264898"/>
  <path d="M136.00899-.86816c.10345-.13636.12856-.33211.14521-.37775.0231-.34858-.24316-.56613-.45527-.51312-.08888.02222-.17995.04165-.26372.07717-.71511.30326-1.53819.47725-2.1132.95149-.62196.51301-1.33997.7744-1.9967,1.17701-.41245.25285-.50261.54179-.20912.89319.27377.3278.4394.6809.57135,1.08059.13569.41097.47721.52342.88476.39161.54726-.17695.96878-.54715,1.31827-.96592.73511-.88074,1.42465-1.79993,2.11842-2.71428Z" fill="#264898"/>
  <path d="M152.91838-19.66464c-.69776.46331-1.39908.80495-2.29231.79387-.64513-.00801-1.21461.39909-1.66883.8878-.15985.17201-.31733.39358-.20746.61628.11611.23529.38399.19572.61145.14433.08881-.02003.17166-.06514.25882-.09403q.94829-.31416,1.53625.49714c.02698.03721.04931.07791.07714.11445.29733.39097.49217.3975.86829-.00155.11385-.12077.14941-.36576.38515-.23187.11089.06296.17854.20214.2658.30675l.50388-1.49434c.16038-.51488.22044-1.06105.32435-1.59356-.23049-.09745-.46963-.07333-.66252.05474Z" fill="#264898"/>
  <path d="M144.94595,25.26188c-.41358-.0509-.92652-.16457-1.13607.25229-.29973.59611-.68016,1.18823-.70305,1.89131-.00399.12165.09611.25402.16757.36942.28992.46836.5851.93351.88325,1.39672.12387.19247.25663.38117.51089.41715,0,0,.00004-.00021.00007-.00032.18609-1.02683.38417-2.05183.55304-3.08163.07213-.43979.18662-.91287-.27571-1.24495Z" fill="#264898"/>
  <path d="M144.72283-12.68861c.06007.28717.31751.44014.7288.44272.17226-.05961.44099-.12923.68922-.2434.52373-.24083.67875-.6288.41196-1.12238-.26259-.48582-.59667-.93284-.70643-1.49135-.04409-.22425-.23388-.28192-.4188-.26816-.32354.02398-.62933.11879-.91111.29663-.33585.21198-.45266.43185-.30125.81136.20538.51481.39334,1.02828.50761,1.57458Z" fill="#264898"/>
  <path d="M144.71183-4.23735c.48106.19727.77246.0764,1.02722-.37087.41461-.72795.26742-1.17246-.52077-1.5057-.29236-.12359-.60327-.20341-.78731-.26411-.51329-.04998-.74848.02021-1.15046.29303-.31825.216-.35747.5147-.14574.81722.39027.55763.98874.78914,1.57705,1.03043Z" fill="#264898"/>
  <polygon points="63.72586 47.81209 63.72057 47.82179 63.71828 47.83227 63.72586 47.81209" fill="#264898"/>
  <path d="M59.84395,38.79834c-.00152.00145-.00279.00314-.0043.00455-.00208.00423-.00494.00804-.00698.01231l.01129-.01686Z" fill="#264898"/>
  <polygon points="62.34378 51.28614 62.33909 51.29207 62.33433 51.30021 62.34378 51.28614" fill="#264898"/>
  <path d="M62.06091,59.32276c-.00399.00388-.00758.00818-.0116.01206-.00056.00102-.00127.00198-.0018.00303l.0134-.0151Z" fill="#264898"/>
  <path d="M144.2033,31.49027c-.22644-.15307-.44413-.09756-.63582.04984-.25479.19593-.48278.42695-.73959.61988-.17963.13491-.38075.24792-.58613.33983-.18231.08158-.50158-.18186-.46935-.37443.02233-.13318.03467-.28537.10758-.38995.50871-.7295.38794-1.47226.10218-2.24-.29158-.78332-.67727-1.5148-1.13649-2.20857-.71077-1.07381-.8047-1.37679-2.16784-.44314-.45566.31211-.87316.67956-1.31348,1.01466-.45866.34911-.9764.50388-1.55554.46208-.5492-.03964-.94271-.3478-.98253-.78823-.03753-.41538.3168-.7731.9055-.87326.27095-.04613.55216-.02836.82741-.05372.55699-.05132.76019-.2852.54119-.8199-.39101-.95492-.0862-1.70583.53068-2.4099.15163-.17307.33592-.31842.48074-.4964.2743-.33708.14196-.71434-.26658-.87326-.22951-.08927-.4491-.07904-.67642-.03548-.31468.06028-.62577.15247-.94296.18256-.3155.02987-.51696-.16743-.59967-.46046-.03643-.12916.00233-.27797-.02317-.4121-.07068-.372-.26629-.46504-.56542-.28418-.48031.29049-.82766.72661-1.23292,1.10094-1.33076,1.22925-2.70956,2.25513-4.68513,1.24897-.71945-.36639-1.25084-.09438-1.80832.57438-1.00521,1.20583-1.95332,2.44796-2.71873,3.82749-.47009.84723-1.03875,1.63476-1.7053,2.3474-.39507.4224-.82882.71645-1.44338.68175-.31927-.01802-.64972.00004-.93753.18094-.18013.11322-.22665.27998-.14531.47139.11459.26957.34886.43199.58849.56539.84879.47248,1.73665.84036,2.7146.95104.6068.06867.85842.2313.82046.51446-.05351.39933-.38762.4739-.68735.58338-.38745.14154-.79419.24312-1.16033.42639-.31063.15547-.4194.47887-.39863.82621.01668.27871.30121.56754.63582.64718.62969.14994,1.19236.00229,1.67038-.42572.16926-.15159.2864-.35976.44406-.52627.34844-.36801.58687-.38597.9431-.06793.17138.15304.32311.32869.47862.4988.38025.41598.81528.56338,1.3691.35422.3459-.13061.71881-.18443,1.087-.06656.07209.02303.1638.09572.17762.16027.01538.07181-.02314.19233-.08063.23712-1.09808.85478-2.33618,1.27926-3.7347,1.15702-1.01431-.08863-2.02231-.14281-3.02223.12503-.68866.18447-1.28974.49456-1.70533,1.09547-.5231.75645-.51223,1.33009.14859,1.97477.46617.45478.86275.94871,1.24036,1.47339.40738.56606.93259,1.0166,1.54401,1.36674.35846.20531.7161.42226,1.0366.68055.29077.23437.57138.27324.89249.12214.82117-.38642,1.52108-.09879,2.18314.3903.11054.08162.19416.19977.30495.28093.40346.29557.74029.27991,1.10838-.0656.16704-.15678.31641-.33662.45196-.52197.39616-.54169.81468-.59216,1.25345-.14708.85073.863,1.88507,1.1106,3.05443.81553.08909-.02247.17582-.07238.2646-.07488.30749-.00868.54197.14239.65917.41439.08959.20785.14038.44169.16097.66827.0595.65448.41549,1.10503.93538,1.46024.45725.31239.91069.6305,1.36282.95026.50299.3557.87069.82209,1.09074,1.39672.07111.18566.00025.35863-.14221.49753-.85253.1135-1.65535-.26693-2.49804-.25127-.45485-.14041-.89094-.37842-1.394-.26813l-.00007.00007.00004-.00007c-1.69253-.46395-3.35758-1.00835-4.96744-1.7114-.59195-.25853-1.20749-.48927-1.69172-.93136-.88995-.81242-1.87689-.8934-2.95469-.46465-.29927.11907-.60415.22404-.90649.33546-1.04373.28336-2.04181.2354-2.95948-.40515-.03598-.02511-.08352-.03428-.12634-.04889-.31137-.10624-.52652.07005-.51026.4012.03005.61039.36812,1.10781.58828,1.64841,0,0,.00014-.00014.00021-.00025.37143-.54419.85447-.81849,1.54037-.90473.66827-.08401,1.33027-.21296,2.00781-.21765l-.00007-.00004h.00004c1.59621.68873,3.19054,1.3818,4.79052,2.06164.24841.10556.51841.18711.78548.21723,1.0002.11272,2.0033.19949,3.00534.29599.00004,0,.00007.00004.00007.00004.79218.37514,1.64957.21427,2.47681.30128l.00004-.00004-.00004.00011c.31155.23631.68277.21568,1.04055.2264.58708.01764,1.17479.01301,1.7623.01774.76026.21099,1.54161.24855,2.32317.27137.4545.01326.60175-.09777.67966-.49866.19272-.99139.38484-1.98309.56006-2.97765.77278-4.38618,1.52129-8.7768,2.32793-13.15674.12221-.66358.0855-1.37926.45481-1.99148-.00533-.22464.05287-.46656-.18242-.62563Z" fill="#264898"/>
  <path d="M162.84892,104.87822c-.01555-.47968.02243-.96398-.14299-1.42888-.32276-.70143-1.03357-.71046-1.62971-.87425-1.89982-.52215-3.83448-.90374-5.75119-1.36635-.26326-.05562-.52807-.09601-.7865-.17074-.18023-.04938-.36124-.08916-.5462-.11533-.22947-.03746-.45333-.09378-.67413-.1638-.16207-.05093-.32671-.08969-.49495-.11459-.21984-.03774-.43277-.10049-.64362-.16965-.1615-.05146-.32629-.09093-.49396-.11749-.22887-.04091-.44832-.11572-.66778-.18725-.17417-.05664-.35151-.10546-.53114-.14239-.25561-.05855-.50045-.156-.7532-.22355-2.4427-.63515-4.90131-1.21028-7.3511-1.8225l-5.04687-1.35781-3.14335-4.82209c-.0224-.03707-.04486-.07414-.0673-.11121-.05354-.07502-.10221-.15318-.15449-.22901l-.97735-1.49935c-.16097-.20863-.37867-.32763-.6281-.39651-.23885-.06225-.47584-.12867-.71056-.20217-.17674-.05576-.35606-.1026-.53823-.13738-.24601-.05336-.4837-.13653-.72537-.20432-1.37538-.34858-2.76476-.64446-4.12624-1.05752l-19.44214-32.47935.54423-1.46902c.27031-.67187.55445-1.33859.8089-2.01695.43238-1.43206,1.13307-2.76366,1.56122-4.19798.05248-.17766.10874-.35306.1639-.52913.04014-.11332.07297-.22827.09304-.34713l.00395-.34047.00123-.10779c.02053-.06469.04105-.12937.06155-.19406-.01559-.36032-.03121-.72072-.04684-1.08108-1.23091-1.47516-2.90009-2.20424-4.68125-2.73372-.44353-.13184-.66644.01827-.8218.48151-.02906.08659-.04349.17861-.05918.26908-.22559,1.30219-1.2059,1.74265-2.31721,2.04531-.29028.07908-.61561.06465-.78703-.11347-.4412-.45841-.97269-.62831-1.56841-.73017-.27176-.04645-.31313-.29959-.2513-.54687.10768-.43044.41394-.70915.76216-.9412.41997-.27984.86028-.52924,1.27937-.81034.26358-.17681.24213-.39133-.03397-.64203-.45481-.41298-.51393-.59509-.34893-1.02824.1172-.30781.30618-.5583.55273-.77564.20203-.17808.38484-.37796.57615-.56821l-.00014-.00018c.08483-.01838.20778-.00688.24887-.05947.38805-.49668.34879-1.1774-.0753-1.55794-.19483-.17484-.5795-.13392-.84798.12147-.25211.23977-.17914.47122.07583.6681.08179.19734.2926.40695-.05361.56355h-.00004c-.09153.00649-.16136-.02935-.20954-.10747-.0157-.1354-.09086-.20915-.22739-.21924-.19822-.18397-.39909-.36526-.59364-.55304-.10528-.10161-.20813-.12821-.35345-.07735-.43658.15279-.85401.32008-.99576.82519-.11304.21473-.22608.42949-.33913.64422-.0735.15724-.14704.31444-.22055.47164-.20383.21265-.40766.42529-.61145.63794-.22122.19261-.28082.43499-.25867.7222.01693.21903-.01386.44173-.02345.66284l.00004-.00004v.00004l-.00039.00035c-.19826-.1141-.39013-.24178-.59639-.33895-.27292-.12853-.5431-.06497-.78862.08461-.06698.04077-.1329.13787-.13674.21233-.00381.07467.05478.20277.11339.22143.21596.06878.44233.10712.66651.14729.48709.08722.49037.08634.4321.77232-.22118-.05195-.44187-.14507-.66365-.14768-.53791-.00624-.83764-.3405-1.07889-.74163-.35588-.59177-.68887-1.21553-.70915-1.91548-.0212-.73123-.00758-1.47847.12281-2.19468.12098-.66439-.3399-1.43668.36346-2.00873.10437-.08486.06455-.34967.08737-.53174.17473-1.39428-.00131-2.74906-.4758-4.06624-.07626-.21166-.19106-.41344-.31426-.60274-.07491-.11502-.22111-.18207-.34858-.08377-.2166.16697-.43266.34153-.61681.54232-.5261.57371-.50818.88639.05566,1.52295.0886.10006.18083.19692.27141.29529-.12973.20524-.34678.21949-.55481.25367l.00004.00004c-.44847.01513-.8981.01552-1.34497.05065-.28594.02247-.52878.17032-.57495.47552-.1093.72224-.63184.92434-1.24001,1.02803-.30982.05287-.62235.08976-.93368.13389-.25839.0534-.3393.23748-.36932.47509-.0371.2937.0867.63036-.21448.85866h-.00004c-.0789-.16408-.14683-.33458-.23857-.49114-.38152-.65092-.35676-.91584.20771-1.36585.28396-.22637.61427-.39404.91831-.59621.10944-.07276.2403-.16214.15801-.32294-.10317-.20161-.28816-.21356-.45224-.10511-.82054.54225-1.71027.56482-2.63567.38935-.26855-.0509-.54292-.07823-.81595-.09682-.8127-.05527-1.53438.15865-2.13796.72985-.56341.53319-1.13688,1.05572-1.70593,1.58298l-.27479-.29119-.00007.00004.00004-.00004c.16898-.27374.34632-.54299.49929-.82537.02786-.05139-.02152-.18051-.07534-.23067-.05968-.05555-.16831-.09184-.25046-.08377-.25673.02525-.35186.25705-.50987.41771-.25748.26174-.59664.17413-.78847-.13523-.14299-.2306-.04652-.43295-.00822-.65388.04031-.23247-.10045-.33595-.31814-.33094-.26171.00607-.60313-.10863-.70457.24848-.1432.50398-.30019.85358-.91982.51513-.18432-.1007-.30054.1578-.41383.28654-.27194.30897-.54024.31176-.82156.02377-.16507-.16895-.3563-.36096-.59269-.21737-.35232.21399-.86124-.00762-1.12122.4303-.24929.41983-.42286.80138.09333,1.18989.25257.19014-.01746.41062-.14218.58027-.11819.1608-.29994.22143-.47647.08916-.14623-.10955-.25839-.26414-.40297-.37648-.15237-.1184-.32773-.16521-.49682-.01622-.1383.12186-.26411.25998-.41182.36861-.29148.21434-.51932.15318-.64753-.1694-.085-.21388-.16397-.4321-.22146-.65462-.16172-.62559-.00836-.84007.70016-1.01957.17575-.04451.39651-.05104.51312-.16242.31768-.30347.66831-.46571,1.10637-.49947.28537-.02201.50962-.20778.681-.43637.37905-.50553.83073-.53304,1.32572-.19642.55936.38036,1.04849.24115,1.49604-.18662.30103-.2877.59512-.56295,1.00338-.71359,1.06418-.3927,2.09066-.35362,3.05144.2574.35726.22721.66312.24799,1.02877.07629.84579-.39718,1.74776-.5674,2.67242-.6651.54923-.05806,1.09459-.17036,1.63483-.28929.38209-.08412.66527-.30174.74178-.72537.08373-.46363-.01259-.85856-.284-.99142-.36509-.17879-.59135.07954-.85041.27553-.53036.4012-.53766.39154-.97375-.08028-.61152-.66164-1.20424-.78914-1.89728-.35835-.57135.35517-1.11533.7544-1.68851,1.1458-.05015-.15695-.09664-.23786-.09625-.31853.00039-.08871.05453-.17579.06694-.26608.07171-.52137-.2489-.78001-.72167-.55371-.37267.1784-.72739.39955-1.07321.62736-.35119.23134-.66101.31133-.95827-.07827-.07904-.10362-.19783-.20485-.35722-.13681-.301.12846-.52659.05372-.70555-.22347-.03982-.06165-.22824-.10793-.23183-.10094-.34692.66947-.89291.04797-1.30723.20912-.16242.06317-.33761.16697-.43693.30333-.18887.25927-.31761.56144-.48941.8344-.17685.28097-.46021.34456-.70439.15643-.18126-.13964-.35747-.2949-.50183-.47114-.19639-.23973-.44413-.33119-.73151-.30223-.64535.06504-1.27038.22654-1.86123.49382-.26404.11943-.4661.34417-.42296.65042.16641,1.18089-.48236,2.0166-1.17112,2.83516-.20796.24714-.45675.4527-.78251.54867-.18662.05495-.35958.07379-.52666-.03799-.61106-.40896-.72008-1.10848-.24414-1.63313.18256-.20129.53682-.32692.52264-.61029-.03661-.73179-.07456-1.4857-.64238-2.05941-.60055-.6068-1.49085-.3872-1.74082.43989-.05107.16898.00462.36731-.02067.54765-.05146.3672-.25384.53054-.65709.56281-.28216.02257-.42258-.14334-.4272-.56094-.00413-.36872.03248-.73772.03658-1.10679.00409-.36798.02846-.74171-.02363-1.10316-.11897-.82583-.42783-1.0785-1.27542-1.10619-.22891-.00748-.45862.00928-.68795.01492-.07132.02328-.13558.05485-.20143.08461l.66778.87196s-5.53794,2.98566-5.29718,5.10454c.24079,2.11888-.19261,4.28591-1.01128,4.96007-.81863.6742-1.3965,1.58915-.57787,2.31149.81867.72234,5.10457,3.22648,5.10457,3.8525s-.43341,4.33405-2.11888,6.40475c-1.68548,2.07074-2.79304,1.25207-.28894,3.65989,2.50411,2.40778-1.09385,4.26136-1.09385,4.26136-.04077.05474-.08758.10419-.13625.15198-.15826.27024-.37796,1.00944-.21459,3.00269.24079,2.93751-3.13016,3.08198-1.82994,5.15272,1.30022,2.0707,4.14144,1.97438,3.27463,3.65985s-1.78176,4.76746-.77049,6.35661-3.99697,5.82688-3.65989,10.78698c.33712,4.96007,4.81563,7.36789,4.47852,10.3054-.33708,2.93751-1.83386,6.51398.60196,7.87352,2.25922,1.26096,2.69168,1.97946,3.11185,1.88073.04176-.01612.08356-.03259.12532-.0503.08807-.0844.17614-.16884.26421-.25324.07954-.02384.15106-.06313.22125-.10504.73321-.60782,1.46648-1.36363,2.85067-.53311,1.68548,1.01128,1.92623.96313,1.05942,2.88937-.58972,1.31051-.51065,2.24092-.3999,2.70257,10.52224,5.06599,15.64279,6.1526,15.64279,6.1526l-.00219.00554c16.08505,5.67976,41.23439,11.32874,41.23439,11.32874l-.0025.00384.01792.00494c-.00123-.00758-.00339-.02081-.00339-.02081,0,0,9.74191,2.17824,32.1751,3.78351.01929-.00011.03855-.00004.05784-.00018.01023.00303.0207.0037.03093.0066.79278.05657,3.19432.16454,3.19432.16454l.55371-21.40583c.0207-.10352.03763-.20721.06451-.31049.15064-.99139.06045-1.99018.09068-2.98537.05202-1.13331-.15836-2.28113.18401-3.39836.15198-.9795.06243-1.96644.09012-2.94982ZM109.73155,47.09303c.01492.1293-.02963.22824-.14768.28925.04934-.09661.09851-.19293.14768-.28925Z" fill="#264898"/>
</svg>