<?xml version="1.0" encoding="UTF-8"?>
<svg id="Layer_1" xmlns="http://www.w3.org/2000/svg" version="1.1" viewBox="0 0 200 100">
  <!-- Generator: Adobe Illustrator 29.6.0, SVG Export Plug-In . SVG Version: 2.1.1 Build 207)  -->
  <path d="M75.97786,57.85682c3.18885-2.59502,6.28259-5.64243,10.93703-3.88684,2.69904,1.01813,2.90077-1.53371,4.16464-2.55925,3.4073-2.76482,3.95714-3.06126,7.26605.45829,2.2254,2.3671,4.24467,2.53211,6.92534,1.7497,10.33539-3.01589,18.68686-9.15389,26.17904-16.6262,3.69977-3.69004,7.2951-7.48491,10.97184-11.19893,1.09721-1.10872,2.69438-1.99858,4.00456-1.22384,1.90059,1.12407,1.49356,3.3237.76747,4.97596-1.6476,3.75034-3.5819,7.37528-5.41562,11.04338-2.51101,5.02366-1.30498,15.53392,2.37478,20.578,2.01489,2.76194,1.84248,4.74161-.58794,6.56436-.59589.44692-1.17752.95358-1.8455,1.25687-3.6962,1.67912-7.20547,4.45175-11.39944,4.05116-4.39049-.41937-4.73531-5.34038-7.2337-7.94581-.74445-.77638-1.73586-1.31567-2.5809-1.9391-.40539.34714-.88451.55902-.90123.80283-.14664,2.1248.46268,4.62923-.4624,6.29314-1.26852,2.28172-4.1534,2.88337-6.75814,3.4894-7.30442,1.69954-14.50277,3.21886-21.99604.47405-2.29228-.83942-5.17743-.45692-7.72461-.12458-6.37386.83189-12.71949,2.13645-16.70706-5.04435-.37688-.67894-2.03572-1.04308-3.01288-.91178-2.20511.29603-4.33266,1.14586-6.5353,1.48972-2.65134.41416-4.45271-1.28442-4.18053-3.8005.27958-2.58638.52846-5.19867,1.11695-7.72365.86368-3.7084,1.28798-7.29661-.50434-10.87015-1.31896-2.62942.13239-5.12548.67538-7.61621.49995-2.29036,3.51968-2.88309,5.32736-1.20877,3.72115,3.4465,5.45728,8.15632,6.69976,12.71099,1.08077,3.9618,3.48707,6.32411,6.17404,8.80976,2.29392,1.11092,5.27583,3.63988,4.26139-2.06765Z" fill="#264898"/>
</svg>