<?xml version="1.0" encoding="UTF-8"?>
<svg id="Layer_1" xmlns="http://www.w3.org/2000/svg" version="1.1" viewBox="0 0 200 100">
  <!-- Generator: Adobe Illustrator 29.6.0, SVG Export Plug-In . SVG Version: 2.1.1 Build 207)  -->
  <path d="M129.67505,79.78108c-.35303-.32304-.69268-.6601-1.06007-.96357-.48285-.39895-.77339-.33563-1.18757.22054-.03507.04712-.05229.1084-.0737.16466-.18136.47676-.48008.66255-.98309.43402-.21763-.0988-.47708-.11122-.68608-.22206-.45248-.23997-.80916-.12778-1.12707.22769-.28081.31395-.59891.60426-.82693.95314-.2767.42341-.65862.47639-1.0956.47177-.49854-.0054-.95485-.12072-1.34194-.4541-.18833-.16226-.41252-.28058-.65973-.20905-.63467.1839-1.26723.37878-1.88773.60463-.13641.0497-.28196.23272-.3133.37809-.05907.2738.15843.46536.37624.54778.2749.10397.581.1546.87658.16886.66324.03221,1.32989.06198,1.9923.03124,1.58057-.07338,3.11979.15266,4.65052.5205.52286.12561,1.06805.17647,1.60641.21482.61838.04412,1.18328-.03456,1.58117-.64072.24195-.36854.36512-.00964.43107.18971.07799.23568.14943.48515.40993.54321.37417.08334.53052-.2223.65756-.48571.23559-.48829.46411-.98369.6422-1.49469.11989-.34403.07647-.70288-.08773-1.05384-.55045-1.17645-.9716-1.22385-1.89345-.14694Z" fill="#264898"/>
  <path d="M111.48146,79.46815c-.3367-.30882-.77155-.26692-1.20465-.26152-.19562.05953-.51723-.00964-.50878.33254.0036.14426.13351.32539.25884.41907.37924.28344.77316.55258,1.1866.78166.11731.06498.40338.03258.46789-.05796.12852-.18025.23955-.4463.20388-.64986-.03632-.20679-.2336-.40776-.4038-.56393Z" fill="#264898"/>
  <path d="M116.72374,81.07719c-.43135-.04384-.89232.51077-.75134.92836.04112.12183.2594.26434.39221.26023.46693-.01431.83085-.37191.81567-.73445-.05948-.24495-.20037-.42816-.45654-.45414Z" fill="#264898"/>
  <path d="M180.50384,82.61083c-.33024.17522-.51797.46646-.45733.85757.01583.10203.11315.19142.17319.28658.05833.00341.12478.027.17347.00715.34477-.14052.62512-.617.53375-.98332-.04343-.17416-.26692-.25086-.42309-.16798Z" fill="#264898"/>
  <path d="M72.43948,58.6492c-.21657-.07845-.44528-.12349-.68484-.18764-.28455.08916-.58543.1318-.83057.272-.38275.21897-.44238.81257-.13831,1.26686.28358.42369.59346.2054.89389-.00941.28612-.20462.5895-.38589.86883-.59905.22931-.17499.1575-.64621-.109-.74275Z" fill="#264898"/>
  <path d="M91.75917,66.87901c-.17582-.00531-.35229-.00554-.52803.00226-.56711.02506-1.10852.32285-.96694.52184.2474.34768.62941.18745.74788.20111.38709,0,.56365.00978.73878-.00198.4062-.02718.70865-.25968.59859-.44741-.13503-.23037-.35576-.26877-.59028-.27583Z" fill="#264898"/>
  <polygon points="171.99561 67.5896 172.00258 67.59426 172.00946 67.59749 171.99561 67.5896" fill="#264898"/>
  <path d="M191.24816,63.19141c-.80293.8063-1.77545.95614-2.89334,1.00183-1.90938.07799-3.76494-.32336-5.65198-.38547-.84266.49646-1.89138.35908-2.72301.88775l.00909-.00748c-.84525.56933-1.54642,1.30613-2.20892,2.05968-1.36487,1.55251-2.98139,1.76299-4.82252,1.08074-.31662-.08602-.68641.04356-.9549-.2342-.714-.29438-1.38176-.66975-2.05996-1.04165-2.64128-1.4484-5.05912-3.56854-8.4144-3.07549-.3876.37228-.89375.29692-1.36243.36023-.53901.31694-1.13049.32396-1.73457.32248-2.91462-.00715-5.73915-.83279-8.6438-.93459-.97363-.0341-1.81408-.39613-2.56948-.94114l-5.71668-7.24796-9.70313-29.99156-1.57194-2.447-.4307.14075c-.5134-.26401-1.1136-.38829-1.72437-.49554-1.42556-.97668-2.99741-1.334-4.70738-1.12117-.23374.02907-.47196.02238-.7081.03221-1.00081.47509-1.25809,1.45906-1.54596,2.26195-.01864-1.11124,1.54591-1.93868.82568-3.36022-.79412-.71603-1.53516-1.47512-2.16079-2.35207-.42558-.59656-1.05559-.95346-1.73332-1.24023-.7087-.29978-1.47928-.46273-2.07348-1.03284-.23559-.22603-.6379-.22876-1.00169-.27444-1.04041-.13051-2.1667-.06941-2.95809-.99551-.23877-.27938-.55525-.13092-.82333.00729-.75097.38714-1.37286.94424-1.97264,1.52833-.70745.61252-1.34203,1.27858-1.93443,1.96438.55276-.75969,1.07645-1.54079,1.54531-2.36006.03373-.37463.16946-.69024.4631-.94723.363-.31768.71677-.64921,1.04535-1.00192.34062-.36568.3169-.75438-.07144-1.10257-.21828-.19567-.4822-.34833-.74335-.48695-1.26423-.67108-2.63561-1.11494-3.75663-2.09088-.61289-.53356-1.41933-.93639-2.32997-.84972-.13452-.13448-.26904-.269-.40343-.40333-.00014.00009-.00023.00018-.00023.00018,0,0,0-.00018.00005-.00032-.63038-1.07326-1.05167-2.16642-.46-3.41459.13674-.28856-.0251-.59789-.20942-.84082-.29018-.38238-.5966-.75387-.91645-1.11189-.57953-.6487-1.0315-1.36455-.95268-2.26499.08016-.91613-.30338-1.63124-.826-2.31354-.59093-.77146-1.23898-1.46502-2.16476-1.85981-.83542-.35626-1.30373-.98521-1.43977-1.9235-.07684-.5301-.24606-1.0471-.23923-1.59594.00443-.36079.01763-.73398-.06304-1.08069-.1779-.76426-.36582-1.52478-.33273-2.31469.04075-.97326-.90704-1.36654-1.23091-2.14547-.37823-.90976-1.05896-1.16473-2.01487-.92831-.58151.1438-1.14586.35968-1.71362.55567-.2977.10282-.59526.18048-.81036-.118-.31598-.43854-.67773-.44196-1.08536-.16355-.35248.24075-.72831.52789-1.15389.4475-1.30747-.24717-2.55093.77141-3.87316.16678-.12257-.05602-.35119.04458-.49803.12898-1.04161.59863-2.24524.79855-3.30295,1.38283-.49401.27292-1.15887.31879-1.74633.31893-.69107.00009-1.2891.13987-1.81509.58262-.3834.399-.58082.84797-.6883,1.35643.11735-.60445.2666-1.16233.32368-1.73055-.05293-.31044-.14398-.61848-.52009-.63029-1.02693-.03226-1.84103-.49438-2.57884-1.16801-.69656-.63587-1.62732-.93768-2.48096-1.00653-1.44526-.11657-2.82292-.40472-4.2315-.7152-1.38089-.30439-2.82564-.59669-4.28748-.42447-.41667.0491-.8309-.03189-1.231-.2216-.61949-.29369-1.0279.06156-1.36903.53675-.41372.22262-.6925.59019-.86288.78387.22594-.21251.36217-.67976.49568-1.14835.05547-.42129.06142-.81161-.26027-1.17045-.5158-.57533-.94728-1.2304-1.49072-1.77568-.53582-.53762-.97086-1.19906-1.78242-1.43723-1.89701-.55682-3.63144-1.4526-5.21279-2.64368-.30264-.22802-.66259-.2462-1.02712-.19728l-.00005.00005-.00009-.00014-.00037.00051c-1.14175.81244-1.74467,1.99618-2.35706,3.17346L14.11408,25.2664v31.42303c.49545.11048.98618.04855,1.47614-.03946v-.00069l.00009.00014c.24615.02095.49042.02469.60422-.25451.13184-.32354.00097-.83182.39337-.9459.30979-.09003.69554.08293,1.04793.13646.05939.00905.12082.00845.18118.00701.24542-.00586.50781-.0263.58045-.30605.0413-.15898.0378-.38981-.05086-.51174-.35419-.48714-.74543-.94774-1.13095-1.41158-.50449-.60694-.37661-1.22523-.03013-1.83757.10531-.18607.39318-.19641.43356-.04061.1486.57371.56877.88101.98558,1.22583.17232.1426.30665.39544.34957.61903.19973,1.04068.83976,1.70042,1.73973,2.18031.63191.33697.50791.85337.24795,1.38153.66389.43748,1.44439.55493,2.16324.83136.22146.08514.51317.12695.63915.2911.23305.30379-.10263.52872-.22783.78613-.07144.14694-.07984.34431-.05944.51201.04241.34906.22733.75549-.28967.87898-.34256.08182-.52941-.23194-.71751-.45862-.26877-.32396-.478-.70782-.78447-.98734-.35331-.32216-.77603-.63191-1.29957-.52286-.55156.11477-1.08794.30278-1.66797.46942.83126,1.15038.85286,1.0662,1.75219,1.26833,1.04285.23425,2.05082.63195,3.06211.992.23259.08284.34491.36212.29812.60902-.04596.24223-.23203.41662-.48483.48686-.35843.09963-.72923.12091-1.06708-.02949-.49868-.22183-.78175-.04532-1.01226.4025-.19821.38511-.55585.61266-.91733.84903-.39858.26069-.76093.59079-1.09394.93445-.47302.48815-.44777.92435-.01587,1.42759.34477.40163.77026.54247,1.28642.52913.54159-.01408,1.11807-.09797,1.61837.05201.7105.21307,1.40885.31625,2.13813.28123.5726-.02746,1.03016.21311,1.50743.51247.87898.55128,2.26448.30818,2.96317-.44971.34911-.37874.44385-.87381.41985-1.34522-.0245-.48082-.45867-.6643-.87464-.80524-.20702-.07015-.50158-.06387-.4498-.4175.71797-.65927.81534-.69956,1.1675-.7128.47454-.01781.78115.25926,1.09865.54778.31819.28907.61465.55521.57768,1.06002-.01726.23651.19899.46023.47883.42618.28432-.0347.34477-.28713.35894-.53772.03466-.61441.3139-1.04862.94571-1.14479.21976-.03341.5182.00748.67861.13895.19987.16383.05847.40435-.05769.63435-.28967.57376-.19207.91668.30951,1.13423.32613.14144.69116.19064,1.03312.29904.4019.12741.80838.25063,1.19108.42373.16346.07393.20573.30158.0851.46213-.15335.20421-.32105.43578.04259.51594.59494.13125.93316.50431,1.21102.9992.14638.26083.33582.50135.52983.73075.35815.42364.53476.4522,1.00427.01583.52406-.48705,1.19985-.92568,1.77573-.54764,1.03178.67727,2.30237.73869,3.28463,1.47692.90676.68151,1.87763.66638,2.92076.28266.75387-.27735,1.43567-.62291,2.00167-1.1932.25552-.25741.50707-.52249.78733-.75111.83999-.68521,1.14682-.76121,2.05082-.0299,1.16076.93897,2.44409.90709,3.77851.76006.35668-.03927.69965-.20416,1.05628-.24209.59997-.06387,1.21332-.11943,1.72861.32064.39401.33656.88147.51266,1.3496.32539.77058-.30822,1.66479-.17901,2.35203-.81899.92541-.86195,1.14812-1.99276,1.16505-3.10867.01301-.85867.36023-1.37872.95171-1.82132.43148-.32285.92231-.57108,1.40225-.8231.34953-.18358.5732-.01947.60131.35705.03701.49674-.09705.95166-.25114,1.41148-.02769.08251.03475.25183.10854.3001.15621.10222.3582.08819.47856-.06447.14384-.18252.34186-.39646.34685-.60103.01827-.7464.23157-1.42491.55908-2.08091.25418-.50911.21888-1.0543.20365-1.60032-.00835-.29959.00286-.60509.05372-.89961.05039-.29133.49157-.46028.91682-.39046.33319.05478.65087.27647.59439.5679-.12548.647.03452,1.33852-.32045,1.94952-.3013.51852-.971.9201-.57265,1.67965.62328-.19378.76089-.8775,1.23418-1.22611.14329-.10559.23609-.2773.37241-.39512.77187-.66698.76167-1.46414.35516-2.29706-.21057-.43139-.52217-.81276-.74635-1.23861-.11399-.21643-.08874-.4858.11957-.66195.32428-.27421.72499-.62844,1.12647-.3912.99334.58714,2.13116.3756,3.15694.69111,1.10497.34002,2.30237.06807,3.37291.57376.09756.04615.25511.04015.35534-.00586,1.0009-.45954,2.12821-.28376,3.16086-.71419,1.50156-.62591,2.92385.00891,4.28226.65558.32474.1546.53721.49083.62078.86011.09793.43268.3319.77155.65406,1.06159.72319.65106,1.32016,1.40368,1.87716,2.20182.3426.49088.76477.95065,1.2298,1.32745,1.7539,1.42127,4.17303,1.55399,5.89693.37177.84082-.57667,1.62372-.69647,2.53076-.66661.75383.02487.86011.1174.67921.82263-.18556.7236-.08708,1.44411-.09336,2.1636-.00595.67879.3995,1.19948,1.02989,1.33119.99491.20799,1.71643.87017,2.5542,1.33409.75424.41759.78226.46406.55378,1.28605-.19941.71737-.19128,1.43687-.18205,2.15677.00761.59443.70223,1.06076,1.29861.91027.29046-.07333.56434-.21431.84336-.33042.30107-.12534.58936-.14998.8189.12723.18039.21777.11551.45927-.01684.66578-.39461.61575-.41395,1.21877-.08436,1.88219.12428.25008.03941.59688.08911.89296.06627.39466.40541.63957.7931.54427.52618-.12926,1.03981-.31002,1.558-.47126,1.19819-.37278,1.25836-.37283,1.87379.68474.22188.38118.41441.78392.87211.83708.95166.11052,1.91962.27177,2.86515.20107,1.63018-.12178,3.25011-.209,4.87877-.0341.23448.02515.48972.04144.71073-.02284,1.21286-.35303,2.38904-.84063,3.66092-.97179,1.14516-.81257,2.41645-.61852,3.66558-.40763.49383.08339.94502.13835,1.41176-.06484,1.01226-.44071,1.98852-.41985,2.90013.26254.21159.15838.44953.22972.66019.06484.74271-.58114,1.61615-.39627,2.44631-.4379.81793-.04098,1.57319-.21293,2.06157-.92776.26881-.39341.66292-.49609,1.06145-.62886.248-.08256.51653-.07901.64755.15146.56817.99947,1.74043,1.2783,2.45443,2.09729.73985.84857,1.68011,1.3538,2.75767,1.64282.15607.0419.28358.21962.40624.35133.51543.55336,1.16547.84326,1.89447.97354.23799.0425.51977.03613.6146.2935.2372.6439.90649.76633,1.34434,1.16478.26309.23942.67076.38266.82222.66998.39997.75867,1.09094,1.09777,1.78353,1.46954.63624.3415,1.2484.72568,1.75113,1.25163.17933.18755.20245.466.05538.66642-.08104.11043-.32705.18155-.47186.14947-.6439-.14283-1.27632-.33693-1.91704-.4954-.18925-.04684-.41889.28326-.40209.49978.02049.26346.14652.45848.3433.60708.28852.21777.61358.3917.88226.63024.69831.61972.67025,1.15112.01541,1.84814-.61192.65129-1.37706.79942-2.16231.60643-1.20917-.29719-2.52914-.28404-3.53374-1.23668-.34126-.32373-.76583-.11122-.97755.38714-.09257.21782-.12621.46143-.22506.67561-.08519.18445-.5182.21205-.63564.04961-.10199-.14112-.20176-.29526-.25381-.45913-.23397-.73638-.66006-1.07885-1.4826-.91604-.33619.06645-.51621-.25414-.46974-.60666.04112-.31182.09036-.63195-.33531-.6829-1.35255-.16184-2.3296-.88433-3.0886-1.97694-.12488-.1797-.36402-.30425-.57607-.39189-.18911-.07817-1.7869.2737-2.1553.41815.05127.10406.07522.24883.15875.30532.44833.30324.90136.60214,1.37143.86984,1.3316.75826,2.48184,1.69068,3.28731,3.03391.55253.92158.53015,1.84205.16226,2.77257-.17361.43901-.47085.84391-.7745,1.21291-.42724.51921-.57943,1.04761-.27513,1.66945.16927.34588.18981.69084.01311,1.04271-.39406.78461-.15155,1.50073.16535,2.25502.70103,1.66876,1.34914,3.36027,1.99216,5.05261.36586.96288.34048,1.87633-.41358,2.69915-.40578.44279-.78327.93201-1.07396,1.45551-.66116,1.19085-1.53913,2.12899-2.82569,2.59809.20647,1.04068.45248,1.96937.60509,2.92523.16793,1.05125.14227,2.31926,1.48518,2.8429.27786.10831.24971.54893.06451.81465-.45991.65982-.99486,1.22306-1.89908,1.19976-.36231-.00941-.7254.01652-1.08826.02174-1.93531.02787-2.04893.15718-1.79867,2.08566.02298.17712.06548.35779.13549.52106.06991.16304.15261.39267.28695.44441.88673.3415,1.80753.92748,2.74055.28086.68627-.47565,1.29353-.50911,2.03042-.21256.38709.15575.66361-.07781.62429-.5888-.03664-.47625.07628-.8236.40103-1.13446.39323-.37638.77053-.7716,1.1848-1.12329.77995-.66218,1.32874-1.62113,2.29808-2.02216,1.15144-.47634.80713-1.80231,1.55454-2.48133.13254-.1204.22659-.28243.34385-.4205.50754-.59752,1.0106-1.19902,1.52792-1.78791.41409-.47136.96057-.87506,1.56285-.78932.89656.12769,1.63752.00734,2.3481-.56951.39346-.31939.93602-.21703,1.41033-.17587,1.70762.14823,3.35076-.31298,5.02317-.49245.04583-.00489.09534-.06008.12566-.10388.03346-.04846.07047-.11482.06193-.16599-.00854-.05067-.07513-.13388-.11099-.13125-.40929.03055-.81682.0899-1.22638.1114-.4606.02423-.62064-.23009-.49415-.69167.28196-1.0291.65133-1.96226,1.94939-1.99309,1.63364-.7668,3.25514-1.54259,4.95971-2.16937,1.05176-.38667,2.02922-.97432,3.16479-1.1903.42899-.08159,1.09191-.06715,1.13649-.67851.0377-.51755-.632-.46573-.92333-.747-.26064-.25155-.5475-.48917-.75189-.78235-.23895-.3427-.39461.25743-.59831-.11097-.24763-.44791-.62687-.53915-1.04299-.23729-.38824.28164-.7164-.26371-1.14383-.14271-1.44679.40947-2.9268.69988-4.44166.73629-.05935.00143-.1192-.01911-.17882-.02921-.29673-.05067-.53218-.39475-.42922-.67067.18898-.50675.514-.99043.58036-1.50955.13194-1.03312.64884-1.80107,1.37641-2.47317.49434-.45668.9153-.96205,1.16865-1.59437.28626-.71465.8338-1.1585,1.50567-1.49681.64649-.32553,1.26667-.70288,1.90402-1.04691,1.64836-.88964,3.26604-1.84629,4.96248-2.63279,1.04507-.48446,2.11866-.86786,2.96432-1.6904.23254-.22626.55451-.26018.85-.14855.69739.26364,1.42487.47463,2.1013.08007.76606-.44667,1.39658.17938,2.09346.12529.23249-.018.45543-.14961.68456-.22349.50684-.16341.96163-.26531.35677-.9392-.27772-.30942.32174-.54902.46789-.8506.04435-.09142.07942-.25658.03235-.30647-.06751-.07158-.22511-.11385-.32525-.08971-.62369.15063-1.20497.95577-1.8965.08967-.05487-.06871-.33494.04033-.50984.06987-.93653.15778-1.64338.72535-2.34331,1.30853-.1689.1408-.34634.0797-.4786-.06248-.13401-.14412-.1582-.34196-.01878-.48105,1.33566-1.33202,2.88148-2.14695,4.83419-1.85229.36448.05505.5918-.04753.72863-.34869.41884-.92167,1.02218-1.62561,2.04777-1.89728.1593-.04223.2989-.20471.42013-.33683.57667-.62844,1.27465-1.10469,1.94362-1.6233.71128-.55138,1.37932-1.14443,1.44937-2.18534.03041-.4522.34085-.8973.56711-1.3227.85115-1.60028,1.73554-3.18297,2.57732-4.78795.69937-1.33345,1.64938-2.37169,3.11176-2.86505.17153-.05782.3438-.11348.5157-.17015,1.40308-.9638,1.91247-2.55942,2.71263-3.93264.80168-1.3759.49314-1.83826-1.22242-2.2182ZM75.34658-6.87216c-.04218-.61483.01952-1.15735.11025-1.66544-.08297.49651-.09585,1.04636-.11025,1.66544ZM103.47639,22.69674c.11745-.76015,1.05287-1.58994,1.84537-2.54336.01509-.01818.02967-.03678.04476-.05496-.65826.90616-1.27419,1.79322-1.89013,2.59832Z" fill="#264898"/>
</svg>