<?xml version="1.0" encoding="UTF-8"?>
<svg id="Layer_1" xmlns="http://www.w3.org/2000/svg" version="1.1" viewBox="0 0 200 100">
  <!-- Generator: Adobe Illustrator 29.6.0, SVG Export Plug-In . SVG Version: 2.1.1 Build 207)  -->
  <path d="M196.74451,94.27642c-.05544-1.15886-.51768-2.15175-1.06679-3.1406-1.01885-1.835-1.85691-3.76185-1.6624-5.91081.15067-1.66531-.51678-2.76221-1.89564-3.54408-.52771-.2993-1.03191-.9587-1.68136-.46865-.52843.3987-.13043,1.02368-.05378,1.55752.16209,1.12945.12786,2.23094-.59141,3.20381-.40066.54191-1.05075.61641-1.38871.07787-.77066-1.22827-2.007-2.34001-1.18043-4.04734.06311-.13047.03544-.31785.01452-.47409-.22178-1.66501-.322-3.33464-.26975-5.01579.00546-.17387-.25604-.35611-.39376-.53444-.16153.15114-.37688.27331-.47627.45784-.84051,1.56086-1.36579,3.23128-1.65246,4.97688-.29198,1.77838-.7541,3.55363-.01807,5.33281-.36121.11745-.58977.17553-.80551.26471-.87834.36318-1.54204-.00238-2.14826-.60524-.53886-.53584-.42156-1.08276-.2055-1.75029.36396-1.12446-.06651-2.15054-1.09388-2.62418-1.28489-.59233-1.24055-1.55537-.98819-2.58157.32299-1.31334.67913-2.63914,1.60501-3.70289.7743-.88976,1.02917-1.96463,1.09941-3.10258.02188-.35528-.12604-.71142-.50298-.62111-.73493.17622-.73636-.22155-.74278-.73531-.00511-.4107-.37115-.61836-.63288-.40616-1.15674.93765-2.47489,1.79806-1.9554,3.68129.19674.71299.00022,1.4269-.71824,1.87152-.42625.26374-1.08426.11173-1.11719-.37536-.06261-.92942-.54186-1.25615-1.372-1.28644-.15981-.00588-.32055-.02066-.47933-.00986-1.45718.0987-2.16504-.89397-2.38632-2.16838-.112-.64462-.08259-1.27043.00854-1.90546.11356-.79115.26671-1.57975.32525-2.37513.14417-1.95774-.80202-2.8404-2.71475-2.61032-1.29199.15544-2.47613.63764-3.61816,1.212-1.01666.51127-2.06712.80467-3.20051.82656-.97777.01889-1.04886.08579-1.03699,1.0185.00511.3988.04785.79708.07335,1.19563.04404.68532-.2388,1.03557-.96421,1.01594-.34422-.00929-.64706.19719-.64314.5638.00787.73138-.4311.78462-1.01179.95839-.73867.22113.58791,1.15954-.33972,1.49859-.42289.32133-.37636.76784-.32871,1.21722.01198.11245.06271.15972.18341.13852.3152-.05549-.16227.23905-.16092.28667-.10259-1.02953-.18948-1.69332-.63649-2.23648-.41753-.34997-.30839-.85552-.4035-1.306-.06236-.29548-.17867-.60256-.35203-.84681-.37133-.52329-.85054-.23542-1.2705-.0668-.50044.2009-.45585.5474-.15284.91126.12504.57478-.11922.66963-.5977.45988-1.15672.49889-2.16325,1.36417-3.49628,1.4328-1.23657.39811-1.14895-.5172-1.24263-1.25272-.1977-.12974-.38768-.27353-.59451-.38671-.91557-.5015-1.05261-.73209-.55918-1.39047.58545-.78107.96575-1.64992,1.34121-2.53039.13957-.32739.07454-.62912-.21606-.83816-.28943-.20819-.62012-.16747-.8958.01501-.26237.17369-.5048.39313-.71299.63026-.57313.65291-1.19492,1.00136-2.10045.64052-.60686-.24178-1.05567.14838-1.46115.57019-.14133.14717-.34673.45686-.55869.12886-.45014-.697-.76881-.34801-.98211.12983-.3674.82335-.93093,1.50949-1.54905,2.11633-.78691.77272-1.16255,1.62775-1.29075,2.72441-.19438,1.66223-.56312,3.305-.88797,4.95001-.04072.20606-.22669.45073-.41245.54408-.2467.12397-.39385-.10328-.47048-.33706-1.30103-3.96993-2.2933-7.97983-1.51631-12.20567.17838-.96991.06251-1.91569-.18248-2.84638-.26339-1.00058-.52936-2.00764-.90188-2.97023-.32583-.84202-.42075-1.62077-.29135-2.54228.13975-.99568.01556-2.00775.4774-2.97892.24305-.51114.03643-1.10302-.30049-1.58634-.2716-.38952-.68574-.34587-1.08197-.3164-.38979.02887-.49886-.27414-.71451-.50276-.66061-.70019-1.21392-.66312-1.68466.07639-.21302.33455-.37992.70232-.53646,1.06838-.81553,1.90734-1.621,3.81763-2.69834,5.60017-.46788.77416-.64002,1.65826-.57863,2.53914.1268,1.82169.06398,3.68812.94217,5.37903.33367.6424.27142,1.17543-.21826,1.74388-.74489.86474-1.36759,1.79737-.42473,2.94031.08207.0995.07047.31867.03495.46598-.27653,1.14635.15784,2.20501.36449,3.29726.50383,2.66368,1.11659,5.31148,1.29979,8.02641.0448.66477.22198,1.25169.71451,1.71931.37916.34069.35884.61947-.12814.82573-.7893.6024-.49956,1.58331-.77456,2.36624-.42366,1.20639.11799,1.82966,1.50456,2.0141.44382.05904.74943.17873.94426.56388.31095.61499-.03139,1.16302-.83168,1.3884-.44925.12656-.979-.13739-1.36281.27535-.45414.48844-.19685,1.07583-.15775,1.60495.06454.8724.22621,1.73893.37255,2.6036.10649.62902.27234,1.24809.37813,1.87725.08914.52979-.19318.75929-.85539.50028-.56726-.22184-.94732-.06001-1.27001.30308-.54698.61557-.76839,1.38834-.81158,2.19822-.03848.72138.6457,1.20154,1.29739.93811,1.06518-.43046,1.88182-1.17642,2.63813-2.02044.20257-.2261.58146-.27332.88778-.0723.321.21074.33265.57213.19627.84145-.73991,1.46063-.97927,3.02154-1.06575,4.63216-.04265.79472-.12985,1.59969-.31686,2.37092-.23433.96616-.52148,1.86334.61417,2.49715.24035.13421.39872.50667.48995.80171.52574,1.7009,1.1596,1.50038,2.50319,1.01852.95-.34062,1.73771-.68575,2.24926-1.59197,1.05341-1.86656,2.88241-2.94475,4.46324-4.26931.56183-.4707,1.31619-.82869,1.98841-.726,1.34911.20625,2.28558-.48455,3.30025-1.11033.81977-.50558,1.71107-.84628,2.63835-1.11926,1.23157-.36244,2.41044-.8155,3.19342-1.96328.25357-.37171.7144-.61747,1.11078-.87389,2.09974-1.35872,4.38905-2.27618,6.81153-2.87178,1.14667-.28195,2.3217-.80791,3.32529.34194.04757.05465.15894.11807.20763.09788,1.10376-.45786,2.16923.18741,3.25839.10569.62779-.04709.94199-.44638.83939-1.14299-.09292-.63161-.24058-1.25532-.32968-1.8873-.16628-1.17958.0922-1.57192,1.25926-1.87916,1.40638-.37017,2.84852-.31952,4.28432-.29612.12332.00194.30187.13741.3497.25395.04775.11629.01624.35317-.07148.42289-.68491.54435-1.38131,1.07574-2.0943,1.5829-1.07147.76204-1.34862,1.39374-1.02829,2.63887.11799.45855.33114.89638.53219,1.32913.57634,1.24044.51846,1.63342-.35666,2.49632-.40807.40231-.87649.69692-1.41261.87593-.98687.32947-1.30344.946-1.20048,2.01117.1097,1.13387.34675,1.5481,1.39942,1.60848.88605.05086,1.53615-.40763,2.10906-.97115.91046-.89558,1.77289-1.84008,2.65304-2.7664.47368-.49855.70409-1.11589.51236-1.76321-.54357-1.83547-.12212-3.81393-.96091-5.49924.41098-.53184.91651-.56523,1.36203-.7154.8477-.28554,1.58904-.74879,2.25481-1.33379.69638-.61188.73377-1.19626.01304-1.78109-.88199-.71575-1.5871-1.5613-2.2431-2.55994.24617-.20564.45647-.45868.72595-.59168.76826-.37898,1.08175-.90543.71841-1.73895-.06254-.14354-.10576-.30795-.10737-.4633-.00382-.37708.17083-.57313.57981-.52144.84596.1069,1.57625.81308,2.53267.42578.28164-.11402.61073.15273.76933.45102.22391.42102.45506.84617.60819,1.29508.24034.70452.70069,1.01574,1.43245,1.01718.59501.00113.92115.3285.72305.91445-.38362,1.13456-.28803,2.15881.33723,3.20474.76569,1.2812.77944,2.55847-.29999,3.74689-.33286.36642.00947.96623.5085.99455,1.30875.07433,2.78555-1.02104,2.97262-2.26944.08174-.54493.03017-1.11176.01886-1.66824-.01605-.79227-.12638-1.59226.26556-2.4258.74448.4994,1.42853,1.04375,2.187,1.44848,1.39755.7458,1.97741,1.7781,1.44226,3.33767-.04003.1168.08666.29081.14422.4631.21769.03162.4502.10678.67527.08889.39658-.03146.79567-.09166,1.18144-.18883,2.14839-.54129,3.01068-1.76847,2.90289-4.02123Z" fill="#264898"/>
  <path d="M34.11764,74.76226l.00985.02943c-.00074-.00553-.00083-.01085-.00157-.01639-.00351-.00427-.00476-.00883-.00828-.01304Z" fill="#264898"/>
  <path d="M34.58558,78.22498l.00863.02932c-.00236-.0067-.00238-.01373-.00468-.02042-.00073-.0035-.00329-.00535-.00395-.0089Z" fill="#264898"/>
  <path d="M14.54746-7.63158l.02089.0277c-.00413-.00597-.00644-.01296-.0105-.01898-.00294-.00357-.00751-.00516-.01039-.00873Z" fill="#264898"/>
  <path d="M19.2877-3.5572l.0294.02943c-.00744-.00947-.00839-.02207-.01557-.03168-.00509.00025-.00868.00201-.01383.00225Z" fill="#264898"/>
  <path d="M43.86361,2.49607c.22893.03152.45393.09134.68064.13852.29586.37195.37345,1.18167,1.07606.82498.56111-.28485.02009-.79393-.06397-1.19266-.0436-.20684-.21302-.3873-.32559-.57961l-.00004-.00013c-.15348-.48554-.57629-.71896-.96643-.94795-.16544-.09705-.50737-.0983-.65081.01149-.39009.29847-.51863.74946-.42296,1.23856.07017.35891.34881.46216.6731.5068Z" fill="#264898"/>
  <path d="M57.10998,15.86547c.2424.04828.4489.00198.58675-.22611.07978-.13187.17285-.25632.24552-.39187.16144-.30127.1534-.61156-.10979-.83179-.15881-.13291-.40519-.24641-.60141-.23093-.38594.03041-.40376.38659-.4521.71564-.00101.12542-.02055.28202.00077.43289.031.21969.03276.47294.33025.53218Z" fill="#264898"/>
  <path d="M55.57647,12.88164c.2864.12708.51811-.01677.60609-.33716l-.00024-.00004c.10638-.3583.20923-.72372.02384-1.07919-.06073-.11651-.19455-.22784-.31943-.27127-.27986-.09739-.38528.12777-.43665.33284-.07187.28671-.09815.58486-.144.87807.08749.16492.13622.41716.2704.47674Z" fill="#264898"/>
  <path d="M144.17595,58.5424c.30231.03922.38593-.2163.48261-.42337.06608-.14157.09462-.30068.16758-.544.03829-1.14814-.17829-2.27736-1.30687-3.01802-.27027-.17741-.61112-.25282-.86763.01515-.14847.15507-.29139.40322-.28494.60467.03954,1.2437.70438,2.23536,1.38828,3.20704.07219.10257.27338.13944.42098.15853Z" fill="#264898"/>
  <path d="M7.30587-22.85178c.12476-.40245-.08096-.80565-.44684-.98936-.47868-.24025-1.02919-.33538-1.51265-.56818-.67819-.32652-1.22391-.00372-1.77745.27909-.43883.22429-.41861.8948-.0065,1.18107.48835.33928,1.00939.40929,1.46109.28666.56826.08254,1.02953.17421,1.49512.20865.32212.02384.68935-.08194.78724-.39793Z" fill="#264898"/>
  <path d="M158.76731,68.97909c.27118.26543.56519.7308.9642.45034.87113-.61247,1.16135-1.63268,1.58433-2.43778-.10759-.4431-.20168-.77575-.54283-.86564-.35142-.09261-.58338.15919-.72244.44694-.10085.20856-.16175.44654-.19064.67769-.07136.57031-.40958.7307-.94334.8451-.67745.14528-.68463.35943-.14927.88335Z" fill="#264898"/>
  <path d="M163.26794,65.67742c.20375.10848.48143.06592.58824-.21134.11307-.29313.1914-.59969.27335-.86329.01534-.36338.08503-.69242.02161-.99335-.04038-.19163-.24941-.42127-.43535-.48843-.1942-.07015-.50853-.04407-.67164.07508-.96342.70348-.85215,1.90893.22378,2.48133Z" fill="#264898"/>
  <path d="M127.80943,41.08674c-.03278-.0686-.02756-.15548-.03992-.23387.10036-.11136.17646-.2323.13735-.32395-.09896-.2316-.29683-.18651-.48666-.13434-.55742.45642-1.26919-.01128-1.84291.30005-.93586.50784-1.84628.23535-2.75871-.05636-.26793-.08567-.70953-.04915-.56836-.51619.05221-.17263.34744-.39804.51989-.38829,1.50713.08519,2.73241-.58506,3.92809-1.37051.19405-.12748.47339-.20403.33244-.49008-.09571-.19412-.28826-.37547-.48203-.47917-.43456-.2323-.94248-.36676-1.37052-.07793-1.04434.7048-2.48528.61911-3.33045,1.74707-.2371.3165-.73733.24581-1.09663-.01971-.36851-.27223-.37208-.65569-.33403-1.07221.05533-.60601.53193-.96586.78527-1.45404-.14957-.21014-.3389-.25608-.56808-.13765-.86355-.452-.87896-.46479-.39493-1.04738.19292-.23225.56247-.36761.4381-.7466-.18882-.5756.0342-.90296.55501-1.10652.17499-.06845.19102-.20261.10682-.39019-.2521-.56111-1.13001-.93002-1.55471-.61573-.31683.23442-.57655.54523-.88853.78744-.43702.3392-.87147.3231-1.00917-.00867-.16799-.40475-.09713-.78604.21322-1.08413.16585-.15927.39637-.25506.60547-.36476.839-.44006.82877-1.30427.96312-2.05385.11063-.61728-.59891-.62221-.91371-.93043-.3935-.38508-.72881-.82894-1.11312-1.22423-.24565-.25266-.56903-.26194-.87077-.10341-.20827.10951-.38009.28654-.58353.40772q-.844.50255-1.60184-.52359c-.50787-.40786-.98527-.87939-1.71621-.82064-.38478.3846-.74226.80332-1.16496,1.14035-.23341.18616-.42072-.03928-.4557-.29057-.03158-.22717-.00713-.46218-.00758-.8217-.51942.31373-.94518.61442-1.40821.83802-.44447.21465-.72895-.05938-.9262-.44278-.10701-.25349-.2542-.29232-.44768-.08384-.45489.29664-.79076.7729-1.42669.78686-.62367.01364-.73062.53173-.77655,1.01649-.08532.90035.26652,1.71956.51382,2.5596.17813.60501.48167,1.20732.2892,1.8594-.05818.19718-.24701.44328-.42497.4936-.18651.05266-.46554-.05386-.64508-.17696-.49937-.34236-.55251-.93871-.75701-1.45177-.22601-.56706-.53448-.74817-.98231-.15582-.14825.19606-.44771.26413-.61819.06465-.12854-.15066-.16904-.42347-.15844-.63742.03502-.70992.45902-1.16752,1.0691-1.46592.38866-.19013.68997-.46245.61128-.91221-.12687-.72523-.39565-1.45775-1.19851-1.61889-1.61491-.32405-2.84249-1.24808-4.01304-2.3164-.27364-.24975-.6528-.21724-.67344.22425-.02657.56596-.19982.91375-.795.95158-.63514.04035-1.27056.08522-1.90654.09998-1.07072.02482-1.84134.45144-2.14544,1.53495-.10909.38844-.22743.76536-.64328.94185-.42186.13757-.46179.45748-.39486.82893,1.19533.98811,1.82902-.09323,2.57464-.68951-.56622,1.03292-1.53678,1.58475-2.54031,2.16694-2.29347,1.33076-3.15638,3.20341-2.67929,5.73227.14892.78955-.04027,1.366-.4681,1.9905-1.76741,2.58024-4.05503,4.87837-3.80263,8.44929.0876,1.23933-1.21167,1.89033-2.32364,2.35926.02402-.07367.03499-.15552.07495-.21922.08424-.13455.18269-.26032.26933-.39064.25855-.39239.18554-.81881.11183-1.24379-.20386-1.08346,1.07746-1.65424.93517-2.71957-2.69063-1.66601-5.53154-.40823-8.33152-.43691,1.8098-.05131,3.47552-.73228,5.22116-.98946.99488-.09591,1.33978-.73633,1.3686-1.64131.86659-1.58587,1.8612-2.99749,3.47149-4.01068,1.2572-.79113,2.08045-2.11254,2.50685-3.59645-.00241-.0624-.00698-.1235-.01127-.18481.01502-.01891.02783-.03747.02524-.05357-.14034-.86898.13611-1.47297.96045-1.8631.64368-.30468,1.2275-.72507,1.68348-1.29287-.04639-.43643.33356-.89611-.15355-1.40186-1.282.88035-2.36635,1.97437-3.32734,3.20165-.05081-.02218-.09723-.04693-.15457-.06532-1.40026.21977-1.86477,1.66841-3.36256,2.49256.97349-1.2603,1.86809-1.99574,2.74849-2.76246,1.43228-1.24745,3.05407-2.31602,4.0167-4.03399.27276-.28683.56126-.56058.81338-.86454.20351-.24533.31569-.40703-.1165-.67691-.6004-.37505-.59826-.77828-.13573-1.04427.89901-.51695,1.8175-1.00369,2.74956-1.45855.66838-.32614,1.27298-.67936,1.45955-1.46792-.13549-.22555-.32311-.27137-.55595-.1613-.50331-.05072-.7457-.32411-.464-.77229.15042-.23941.48997-.38869.77377-.50862.41489-.17534,1.01009-.14199.96875-.80435-.02783-.44663-.4463-.62576-.78247-.82853-.94287-.56874-1.28922-.46782-1.8729.54862-.11756.20471-.16128.45604-.29534.64614-.20068.28441-.47506.35058-.82347.20536-.65507-.27296-.91802-1.11306-1.77661-1.1793-.04545.31294-.06133.62863-.1412.92714-.14167.52951-.56366.74144-1.06325.80567-.48236.06199-.92181-.43777-.86334-.89042.0879-.68121.5971-1.09991.92216-1.6351.1212-.19962-.00874-.49313-.24958-.56913-.2084-.0658-.5019-.08332-.67437.01874-.17787.10529-.36156.38273-.35827.58174.01787,1.06465-.96931,1.62517-1.22302,2.53621-.39302,1.4116-1.61413.52792-2.38347.88713-.21543.10063-.42613.21454-.64828.29729-1.30454.48605-1.86884.31509-2.64544-.74702-.46082-.63028-.6043-1.46536-1.2594-1.96566-.15291.07567-.31977.11453-.42415.21704-.59333.58263-.83544,1.28307-.86303,2.12951-.01313.40207-.40447.69641-.80207.17227-1.60591.58894-.62675,2.12651-1.14334,3.11927-.07438.49598-.09378,1.03801-.49617,1.36849-.13177.1081-.1885-.31707-.34483-.44796-.48085-1.00361-.19763-2.01596-.00328-3.01561.08903-.45753.30574-.88924.45073-1.33716.08783-.27138-.09641-.44407-.27439-.59919-.21037-.18345-.43997-.0919-.65594-.00535-.79859.32024-.82906,1.33346-1.55009,1.72565-.45338.29088-1.06328-.19625-1.47582.29712-.28403.79032-.69983,1.57704.14859,2.31536.11645.10141.11909.45057.04357.62993-.1349.31987-.46459.36591-.7931.35255-.44108-.01799-.76075-.21584-.8248-.65848-.05465-.37663-.04528-.76765-.01946-1.14925.02298-.34124.01021-.63883-.41213-.66231-.37125-.02062-.52002.24567-.6203.56114-.07031.2212-.17716.43079-.26769.64553,0,0-.00007.00005-.00008.00011-.41756.1916-.53548.547-.53069.96962l.00007-.00005-.00008.00011c-.01167.14065-.06249.26544-.15237.37432-.28139-.04099-.56272-.08204-.8441-.1231-.05311-.16807-.02214-.31887.09286-.45247.24956-.10203.39476-.28219.41584-.55512l-.0002.00009.00016-.00028c-.01415-.1.00526-.1929.05832-.27881.11987-.19469.26193-.37956.35375-.58671.1024-.23109.03192-.47754-.18099-.59124-.267-.14264-.41605.06995-.48164.29609-.06324.21797-.07789.45008-.11386.67608l-.00007.00005c-.61595-.09896-.70086-.60951-.7366-1.0687-.08933-1.14805.25005-2.20053.85696-3.17092.11604-.36961.22045-.74836.02134-1.11249-.05882-.10753-.23471-.21671-.34919-.20904-.10689.00723-.29165.17147-.28848.2613.01049.30059.08972.59883.1426.89805-.07876.00466-.16298.02992-.23552.01088-.94777-.24923-1.24586-1.3774-2.20379-1.64329-.1034-.02865-.12811-.41518-.15177-.6396-.03254-.30848.03302-.63965-.05432-.92747-.18387-.60584-.59333-.65514-1.08628-.31937-.23048.16345-.46096.32697-.6915.49041-.06334-.09388-.06537-.18897-.00608-.28552l-.00008.00011v-.00006c-.05143-.141-.09867-.40295-.15477-.40487-.89205-.0299-1.8209-.33214-2.64078.29012-.23781.453-.47575.90605-.71363,1.35911-.50301-.09946-1.06413-.08425-1.3215-.66894l-.00019.00003.0002-.00009c-.06262-.26357-.2549-.43144-.49867-.39259-.78627.12547-1.58359.26376-2.15054.90678-.37349.42368-.82561.4116-1.31068.29643l-.00005-.00007c-.08015-.57431.26789-.93186.64518-1.27463.26917-.00142.467-.11966.5911-.35963l.0002-.00009c.12084-.02562.24046-.05598.35886-.09109.25234.04566.5138-.03935.45618-.3004-.11485-.52051-.47-.48341-.84354-.23101l-.00025.00003c-.2958.01871-.59159.03736-.88739.05607l-.00025.00003s.0002-.00009.00029-.00027c-.16589-.05191-.33168-.10368-.49757-.1556.01394-.19108.02781-.38211.04169-.5732.02419-.91218-.24638-1.97037-.9296-2.29916-1.07068-.51514-.57833-1.74949-1.37802-2.2093-.3738-.21496-.87122-.21492-1.31635-.3061.00103-.01305-.0002-.02624.00102-.03926-.00475-.00001-.00746.00212-.01216.00218.34676-.65619-.19643-1.172-.29601-1.75776-.02263-.6098-.41895-.75291-.93344-.7479.0006.00052.00121.00098.00121.00098,0,0-.00106-.00034-.00178-.00088l-.19875-.00315c-.00012-.00002-.00013.00004-.00013.00004l.00003-.00018c-.30197-.24202-.47438-.54923-.4821-.94236-.00623-.32057-.18001-.5441-.42883-.72185-.14498-.03796-.29128-.06932-.439-.09392v.00006s-.00006-.00007-.00006-.00007c-.28583-.0491-.57159-.0982-.85742-.1473-.49191-.06892-.98367-.13794-1.47551-.20691.03709-.13011.07539-.26005.11539-.38937h.00006c.30033.0036.83424-.1241.71016-.30248-.43068-.61912-.58629-1.50191-1.45113-1.76543-.34207.09649-.68402.19305-1.02603.28955l-.00005-.00007c-.17702-.03009-.35398-.06011-.53094-.09019l-.00007.00005v-.00006c-.25678-.17002-.60635-.28346-.75168-.52154-.33559-.5498-.83602-.6836-1.39873-.75294-.41976-.18987-.7318-.64361-1.2871-.50624-.14739.03644-.32967.05955-.46169.00541-.31233-.1282-.52491-.37969-.48475-.73391.06194-.54491.37126-.35307.65611-.186.06849.04011.13337.08937.20635.11817.28751.11312.64733.25789.77699-.12737.10696-.3177-.12962-.67617-.44278-.75533-1.00077-.25292-2.00474-.37512-2.73769.61846-1.07816,1.48706-1.5646-.21862-2.33254-.42742-.14165-.4095-.42135-.71182-.75999-.96842.03115-.14017.0454-.28199.04269-.42553-.11682-.24073-.26973-.27879-.46437-.08268-.37789.51592-1.01643.52408-1.52589.78368-1.3851.38418-1.26308,1.68636-1.63091,2.70245-.06382.16718-.18121.25227-.35309.28701-.09937-1.28995,1.07954-2.15135,1.18255-3.38754-.01448-.10751-.0279-.21597-.04157-.32311-.14784-.16135-.29654-.32308-.44624-.48396.04044-.23256-.00209-.55039.13502-.68374.84209-.81929.85106-1.60589.1319-2.52804-.20465-.26237-.10235-.7641-.14089-1.1561-1.51846-.47978-2.10358.56224-2.67411,1.63548-.28715.54002-.29265.53712-.44468.55753q-1.42067.19171-1.6183,1.82368c-.01718-.00145-.02266-.00193-.03491-.00297.02564-.10729.03249-.2228-.00356-.34491-.10826-.35525-.35783-.58306-.68438-.7544-.0629-.05484-.15142-.10908-.15182-.16409-.00055-.06243.06553-.1641.12359-.18256,1.71847-.54478,2.59934-1.62308,2.24862-3.49629q-.24842-.94907-1.01168-.70517c-.64066-.04267-.6779-.17944-.26342-.96771-.04903-.40678-.18161-.79676-.59083-.93472-.27534-.09285-.61333-.09365-.89479-.02253-.09495.02402-.14121.39599-.13917.60826.00233.25019.00889.46491-.31838.42175-.29768-.03923-.50379-.33018-.87154-.25093-.52189.11249-.46229-.28893-.30317-.53269.46509-.71203.46086-1.139-.5314-1.20758-.10515-.00726-.2396-.34398-.26908-.54149-.06616-.44257-.28295-.76702-.71985-.78237-.4137-.01457-.73941.24613-.86718.66423-.14818.48477-.37787.85976-.95049.87219-.40988.09373-.7156.35524-1.01046.63374-.26873.01278-.32794.87053-.79146.20027.71806-.36499,1.39416-.80627,1.81766-1.54746.13612-.507.24988-1.00997-.25671-1.39902-.37895-.34424-.99105-.26631-1.30809-.72263-.06589-.0924-.08773-.19432-.06551-.30568-.28831-.67831-.71188-.5553-1.04377-.09573-.68071.94264-.93957-1.0666-1.57178-.19505-.14223-.38892.3679-.63184.22664-1.01853-.07206-.36374-.28084-.61-.63349-.73233-.29589-.08553-.59173-.17106-.88756-.25658-.18892-.11755-.3753-.23904-.55939-.36397-.10152-.04034-.20648-.05398-.3149-.04087-1.019.55664-1.28149-.51172-1.87357-.87224.0766-.40549.5391-.95026-.36182-1.00316-.41319-.24313-1.01089.30464-1.33691-.31192-.02974-1.03134-.78051-1.18467-1.67079-1.30319-.13148.49633-.26631,1.00549-.4012,1.51464-.24027-.07696-.36883-.24662-.41901-.48926-.15986-.77239.34769-2.00441-1.24258-1.80761-.06249.0077-.21772-.20296-.21689-.31096.00295-.3872.0706-.77352.08187-1.16112.00705-.24259-.11171-.43426-.38903-.29951-.12747.06191-.20347.22973-.30284.34957-1.9046,2.03558-1.82327,2.75679.41805,3.8695.20042.09954.30403.30209.42481.48967-.06165.08091-.13611.14984-.20796.22118-.02113.39943-.12985.80648.07139,1.18745.14016.27495.29112.54217.4309.81799.46932,1.40277.11235,3.49057,2.64605,3.15511,2.46953-1.96672,1.65131,1.36938,2.55603,1.96002.24479.33931.48824.67972.75004,1.00589.14079.15126.27479.30851.41422.46069.15927.13359.31354.27146.47413.40278.32184.25169.82558.38987,1.05962.70806.14144.10134.21867.25626.1668.52719-.06047.31569-.22162.50118-.43158.62191-.02578.01784-.05529.03119-.08286.04693-.02001.00912-.03629.0231-.05708.03118-.2929.14736-.66281.1986-1.0135.23981-.67333.07909-1.57377-.06589-1.2483,1.12047.90449.45085,1.71481-.13831,2.56482-.22362.18675-.09425.37755-.17558.56927-.2569.19281-.08461.3942-.13776.60095-.17268.42142-.04284.81961.03992,1.19606.22646.17305.08965.34324.19011.51408.28523.09386.02683.18431.06353.27603.08894,1.35946-.24081,1.56028-1.51047,2.16283-2.42111.14876-.17323.33234-.2915.54917-.36097.88873-.112,1.67501.19981,1.98624,1.00054.00607.01556.00516.02819.01052.04347.13385.28014.11054.4933.0081.67245-.18284.48387-.75983.79695-1.14835,1.16904-.22963.22001-.50257.3947-.73783.61067-.41642.38247-.86061.77953-.66511,1.4229.20863.68672.77708.70637,1.36671.63117.08471-.01082.16758-.01408.24999-.015.17227-.05146.35113-.07309.54937-.00951.11223.09185.19722.18142.26717.26972.0175.0137.03653.0211.05372.03611.02098.03944.03176.07943.04764.11917.09987.18288.12023.35908.07644.52979-.01025.10879-.02939.21807-.06602.32839-.76408.75569-.98825,1.67022-1.10554,2.61526.01433.23127-.01447.46096-.0748.68952-.07527.80991-.14581,1.62044-.47052,2.35495.06433.27554.20706.49795.45654.64699,1.20315.19122,2.32671.78812,3.58697.63158.21925-.01565.43432.00295.64943.04215.05205.04592.10748.08339.16089.12581.14854.03761.28328.1125.37473.25525.00437.00686.00842.01337.01279.02024,1.90929,1.20215,4.39772.89804,4.86224,5.15465.13487.17803.22765.3766.28503.59173-.0313.06176-.04846.11662-.07357.17533.01406.21192-.06341.42678-.17031.63581-.11271,1.4834,1.9843,1.98164,1.76504,4.31586.10481.19347.18386.39657.24874.60589.5095,1.64667.12194,3.4462.86986,5.048.57113.57106,1.28242.95629,1.91998,1.44275.16513.13315.30467.28707.42453.46231.11988.20565.166.38491.16488.5472.12189.30351-.02308.4816-.25931.61671-.14029.16928-.3161.32581-.48048.4864-.15421.27149-.14164.5395.01828.80277.12579.14119.24951.28171.38536.41098.42747.49086,1.0796.39642,1.61604.59904.05617.01883.10855.04882.16155.07712.01728.00929.03593.01503.05289.02526.00255.00327.00367.00701.00616.01027.04069.02558.08491.04089.12304.07393.0073.04442-.00061.08916.00143.13367.12384.25865.15454.54324.16941.83021.0291.22681.06807.45149.26594.60006.06866.00035.13726-.00103.20586-.00162.19228-.02018.37446-.08043.55807-.14671,1.46581-.21932,4.69741-.58644,2.33262,1.88582-.78667.82247.88069,1.37395,1.53489,1.88978.06385.04616.10349.11081.15895.1634.06245.04478.11209.09492.14687.15104.18015.2115.3351.44235.46771.6903.11307.17481.21697.35587.3239.53472.22801.34908.4674.69155.65726,1.06464-.00085.0848.00777.15883.01839.2305.03011.084.05351.1751.07312.27021.43009.93099,2.29588.26538,3.81214.54328-2.48608,3.06282-.22219,2.1051.40746,3.08807.1643.38769-.12875,1.69786.04988,2.08164.10044.18919.18053.38597.2497.58783.05523.20785.17903.80521.15255,1.01766-.24367.81141-1.61309.90208-.90747,2.02783.01345,1.05901.78098,1.45321,1.59057,1.81005.17963.1463.28189.33563.31037.5655-.60154,1.43404-1.64689,1.84432-3.09247,1.34386-1.29255-.44746-2.5081-.42079-3.55077.60749-.61458.33149-1.25771.49057-1.95342.31995-1.0884-.2997-2.07389-1.06588-3.30164-.72515-.58515.21469-.63672.78461-.8358,1.25119-.07674.19503-.18174.3761-.30504.54556-.13346.15664-.28552.29614-.44782.42497-.15713.13488-.3181.26526-.47204.40282-.39993.79803-.73892,1.33107-1.10106,1.63157-.38168.4516-.89614.46069-1.58267.03829-.31318-.15422-.6576-.36467-1.07096-.66648-1.24316-.90766-2.44678-.30204-3.67144-.34553-1.55845-.01808-2.60715-1.23012-3.97504-1.69135-.7807.0506-1.57206-1.07934-2.33059.03136.11387.15531.20749.3099.30177.471.36157.6261.29693,1.35016.49774,2.00835.11506.266.26201.51246.45358.73149.42149.43905.96459.7156,1.43991,1.08685.17347.14071.32368.29933.46264.47339.15218.30427.34682.61976.44788.91174.11919.25495.1272.53951-.10332.88373-.21965.32797-.48924.31318-.77532.2097-.02741.0057-.05012.01258-.07901.01788-1.60408-.27672-1.37957.24467-2.8621-.43113-.39535-.10183-.70121-.57268-1.142-.29755-.21549.13455-.22178.35067-.07493.51589.35314.32963.83407.83714,1.56745,1.17945.19041.09797.36676.21505.53769.34263.7917.60698,1.30918,1.35885,1.07687,2.40282-.55837,2.50921.79735,1.48742,1.8579,1.01835.20439-.09126.41756-.14658.63973-.17007,1.36151.09581,1.65621,1.30508,2.27998,2.1744.48079.62485,1.1691,1.01415,1.73988,1.5294.24452.17046.50018.30622.81421.23798.16913-.10156.33588-.19785.49765-.30992.58872-.35004,1.1522-.50769,1.63677-.07107.0506.02277.10046.0421.15178.06836.02222.05251.02895.10005.04428.15032.02705.03582.05512.06339.08156.10387-.00671.04744-.01844.09341-.02668.14038.03391.32619-.07029.60581-.23247.86041-.62112,1.73107-1.96983,3.24605-1.59092,5.27039.04933.21069.08508.42441.12174.63697.23619.9225.24811,1.86756.27918,2.80652.03921.18011.07447.36459.12082.54266.12388.33353.31437.62412.58577.8596.35438.28331.78232.44267,1.15678.69306.14924.12073.27142.26337.37039.427.22398.41628.43115.84091.64873,1.25965.19273.40557.34246.8337.62203,1.19083.11898.11331.24299.2226.37803.3124.23467.10113.46565.08324.69417-.02598.22096-.16329.40882-.35607.60404-.54851.14969-.14355.31459-.2572.49447-.35639.16829-.07115.3246-.10871.47466-.12867.38582-.16673.69025-.04696.94363.2527.17921.13729.34293.31841.49024.54617.5.97963.41907,2.24172,1.44588,2.96673.56361.58927,1.05298,1.28031,1.96422,1.37338.75167.1497,1.51775.23118,2.23595.51448,1.82467.73888,3.79204-.38749,5.61077.41986.54224.05107,1.01489.28439,1.4712.55975.18086.09707.35563.20628.53059.31298.44544.25805.9532.38466,1.3973.64856.17107.12667.30909.28296.41999.46381.36506,1.15116,1.00115,2.01844,2.29906,2.1908.30618.04571.66749.29487.91892.07716.01958-.01634.03536-.03835.05318-.05741.02543-.03158.05108-.06252.07338-.10733.19717-.39569-.19231-.73498-.37376-1.08149-.77977-1.1668-1.55212-2.33549-1.91348-3.71801-.12052-.80035-.01041-1.59496.10157-2.37956.05074-.35571.11231-.63313.18436-.8735.00976-.06297.02994-.11863.05216-.1748.02006-.05358.04438-.09834.06686-.14528.01227-.01906.01958-.04095.0334-.05886.2261-.41912.5716-.55575,1.18066-.45181.41198-.02749.81442.04508,1.13952.32272.03258.01133.05737.01777.09081.02959.01345.03014.01566.05606.02624.08516.01539.01673.03264.02879.04756.04663.19334.23106.12297.41197-.02276.57028-.12808.39857-.5034.70363-.71547,1.06946-.19433.30229-.41039.59872-.38552.98669.06658.1522.1459.29528.2591.41823.3679.28022.84057.34992,1.20803.62255.14551.13406.25295.29368.32827.47448.17369.38251.12764.89742.65184,1.0612.17037-.01713.33416-.04077.49662-.08835.34073-.12209.65889-.28453.97716-.45287.1702-.09666.34572-.17558.52496-.24995.07375-.03135.14493-.06702.21784-.09979l41.14327-23.33531c.12538-.08997.25067-.17976.38288-.25943.18049-.11268.37022-.20748.56281-.29608.08595-.03464.16364-.08207.24693-.12085l.96195-.54562c.48939-.32901.95489-.69528,1.4308-1.04537.16883-.13306.34789-.24995.53168-.36036.18205-.11368.3733-.20963.56736-.29943,1.19454-.49555,2.13754-1.37142,3.17237-2.10881.17089-.13455.35194-.25276.53828-.36459.18622-.1161.38105-.21455.57959-.30635.82394-.20856,1.43018-1.02492,2.28834-1.14044.53187-.36034,1.07261-.70618,1.67189-.9549.18908-.09114.37704-.18102.56161-.28275.09075-.04985.18256-.09258.27262-.14148.17749-.09634.35126-.19587.51734-.31082.08214-.05641.1667-.10654.24846-.16244.16268-.10984.32775-.21446.49092-.32262,1.04784-.47073,1.34943,1.19681,2.36502.82588.30056-.45061.26671-1.15518.86871-1.36181.81985-.2815.90102-.76817.58757-1.47332-.16004-.36012-.28502-.73833-.39642-1.11698-.09919-.33703.0139-.64558.3131-.81551.34255-.19448.74245-.29126,1.07528-.49826.18231-.11334.43676-.4584.38806-.54263-.64794-1.122.10178-1.73212.80045-2.38487.10048-.09389.17767-.31323.14092-.43772-.3571-1.2102,1.09245-2.31199.19539-3.56644-.1744-.24385.17043-.37083.37346-.46759.77956-.37142.72583-1.20062.88981-1.8387.14392-.56027-.7526-.40443-.95828-.83464ZM28.32689-.74538c-.15155.0956-.20873-.00922-.04877-.07826.01169-.02698.01263-.05892.02036-.08795.07337.02521.17024.07672.02841.16621Z" fill="#264898"/>
</svg>