<?xml version="1.0" encoding="UTF-8"?>
<svg id="Layer_1" xmlns="http://www.w3.org/2000/svg" version="1.1" viewBox="0 0 200 100">
  <!-- Generator: Adobe Illustrator 29.6.0, SVG Export Plug-In . SVG Version: 2.1.1 Build 207)  -->
  <path d="M146.40944,131.63998c1.43799.67719,2.875,1.35638,4.32355,2.01251.59528.26965,1.151.60303,1.67914.98248.26056.1264.49976.23718.75659.36084-.19165-.79889-.32849-2.40894.69202-4.67676,1.5-3.33331,1.08337-3.25-1.83331-5s-4.16321.57117-5.77313,1.54254c-.82727.49915-1.30817-.77106-5.60187-3.16754-4.21515-2.35266-1.625-8.54169-1.04169-13.625.58337-5.08331-7.16663-9.25-7.75-17.83331-.58331-8.58337,8.08337-15.91669,6.33337-18.66669s-.16669-8.08331,1.33331-11-3.41669-2.75-5.66669-6.33331c-2.25-3.58337,3.58337-3.83337,3.16669-8.91669s.60712-5.45911.60712-5.45911c0,0,6.2262-3.20758,1.89288-7.37421-4.33331-4.16669-2.41669-2.75.5-6.33337,2.91669-3.58331,3.66669-10,3.66669-11.08331s-7.41669-5.41669-8.83337-6.66669c-1.41663-1.25-.41663-2.83331,1-4,1.41669-1.16663,2.16669-4.91663,1.75-8.58331-.41663-3.66669,9.16669-8.83331,9.16669-8.83331l-1.68262-2.19708c-.41095-.48798-.92035-.92322-1.21472-1.47357-.97528-1.82367-1.87604-3.68726-2.79926-5.53857-.42499-.85229-.3053-1.66876.06653-2.53082.99774-2.31311.84216-4.69958.07172-7.0069-.70349-2.10681-2.05188-3.7713-4.14417-4.72809-1.78479-.81622-2.39349-.70087-3.73468.74945-.27112.29315-.55054.57892-.81543.87756-7.25897,8.18585-14.52808,16.36267-21.77094,24.56268-6.55597,7.42236-12.98877,14.95569-19.64178,22.28949-15.18311,16.73682-30.4679,33.38135-45.71082,50.06396-.03729.04083-.07288.08307-.11029.12378,45.39636,35.76196,78.86438,56.06598,101.11847,67.46234Z" fill="#264898"/>
</svg>