<?xml version="1.0" encoding="UTF-8"?>
<svg id="Layer_1" xmlns="http://www.w3.org/2000/svg" version="1.1" viewBox="0 0 200 100">
  <!-- Generator: Adobe Illustrator 29.6.0, SVG Export Plug-In . SVG Version: 2.1.1 Build 207)  -->
  <path d="M188.73132,44.48399c-1.11175-.60941-2.26315-1.315-3.58734-1.01382-1.45345.33056-2.91167.2284-4.36784.31791-.5685.03493-1.13967.10065-1.698.21103-1.68273.33265-3.36555.66852-5.03695,1.05293-1.2377.28469-2.47924.57069-3.61877,1.17995-.56903.30424-1.10562.63748-1.52039,1.1332-.32112.38378-.7952.80308-.60391,1.31286.21517.57331.86277.42917,1.35664.41356.37571-.01187.74898-.1169,1.12235-.18583,1.58159-.29213,3.15077-.35464,4.72283.10576.78936.23117,1.60922.35815,2.30406.50827.44172-.04923.76649-.04816,1.07108-.126,1.23264-.31499,2.47763-.54447,3.73464-.74981,1.57035-.25647,3.07459-.80473,4.52259-1.47515.63549-.29427,1.24427-.65373,1.73118-1.16575.4102-.43141.36792-1.24504-.13218-1.51913Z" fill="#264898"/>
  <path d="M198.42819,60.47759c-.08567-.16988-.18866-.33124-.27107-.50253-.66443-1.38126-.94878-2.76047.02393-4.13468.07176-.10124.11101-.2283.15164-.34808.05998-.17679.10377-.41122-.11724-.44926-.14337-.02471-.37722.10435-.47334.2357-.77778,1.06247-1.13442,2.254-.97373,3.75216,0,.33017-.02554.83864.00808,1.34307.02676.40071.25438.72427.61364.90436.32302.16195.67251.49168,1.03912.22101.39264-.28989.17134-.67976-.00102-1.02175Z" fill="#264898"/>
  <path d="M50.71907,83.7742c-.26824-.14098-.49222.0449-.65212.23492-.28332.33664-.5434.6944-.79452,1.05624-.19415.27987-.25438.57254.05332.83022.23229.19454.45904.13855.68511-.01401.52107-.35158,1.13116-.64317.96892-1.37537-.01002-.32657-.01498-.60289-.2607-.732Z" fill="#264898"/>
  <path d="M121.72066,137.09411c1.38199-1.12649,1.39118-1.15709.89424-2.82848-.05356-.18014-.09778-.36306-.14633-.54466-.72096-.10761-1.20126.17319-1.53377.83339-.2681.5323-.38232,1.0595-.32686,1.64751.06786.71897.11097.76757,1.11272.89225Z" fill="#264898"/>
  <g>
    <path d="M188.73132,44.48399c-1.11175-.60941-2.26315-1.315-3.58734-1.01382-1.45345.33056-2.91167.2284-4.36784.31791-.5685.03493-1.13967.10065-1.698.21103-1.68273.33265-3.36555.66852-5.03695,1.05293-1.2377.28469-2.47924.57069-3.61877,1.17995-.56903.30424-1.10562.63748-1.52039,1.1332-.32112.38378-.7952.80308-.60391,1.31286.21517.57331.86277.42917,1.35664.41356.37571-.01187.74898-.1169,1.12235-.18583,1.58159-.29213,3.15077-.35464,4.72283.10576.78936.23117,1.60922.35815,2.30406.50827.44172-.04923.76649-.04816,1.07108-.126,1.23264-.31499,2.47763-.54447,3.73464-.74981,1.57035-.25647,3.07459-.80473,4.52259-1.47515.63549-.29427,1.24427-.65373,1.73118-1.16575.4102-.43141.36792-1.24504-.13218-1.51913Z" fill="#264898"/>
    <path d="M198.42819,60.47759c-.08567-.16988-.18866-.33124-.27107-.50253-.66443-1.38126-.94878-2.76047.02393-4.13468.07176-.10124.11101-.2283.15164-.34808.05998-.17679.10377-.41122-.11724-.44926-.14337-.02471-.37722.10435-.47334.2357-.77778,1.06247-1.13442,2.254-.97373,3.75216,0,.33017-.02554.83864.00808,1.34307.02676.40071.25438.72427.61364.90436.32302.16195.67251.49168,1.03912.22101.39264-.28989.17134-.67976-.00102-1.02175Z" fill="#264898"/>
    <path d="M50.71907,83.7742c-.26824-.14098-.49222.0449-.65212.23492-.28332.33664-.5434.6944-.79452,1.05624-.19415.27987-.25438.57254.05332.83022.23229.19454.45904.13855.68511-.01401.52107-.35158,1.13116-.64317.96892-1.37537-.01002-.32657-.01498-.60289-.2607-.732Z" fill="#264898"/>
    <path d="M121.72066,137.09411c1.38199-1.12649,1.39118-1.15709.89424-2.82848-.05356-.18014-.09778-.36306-.14633-.54466-.72096-.10761-1.20126.17319-1.53377.83339-.2681.5323-.38232,1.0595-.32686,1.64751.06786.71897.11097.76757,1.11272.89225Z" fill="#264898"/>
  </g>
  <path d="M192.95527,2.87804c.13013-.15105.13597-.30687.01703-.46712-1.05541-.18223-1.45301.87153-2.23785,1.1961-.14609.09516-.28848.19513-.42207.30804-.13417.10955-.26343.22354-.38281.34924-.73176.70019-1.37523,1.49908-2.26066,2.02681-.14278.09306-.28264.19065-.41321.30118-.13232.10814-.26017.22086-.37809.34516-.33528.33066-.66049.6729-1.00881.98847l-.69625.54057c-.06125.04013-.1171.08645-.18092.12361-.14176.09194-.28055.18846-.41.29802-.09516.07798-.18369.16316-.27228.24849l-29.77908,23.11983c-.05376.0342-.10581.07049-.16039.10367-.13286.0792-.26226.16156-.38544.2573-.23176.16925-.4641.33382-.71887.46916-.12269.05614-.24917.09355-.38159.12658-.43224-.06913-.45491-.48054-.63573-.76236-.08012-.13398-.18316-.24757-.31329-.33664-.32108-.17294-.70189-.17377-1.02418-.35265-.10338-.08401-.18233-.18778-.25229-.30021-.06407-.30317.07239-.56174.19104-.82244.18919-.47218.69878-.87532.32112-1.47345-1.70258-.3363-2.01621-.13227-2.01246,1.38116.00156.63169.00574,1.27107.1925,1.88856.44342,1.04909,1.18652,1.88243,1.93526,2.71343.18282.25253.5289.47553.41871.81023-.13568.41224-.52292.19002-.81461.18885-1.0435.01275-1.64459-.59847-2.06442-1.46464-.10819-.12994-.23497-.2374-.38442-.31772-.38052-.15728-.79554-.19897-1.17645-.35148-.15022-.06412-.30059-.13023-.45437-.18608-.39147-.16492-.79101-.29481-1.22456-.27296-1.52705-.42844-2.94981.6854-4.4737.31164-.59895-.14118-1.21255-.11768-1.82259-.14964-.72943.03099-1.1946-.45802-1.70666-.85824-.89298-.45422-.97373-1.459-1.48035-2.17441-.44668-.511-.95904-.68715-1.58217-.30998-.13052.09885-.24757.20739-.34919.33776-.13193.17416-.25803.34773-.4136.50185-.16774.11233-.34788.1529-.54456.10002-.1168-.05536-.22714-.12736-.33397-.2031-.26143-.24966-.42859-.5702-.62707-.86802-.2196-.30536-.43165-.61656-.65602-.91925-.09681-.11773-.20953-.21624-.34107-.29437-.32404-.1546-.67985-.23127-.99183-.41414-.24105-.15465-.4246-.36204-.56052-.61092-.05697-.13514-.10591-.27661-.15747-.41419-.13208-.73706-.24976-1.48113-.54174-2.18171-.05327-.16346-.10595-.32793-.169-.48847-.63033-1.84468.74694-3.40146.74081-5.15847-.52019-.58976-1.03104-.39025-1.53883.02097-.11476.10693-.23526.20199-.35703.30147-.23988.0898-.45709.01202-.66949-.09443-.50925-.34102-1.09677-.56923-1.54758-1.00701-.59161-.61423-.96259-1.5343-2.04749-1.45389-.17255.04398-.33436.11204-.48512.20743-.78279.49149-1.73507,1.45277-1.58212-.59039.06363-.85007-.43068-1.38384-1.12469-1.7719-.14945-.08105-.30196-.15319-.46337-.20865-.61768-.18598-1.05517-.53119-1.37148-.75073-.13475-.1135-.15455-.28469,0-.4155.31616-.26751.61136.06884.93487.10386,1.24679.3632,1.00998-.02233,2.30693.01216,1.25896-.42645.58742-1.05468.17032-1.65412-.12955-.12138-.2662-.22928-.41915-.32039-.41745-.23837-.87751-.39429-1.26027-.69231-.1762-.15081-.32035-.32837-.44158-.52501-.2338-.49616-.26576-1.07468-.62269-1.5271-.09282-.11627-.18438-.22748-.29198-.33693.47106-.96298,1.22471-.16239,1.8347-.29174,1.13179.20709,2.09784,1.04296,3.32916.87868.97096-.106,1.85095-.72159,2.93551-.14808,1.74879.92479,2.22262.65952,2.84663-1.2216.10566-.12614.2177-.24742.32618-.37182.11325-.12021.21721-.24767.30454-.38651.07784-.14779.13991-.30264.1781-.46527.10357-.39084.07896-.84628.51591-1.08266.92937-.40942,1.79447.08202,2.68731.19372.5683.05487,1.05736-.14429,1.50414-.47616.70461-.93054,1.66035-1.09083,2.73114-.88597,1.19756.22913,1.9751-.21424,2.28528-1.41429-.04879-.17805-.15115-.31568-.30959-.41049-.67946-.1887-1.33003-.41171-1.46196-1.24548-.68555-.80712.38422-1.03552.48346-1.70345-.00345-.17061-.16954-.62761-.23691-.78522-.07769-.15129-.16341-.29734-.2643-.43506-.18486-.28225-.10381-1.34925-.27783-1.63622-.60927-.7032-2.28523.31159-.67518-2.38909-1.40227-.05196-3.02336.91935-3.19869-.37624-.1925-.27253-.42056-.51523-.6404-.76445-.10484-.12882-.20753-.25973-.31675-.38466-.20257-.27476-.41356-.54096-.72524-.70389-.57511-.33192-1.95345-.57589-1.42718-1.31476,1.58203-2.22097-.92489-1.56116-2.05595-1.22023-.18209.0973-.3526.21196-.57049.21532-.18705-.09204-.24304-.27228-.29359-.45364-.0575-.28965-.13154-.57482-.35673-.79233-.48628-.20549-1.07658.04125-1.52418-.34355-.12196-.0864-.23565-.18306-.35104-.28002-.15631-.18934-.19693-.3993-.10639-.63111.31358-.4101.71366-.80283.2644-1.36759-.11461-.12449-.24231-.22991-.38782-.31602-.55862-.31066-1.1638-.53303-1.67971-.91803-.77345-1.17776-.67392-2.64158-1.26445-3.88205-.07516-.15767-.16078-.30882-.26562-.44941-.10985-2.16964-2.41079-2.01957-1.78722-3.86974-.06991-.16312-.16584-.30911-.29262-.43408-.93847-3.63078-3.17471-2.63292-4.90428-3.76247-.17416-.00628-.34593.0037-.51708.04116-.97612.26785-1.93073-.07424-2.90165-.08723-.21386-.08898-.35192-.24806-.43423-.45802.42333-1.51781-.42596-3.22326.65373-4.65336.04909-.27559.01163-.53342-.15776-.76426-.28965-.18734-.59929-.18155-.91584-.09355-.45646.12687-.90709.17649-1.15033-.34126-.22792-.48507.07696-.84915.3616-1.19854.16083-.19731.3561-.36637.51202-.56621.37459-.47996,1.07726-.90558.67513-1.61623-.33723-.59594-.99315-.7518-1.68132-.56164-.16307.07964-.29432.19396-.39181.34764-.37094.78732-.38388,1.81179-1.42859,2.15748-.07526-.00953-.15081-.02812-.22792-.03853-.14565-.05546-.2914-.1152-.43817-.16608-.3183-.10401-.64186-.12366-.96936-.04159-.15908.05123-.31183.11622-.45422.20505-.14191.08611-.28308.17212-.41959.26785-.66069.16467-1.23235.72223-1.99743.47023-.39264-.89848.33421-.88729.85625-1.02681.50341-.13456,1.06432-.29534,1.10319-.87459.04393-.6548-.65699-.64624-1.06952-.88213-.14171-.08518-.27919-.17625-.42012-.26338-.12741-.10406-.25112-.21274-.3795-.31592-.24387-.22728-.4749-.46789-.70685-.70749-.78128-.36223-.5181-3.08739-2.24067-1.25317-1.96007.55488-1.9177-1.13281-2.44859-2.1855-.14186-.20155-.29155-.39502-.4336-.59584-.30342-.41599-.05998-.95885-.32545-1.38315-.90251-.44858-1.80941-.40008-2.71922-.02277l-.01158.0271c-.06743.13748-.05916.27029.02442.39852.34691.17508.75983.39239.73483.79456-.05736.92324.15076,1.46921,1.21941,1.23055.03756-.00842.12313.05974.13558.10586.02943.1097.08231.28386.03104.3328-.29797.2844-.69586.24446-1.06714.25847-.65173.02466-.82575.52496-.97344,1.00331-.13344.43199.10012.68253.52204.84993.28926.11471,2.1495.75793,2.55936.76022.55395.00316,1.03464.54053,1.64551.20023.16808-.0937.3688.0288.39556.25136.02792.23239-.16769.31504-.33927.38398-.5269.21172-1.05858.41141-1.58689.61958-.17406.06859-.37585.17246-.29568.38213.0594.15543.22519.30094.37965.38257.27277.14414.58124.22028.85596.3615.06811.03498.07832.20943.08523.32161.00234.03751-.08353.10649-.13748.11671-.18588.03522-.37663.04354-.56324.07599-.18978.03303-.3956.08474-.3704.33494.03006.29875.2733.38685.52306.45004.40777.27136.30604.98074.92985,1.0705.50535.29422.21697,1.17796.98575,1.29549-.15699.1277-.33251.02564-.50282.01766-.23842-.01635-.45427.05439-.64672.19965-.02321-.00005-.03853.05385-.04519.16166-.00632.10333.036.19785.12702.28352l-.00117-.00258c.0325,0,.06558.0413.09948.12391.03439.08348.00482.16881-.08868.25594l-.00039.00156c-.24397.43837.17426.54631.37945.76061.06159.01639.13203.01892.18306.05176.15416.09919.374.18048.43209.32385.07599.18739-.10415.33621-.29622.39643-.42435.1331-.85182.25628-1.27744.38539-.32618.099-.58411.26343-.54184.65874.03736.34876.24582.60061.5632.70354.29777.09666.62191.11189.93452.16292.24426.34871.75988.47621.83086,1.22631-.52822-1.03075-1.41969-.41516-2.03586-.79481-1.84161-.1224-2.14118.18973-1.8707,1.95895.02851.18642.05809.38111.13534.54991.18009.39351.26173.86491.73901,1.05079.19668.07667.56271-.02393.46449.36019-.0271.10639-.30351.20544-.46824.20992-.5179.01396-.82813.21473-.89707.75798-.02515.1979-.21595.35046-.40329.31149-.54476-.1132-.69581.12755-.56733.59691.11875.43389.12935.72106-.19352,1.17212-.8204,1.14585-1.72403,2.3492-1.1423,3.94028.02282.06227-.09929.24557-.17416.25905-.10362.01853-.24747-.045-.33757-.11826-.36257-.29505-.53644-.69445-.5809-1.15446-.13621-.12697-.27374-.25248-.43117-.35357-.11072.01065-.22091.00671-.33061-.01182-.5632.70252-.30901,1.54627-.39672,2.28027-.06198-.62109.20447-1.34925-.35785-1.92996l-.00628.0001c-.14084-.11121-.26742-.23779-.39341-.36496l.00049.00063c-.12629-.12099-.24144-.2519-.34671-.39147-.15042-.19396-.28196-.40704-.45495-.57823-.46799-.46318-.63159-.47597-1.05624-.04383-.16424.16715-.25029.41122-.37191.62026.36612.77729.70831,1.55075.93919,2.31539-.24844-.79087-.70904-1.56588-1.4049-2.29584-.96897-.0988-1.55196-.70077-2.10869-1.44975-.81047-1.09034-1.22033-1.13724-2.41979-.4604-.93919.52997-1.82755,1.15256-2.7794,1.65665-.6582.34846-1.00609.88904-1.39016,1.48692-.52802.8221-.42795,1.6946-.47743,2.56895-.74149.43326-1.2521-.16623-1.8419-.41171-.23414-.24518-.45286-.15956-.62498.06115-.37814.48502-.8744.71658-1.4768.74723-.24976.01275-.56855.0991-.70369-.13884-.14604-.25715.10761-.42499.31212-.57867.45291-.3401.89113-.69975,1.33538-1.05143.39351-.31144.34039-.79885.47271-1.21191.14346-.4479-.32307-.46113-.502-.68141-.26581-.32716-.60605-.63631-.43068-1.17173.5053.12663.99008.22558,1.45978.37264.41818.13091.55566.705,1.12634.72188.37109-.9138-.12853-1.68944-.42319-2.48897-.03459-.09384-.20354-.13393-.30278-.20885-.90324-.68156-.93759-.90519-.26888-1.74835.13023-.16419.49353-.1908.31714-.53693-.81111-.20802-1.43915-.06879-1.94937.69912-.36457.5487-.83446.41443-1.00326-.27919-.11783-.48395-.30488-.80103-.77175-.97349-.44128-.16302-.49154-.54495-.41988-.94061.04442-.24562.15835-.47801.23293-.71887.16759-.54179.06417-.8725-.6028-.78916-.36763.04592-.35255-.24776-.40256-.48818-.14234-.68423-.27068-1.38447-1.13836-1.53182-.43511.27496-.56261-.19746-.82589-.34-.09696-.00005-.19386-.00272-.29067-.00803-.5936.23429-1.19284.4587-1.79345.68063.57078-.47728,1.04325-1.0991,1.33261-1.92139.46391-.91025-.10897-1.42898-.7431-1.89834-.36705-.2717-.71011-.24368-.90723.24022-.02316.05687-.06047.12245-.11019.15086-.10265.05872-.23385.14949-.32336.12366-.07356-.02126-.17513-.2301-.14268-.29106.57648-1.08246.07827-1.77993-.81218-2.34828-.05259-.03362-.09807-.08236-.13782-.13135-.16706-.20607-.29378-.44182-.13344-.69046.37683-.5845.03186-.95306-.3668-1.30152-.34715-.30351-.35231-.62868-.15669-1.01893.10386-.20729.26221-.42839.1277-.68997-.05648-.0251-.12692-.08562-.16701-.06962-.35187.14015-.69795.2949-1.04651.44357-.82327.35119-1.40884.20865-1.89357-.60771-.19887-.33499-.39366-.62712-.68817-.87727-.39395-.33465-.93881-.4085-1.10966-.01056-.44941,1.04671-1.23527,1.16317-2.25716,1.25555-.92056.08314-1.90578-.06645-2.79715.41428-.64473.34778-.67236.29651-1.77102.11043-.6028.46347-1.12989-.41127-1.73069-.09681-.17922.09384-.48074.07939-.5092-.08528-.13237-.76528-.86287-.60177-1.29929-.87722-.1853-.117-.64507-.00452-.6854-.10951-.15606-.4065.33251-.42085.50949-.6405.07769-.09642.21741-.24844.1888-.30886-.31558-.66652.1763-1.04977.48492-1.50696.11661-.17275.05585-.40538-.11364-.49173-.70603-.35975-1.46415-.06125-1.58032.65889-.08543.52973-.16837.99636-.72466,1.23181-.31923.13514-.61165.70252-.95773.30201-.47509-.54991.2429-.69143.50691-.97344.08533-.09112.21517-.13972.30444-.22821.23808-.23604.10279-.4569-.06027-.65499-.20705-.25151-.45997-.47295-.80853-.3974-.34705.07526-.60328.05531-.77452-.30541-.22621-.47641-.64405-.55303-1.12542-.50725-.31509.03002-.63505.00861-.95282.01022-.45009-.27053-.06422,1.50322-.8725.35678-.14988-.57745-.23166-1.16555-.72539-1.61306-.30497-.27647-.54388-.28235-.80838-.04656-.31728.28274-.61447.35352-1.02.15772-.56534-.27301-1.2141-.40066-1.73162-.73731-.50847-.33076-1.00803-.47719-1.59215-.47972-.37493-.00156-.75652-.02719-1.12318-.10119-1.32254-.26683-1.33743-.28148-1.75687,1.07847-.11646.3776-.286.69756-.55045.97237-.2662.27661-.48244.56699-.58849.95126-.20189.73171-.68555,1.15325-1.44275,1.33548-.47505.11432-.22412.47101-.09997.74417.23657.28157.50496.37099.75127.38826-.44795.10678-.99105.24348-1.54598.02408-.40777-.09292-.78707-.51552-1.23745-.11953-.2502.21999-.48915.34992-.84871.2087-.71138-.27943-1.22067-.00355-1.58529.64181-.21765.3851-.44926.77102-.73244,1.108-.30113.35839-.51173.23516-.57594-.20578-.07827-.53741-.49339-.45612-.87153-.49319-.518-.05084-.6512.67372-1.12493.56538-.42071-.09623-.79413-.4318-1.21318-.49358-.49018-.07219-1.02773-.03882-1.50706.08946-.51114.13685-.9767.24377-1.47554.00306-.32005-.15441-.60907.01124-.90967.11753-.41837.14799-.84404.31169-1.27949.36705-.74888.09525-1.65539.02724-2.15933.50195-.56174.52919-.89254,1.39035-1.11,2.16687-.14011.5002-.20748.92304-.65606,1.26144-.33222.25058-.23623.66769-.15655,1.06091.39045,1.92592,1.46488,3.488,2.60567,5.02075.38456.51664.70617,1.09166,1.52637.65777.23813-.12595.40923.19143.59555.35756.44508.39677.56003.3797.78051-.16102.19362-.4748.30074-.99694.88033-1.15042.54957-.14555,1.10421-.28337,1.66497-.3704.33645-.05225.6117.12026.74383.46921-.74796.64453-1.89644.74606-2.38146,1.74767.27827.40514-.3543.77014-.05176,1.1763.05867.23823.0215.52209.28615.66555.10951.05935.23507.09292.35678.12512.19912.05264.34808.15728.34292.37692-.00559.23691-.19571.26766-.38354.32059-1.06514.30025-1.06685.30668-.48585,1.15957.21065.30921.66677.59944.5126.96644-.37931.90295.12906,1.88685-.37065,2.77764-.27403.48852-.38179,1.07458-.53649,1.6245-.126.44795.16467.78756.59496.70199.56028-.1114,1.11258-.26231,1.67144-.38169.50399-.10766.97879.26464.98687.79199.00277.1799-.1242.35805-.14925.54281-.09681.71449.30546,1.05687.98877.85061.33256-.10041.61457-.47714,1.02282-.18851.02719.48823-.36423.79092-.50258,1.20107-.2195.65047-.21809.96449.3903,1.28489.91657.48268,1.25181,1.37352,1.7897,2.13257.19916.28109.04164.45802-.07083.67869-.10046.19712-.0089.42572.18973.34448.57224-.23395,1.50439-.15961,1.24821-1.24324-.01182-.05006.02715-.14191.07083-.16993.14945-.09569.30439-.20632.47179-.24071.08708-.01795.24217.08776.30137.17966.17241.26756.29627.54787.16141.89016-.20943.53153-.37031,1.08251-.58689,1.61092-.18778.45812.034.67149.37639.93034.52652.39799.50234.43136.14351,1.02078-.03259.05351-.08275.09642-.12522.14385-.32341.36097-.19707.66828.07229,1.00545.34151.42757.84132.53406,1.29364.74767.07258.03425.12887.22412.10177.3149-.02836.09496-.15553.18258-.25929.22704-.11267.04821-.25832.01839-.37216.06509-.54466.22349-1.13583-.51815-1.6263.03576-.42075.47524.2283,1.08139-.12809,1.64824-.22193.35299.14799.53391.4857.60805.2862.0628.66132-.03148.76105.42474-.12381.33869-.23511.70058-.38622,1.045-.33105.75492-.95578,1.50132-.95462,2.25045.00136.89468-.42723,1.69859-.29534,2.61039.07487.51766-.13101,1.12372-.583,1.55926-.30925.29797-.11656.59146.14011.80167.24178.19805.53012.33859.79413.51027.68866.4479.68861.45612.10887,1.36545.21663.11807.41998.25958.64453.34584.88836.34107,1.94693.46935,2.63443,1.04461.85319.71396,1.77822.52277,2.66838.74597.67513.16929,1.36389.36773,1.97481.68949.85795.45179,1.68735.8797,2.69995.76401.31855-.03634.42095.18209.37911.48735-.03824.27919.10484.47466.32837.63403,1.77467,1.26475,3.07493,3.01446,4.59474,4.53845.98633.98911,1.78139,2.15145,2.37742,3.4306.93662,2.00998,2.0077,3.96309,2.601,6.11907.72004.27851.34832-.60275.72826-.68555.63271.3975,1.49324.66871,1.73356,1.36569.30648.88855.90023,1.1422,1.66307,1.28941.56631.10936,1.11428.25122,1.54549.65738.15733.14818.13227.33752-.06962.43331-.26961.12804-.73419-.03079-.81801.32181-.13028.54831-.6079.57453-.94138.83037-.68579.52603-1.77268.05979-2.25726.77297-.44595.65631-.00944,1.62211-.46293,2.36929-.09389.15475-.09837.36345-.1456.54685-.2645,1.02812-.55269,2.04515-.38831,3.13749.04072.27063-.18919.58202-.29471.87469-.59394.69333-.7682,1.58485-1.12488,2.3908-.08693.3329-.18277.66137-.37765.94946-.21536.51392-.95092.91536-.33557,1.60509l-.00837-.01664c.71892.30711.03172.56033-.03211.83742-.19985.15451-.46386.26922-.58864.47033-.60095.96833-1.16429,1.95992-1.74101,2.94324-.69591.50389-1.59755.63845-2.23595,1.24548-1.49008,2.12912-2.92359,4.30232-4.93756,6.27961.73011.27885,1.07273.8345,1.17893,1.5595.03357.22937.18413.50073.36739.63641.34584.25603.50448.5215.428.96143-.02739.15747.07798.38977.19907.51275.67932.68973,1.53041,1.05391,2.48211,1.13885.23687.02111.51771-.12682.72028.05327.26537.23609.2286.57156.15752.89055-.06762.30317.05901.46819.35318.53989.25526.06227.52462.1762.51499.47495-.02943.91721.56582,1.34735,1.24932,1.75546.32254.19255.23044.3902-.23862.56169-.47865.17503-.63884.43905-.47222.77953.02802.05726.0487.12264.09048.16788.43097.46614.57852,1.15427,1.14551,1.50614.37352.2319.32862.44595.09311.75346-.73234.95646-.71984.94849.49937,1.32799.47724.14852,1.10956.17075,1.34273.62979.26173.51528.73658.64643,1.09895.96702.93039.82302,1.83042,1.68171,1.73882,3.13491-.04933.7824.06169.77963.87138.89493,1.36219.19401,2.07439.89098,2.17889,2.18755.0412.5108.05954,1.0074.25243,1.49363.16711.42129.25788.92888.05283,1.30697-.29656.54661.16253,1.30756-.28702,1.61749-.77146.53196-.38354.9786-.16574,1.52521.03921.09822-.16146.31679-.28352.45053-.88841.97354-.88169.94683.41866,1.44294.51859.19785,1.17144.30439,1.40159.90402.50287,1.31009.79855,2.67305.77525,4.08496-.00243.14439-.19303.36019-.33898.40558-.13115.04077-.39278-.05964-.4731-.18024-.46016-.69085-.79413-1.4428-1.06471-2.23274-.22485-.6565-.50321-.74285-1.16794-.51066-.17941.06266-.34126.17708-.52146.23623-.28809.09452-.50798-.00331-.54155-.31991-.05045-.47607-.1709-.87654-.72821-.95676-1.05181.28566-.57429,1.04787-.42134,1.59798.39809,1.4318.90237,2.83325,1.52195,4.1897l.36632.5702c.25895.31115.57511.57156.90008.82769.00472.17343-.01406.34297-.0397.51163l.43039.67003,10.22874,31.61617,6.02635,7.64058c.79632.57453,1.68229.95617,2.70866.99212,3.06199.10732,6.03953.97768,9.11203.98522.6368.00156,1.26032-.00584,1.82853-.33995.49407-.06674,1.02764.0127,1.43623-.37974,3.53704-.51975,6.08584,1.71522,8.8702,3.24209.71493.39205,1.41886.78775,2.17154,1.09808.28303.29281.67285.15621,1.00662.24689,1.94085.71921,3.64494.49733,5.08375-1.13928.69839-.79437,1.43754-1.57108,2.32858-2.17125l-.00958.00788c.87668-.55731,1.9822-.41248,2.87051-.93584,1.98926.06548,3.94534.48857,5.95814.40636,1.17844-.04816,2.20365-.20612,3.05007-1.0561.14283.03162.26051.06538.385.09856.51212-.22612.99173-.53289,1.22714-1.03158.65616-1.38987,1.40359-2.68984,2.5995-3.70604.38631-.32832.5344-.87581.63184-1.37343.03357-.17148.07696-.33801.11437-.50759-.00983.14458-.02875.28547-.02646.43501-.1078.93423-.28289,1.95063.0612,2.78071.61719,1.48867-.0523,2.3349-1.10202,3.13861-2.29914,1.19766-3.06384,3.58092-4.22871,5.62111-.60766,1.06422-.13378,1.57463,1.08397,1.06583.2159-.12395.42037-.27661.6494-.36753,2.77818-1.10324,5.55568-2.20837,8.34437-3.28446.5451-.21035,1.06432-.3939,1.39006-.92752.13597-.22276.38009-.33995.65743-.21206.3111.14356.60299.11437.91541-.0162,1.52545-.63763,3.06389-1.24475,4.58253-1.89799.87065-.37454.85912-.40572.35484-1.2646-.13013-.22154-.27846-.45719-.13991-.70262.08411-.14911.26158-.26737.42372-.34088.07759-.03517.24591.03741.32049.11306.08202.08309.09671.22923.15256.34219.5144,1.0399.6025,1.11092,1.54943.743,1.36321-.52958,2.71591-1.09025,4.04978-1.68954,1.09287-.491,1.36584-1.09029,1.15106-2.3061-.06558-.37099-.22757-.72836-.26445-1.09993-.03157-.31825.07779-.7233.45257-.725.93623-.00423,1.35616-.52442,1.61029-1.33217.08528-.27102.39731-.31266.65052-.23103.17314.0558.31835.20184.47237.31266.25472.18326.51747.43744.82122.12512.24669-.2536.19085-.5956.10523-.90193-.04962-.17786-.16263-.3452-.27447-.49718-.37537-.50993-.03814-.57546.37118-.72981.57176-.21561.58981-.42567.17046-.74324-.10119-.07657-.21016-.14643-.32399-.20208-.69644-.34063-.69347-.80697-.36642-1.42519.14765-.279.27569-.59934.50209-.79982.62824-.55609.80201-1.10567.20753-1.79749-.09749-.1135-.11072-.39536-.04096-.54096.46449-.96926.02413-1.69567-.57268-2.40724-.32526-.38777-.63203-.79515-.90811-1.21907-.4247-.65217-.79724-1.36282-.46483-2.14843.41477-.98055.23229-1.90583-.22986-2.75361-.67533-1.23882-.78902-2.53479-.65981-3.88691.0988-1.03488-.08416-2.01694-.41414-2.99807-.4658-1.3851-.86744-2.79175-1.29423-4.18994-.58985-1.93244-.45612-3.75804.82074-5.40531.23351-.30123.46969-.61082.75385-.86058,1.24504-1.09409,2.05965-2.58636,3.39338-3.60801.38091-.29179.70569-.79398.82711-1.25944.26445-1.01392,1.04836-1.74261,1.34643-2.72759.18618-.6151.73157-.87717,1.31043-.9785.57258-.10021.70573.42693.93462.79311.25657.41039.61938.62838,1.11296.60328.07244-.01469.14482-.02943.21648-.04549.12799-.07536.24256-.16715.34005-.27909.00842-.01046.01498-.02223.0233-.03279.05614-.45607.30162-.81534.59161-1.15188l-.02593.01693c.11534-.15543.25127-.29043.4046-.40816l-.02413.0252c.1169-.15373.25175-.28931.40694-.40446l-.00545.01746c.6009-1.26494.84608-2.52273-.07647-3.75658-.64872-.83212-2.04019-1.35309-1.18151-2.81647.15076-.14351.45208-.12605.68063-.18355.11919-.13077.21463-.27948.27613-.45437-.00696-.0468-.00666-.08601-.02345-.14312-.35017-1.19066.51625-1.46114,1.27452-1.84224.35625.03113.66083-.0702.89623-.34919.11497-.15835.26529-.19639.44597-.13174,1.22763.22587,2.44188.2608,3.61658-.25428.27282-.21196.37663-.55274.6046-.79953l-.02496.02466c.11359-.15611.2482-.29111.40456-.40441l-.02218.02418c.91409-.29811,1.22719-1.01027,1.44606-1.78727-.04033-.17951-.11418-.36831-.24903-.57404-.05235-.31285-.20705-.73001.03683-.91531.82186-.62449,1.14254-1.82921,2.35684-2.00453.30147-.04354.57696-.26056.86681-.39249.42533-.19372.74266-.42265.73862-.98337-.00457-.62911.53172-.87498,1.02608-.9517.75102-.11656,1.52311-.13432,2.28572-.12892.71653.00506,1.39293-.09973,2.04048-.40767.92183-.43832,1.48901-1.18117,1.22597-2.11886-.22543-.80322-.10197-1.32234.46867-1.83816.56144-.50754.82074-1.07526.52681-1.87061-.2682-.72578.00472-1.28216.63636-1.81748.8255-.69965.82147-1.05483.2968-2.00195-.26941-.48628-.38967-1.1568-1.00754-1.33144-.66161-.18695-1.30809-.53313-2.04413-.36126-.27763.0648-.57764.35805-.85139-.01206-.1475-.1995.3075-.43866.87226-.44751.37999-.00594.76153-.02213,1.13802-.0685.0936-.01158.2122-.14497.24339-.24582.02972-.09647-.00375-.29271-.0701-.32677-1.34876-.69192-2.65427-1.56018-4.30577-.95749-.34516.12595-.76114.13033-1.13476.09292-1.55425-.15562-2.869.40781-4.096,1.27978-.31105.22101-.61481.46877-.95783.62576-2.87684,1.31622-4.71645,3.83539-6.90497,5.94656-.26265.25336-.40704.64337-.5648.98891-1.14575,2.5093-2.74218,4.74345-4.35184,6.95494-1.16492,1.60046-2.21542,3.26544-3.25921,4.94019-.34248.54943-.59287,1.11618-.54369,1.7933.04354.59861-.09501,1.15072-.66589,1.48259-.38028.22106-.47806.56942-.48609.96965-.01022.50998-.03624,1.02014-.02695,1.52973.01708.93608-.17625,1.76207-.99519,2.35455-.24835.17971-.45928.45033-.60751.72281-1.26329,2.32186-3.02327,4.24019-4.88327,6.08127-.45286.44829-.94124.87804-1.30955,1.39084-.87148,1.21347-1.32643,2.61015-1.3634,4.09065-.02063.82521.68603,1.70423-.27778,2.42972-.05648.04247-.03897.25783.01284.35698.26236.50263.05356.97811-.00326,1.48162-.14925,1.32249-.39166,2.65958.05638,3.97769.17056.5018.14667.9965.00146,1.50195-.15796.54991-.33256,1.10192-.41419,1.66546-.19766,1.36496-.8113,2.70341-.24621,4.1265.14872.37439-.11865.73731-.28697,1.08003-.57662.34277-.689,1.05624-1.15378,1.48784.24514-.48332.49018-.96673.73521-1.45014-.851-.11962-1.11301.47724-1.26037,1.11369-.07044.30478.23944.36111.49956.35999-.02355.02072-.04354.04437-.06898.06358-.45019.8276-1.02131,1.55459-1.6496,2.23405.19863-.39059.36014-.80502.48001-1.23283.3255-1.16181.77379-2.26602,1.24699-3.36677.40139-.68992.40704-1.45223.44566-2.22033.07662-1.5217-.13062-3.05786.27433-4.56725.09141-.34088.01815-.77627-.11194-1.11759-.54753-1.43652-.65684-2.9807-1.11511-4.4269-.28138-.88826-.09321-1.47821.55964-2.01684.47047-.38816.74519-.84443.69625-1.48483-.12337-1.61375.69698-2.95453,1.37323-4.30392.65422-1.30542,1.43477-2.55776,2.26027-3.76476,1.11053-1.62367,1.97875-3.42665,3.47073-4.77824.42095-.38135.85221-.78114.9299-1.4032.08246-.66093-.41458-1.02559-.73604-1.4896-.56787-.81996-.58762-1.21702.11851-2.02686.40718-.46702.5414-.87581.18953-1.34477-.75881-1.01124-.56714-1.73308.38227-2.56977.56694-.49966,1.12916-1.36292.76562-2.23255-.44289-1.0595-.1512-1.68424.8114-2.15734.21731-.10678.35722-.36102.55429-.52073.42596-.34516.43676-.61452.05599-1.0702-.40348-.48288.43691-.70753.4335-1.11895-.00832-1.00429.70593-1.42592,1.39965-1.88175.85075-.55906,1.72855-1.07662,2.45273-1.81257.5108-.51922.63247-1.08781.33844-1.74188-.33908-.75428-.63519-1.53693-1.06004-2.24086-.38296-.63451-1.11919-1.15412-.13899-1.87781.08105-.05989.01605-.35197-.01936-.52851-.08732-.43584-.14838-.88612-.30857-1.29598-.25496-.65217-.15232-1.10781.53075-1.3798.30454-.12123.66832-.35177.53513-.67513-.30916-.75025.35386-1.45525-.03206-2.23113-.22329-.44887.35464-.86433.79846-.54797.95204.67864,1.66492.32458,2.35869-.36773.5413-.54019,1.07628-1.08689,1.61287-1.63184.89429-.90821,1.77565-1.82969,2.68721-2.72014.36175-.35338.74777-.72918,1.19586-.93749,1.11812-.51995,2.12275-1.13403,2.79496-2.2161.20262-.32618.54914-.49275.99451-.36106.75438.22315,1.44863-.03055,1.84876-.64064.76932-1.1729,1.86881-1.65724,3.17602-1.87819.43389-.07341.85221-.25881,1.26674-.421.66925-.26177,1.23668-.64064,1.53776-1.34268.53337-1.24392,1.58018-2.01261,2.70876-2.60047,1.19318-.62152,2.32366-1.3114,3.37733-2.14007.73069-.57473,1.5075-.93501,2.47384-.59156.43802.15567.73191-.06198.82161-.51897.0487-.24796.02948-.52116.13004-.74241.05935-.13047.28527-.21755.45165-.25399.09034-.0198.24407.08333.31378.17367.11272.14599.20145.32001.25983.49562.05959.17912.06008.37697.10542.56198.04583.18705.12035.39774.35615.36554.17192-.0235.41526-.09608.48288-.22324.79797-1.50103,1.76382-2.9215,2.24656-4.57698.15071-.51703.35834-.63057.79568-.4336.87688.39487.89123.40251,1.36642-.26649.4768-.67134.84385-1.43569,1.61379-1.84745.7195-.38476,1.22597-.8636.88213-1.78168-.02029-.05415.1511-.18009.23336-.27267.04578,0,.09083-.03882.13563-.11607.045-.07754.0001-.15499-.13534-.23263-.27277-.16808-.57239-.34958-.53624-.71104.03201-.32083.23108-.57959.54865-.71313.05774-.02428.11982-.04962.18092-.05264.8579-.04184,1.04223-.60182.96999-1.30994-.15976-1.56515.24261-3.15535-.22067-4.70867-.04685-.15728-.01124-.40563.08864-.52802.33864-.41492.31281-.76051-.02744-1.16657-.31821-.37979-.39959-.79359.126-1.11219.30434-.18452.18272-.40786.03824-.62405-.10425-.15616-.27574-.35391-.12814-.50321.599-.60586.13724-.97982-.22894-1.43409-.4766-.59131-.4444-.60902.15275-1.38296.2301-.29826.38456-.66993.65611-.9175.36427-.33207.02734-.76479.20695-1.04131.28264-.4352.69849.16219,1.02691-.00272.45427-.22811.80157-.5667.9983-1.0758.2877-.74426.19479-1.46732.01781-2.20263ZM125.18531,125.69884c-.49738.91331-1.09005,1.78703-1.55089,2.7144.70437-1.92796,1.72252-3.70079,3.12334-5.28734-.47651.88593-1.09059,1.68832-1.57244,2.57293ZM128.58769,120.01731c.62785-.88184,1.37245-1.67047,2.31024-2.31432-.81378.73512-1.61258,1.48269-2.31024,2.31432Z" fill="#264898"/>
</svg>