<?xml version="1.0" encoding="UTF-8"?>
<svg id="Layer_1" xmlns="http://www.w3.org/2000/svg" version="1.1" viewBox="0 0 200 100">
  <!-- Generator: Adobe Illustrator 29.6.0, SVG Export Plug-In . SVG Version: 2.1.1 Build 207)  -->
  <path d="M153.21338,31.10154c-1.43433-.06189-2.87384-.06879-4.30151-.20215-1.25305-.117-2.47809-.33356-3.55194-1.15234-.95941-.73157-2.17078-1.03589-3.33398-1.24005-1.76019-.30896-3.48145-.16016-5.01678.97803-1.21613.90161-2.50714,1.70306-3.77344,2.53595-.73169.4812-1.45441,1.00104-2.39679.96741-.24713.07904-.43365.23529-.57367.45068l.00806-.0105c-1.04614.70319-1.79919,1.81915-3.08374,2.19983-.19287-.18982-.3869-.38361-.70337-.25848-.21667.08502-.46051.2774-.64386.23102-.31116-.07892-.13586-.35498-.04437-.53491.21649-.4259.45264-.84192.68604-1.25909,1.46075-2.61108,1.36578-5.16992-.27222-7.66693-.43732-.66675-.92957-1.2973-1.36902-1.96259-.66034-.99969-1.36847-2.00934-1.58411-3.19751-.50232-2.76794-1.80585-5.26923-2.539-7.95844-.33441-1.22656-.79919-2.41895-1.2345-3.61609-.18921-.52032-.38867-1.05786-.69879-1.50824-.42761-.62115-.98645-.85431-1.84442-.71497-2.19659.35681-4.42596.50623-6.63177.81342-1.29901.18097-2.19385-.31329-2.73749-1.42548-.44556-.91132-.9502-1.61365-2.0741-1.73529-.37201-.04022-.59991-.50244-.37421-.95782.10571-.21326.22205-.42468.36041-.61768.23987-.33466.42529-.68115.28479-1.10223-.1134-.33978-.45679-.39648-.72223-.55933-.2616-.16034-.57812-.47894-.24878-.74805.59564-.48676.92542-.88702.6604-1.77533-.13647-.45721.01282-1.26465.57745-1.70667.55664-.43579.59216-1.07904.75024-1.69977.53845-2.11359.29138-4.28174.51099-6.41504-.00525-.00897-.01318-.01245-.01862-.02106-.23279-.36725-.63995-.38464-1.00439-.48785-1.2182-.58453-2.42731.1969-3.64203.02448-1.42377.14789-2.85333.23035-4.28174.32733-13.3194.55768-39.58716,1.50171-48.32587.69916-.00549.00024-.02972.00049-.02637.00073l-5.6853,154.99017s12.21021.45831,17.85474.37909c4.39886.01483,8.79773.00439,13.1972-.12457,7.09576-.20813,14.19598-.24561,21.28577-.6651,3.82166-.22614,7.64752-.37903,11.47107-.57355.86365-.04395.88641-.05939.93933-1.14404.02161-.44269.11469-.77228.57019-.90356.15247-.04395.31299-.05908.46844-.09375,1.74799-.38977,1.79144-.38861,1.8446-2.04059.02417-.74872.27185-1.39484.53802-2.05731.10858-.45465.00073-.68665-.51422-.50006-1.97968.2655-2.32404-.01202-2.38678-1.92322v-41.55994l42.987-57.87628c.80994-1.55707,1.60736-3.12268,3.11743-4.1972l.00049-.00067-.02936-.02106c-.7536-.51733-1.67023.00677-2.44391-.38251Z" fill="#264898"/>
</svg>