<?xml version="1.0" encoding="UTF-8"?>
<svg id="Layer_1" xmlns="http://www.w3.org/2000/svg" version="1.1" viewBox="0 0 1000 312">
  <!-- Generator: Adobe Illustrator 29.5.1, SVG Export Plug-In . SVG Version: 2.1.0 Build 141)  -->
  <g>
    <path d="M65.59834,175.66655c18.66131,24.81174,37.90374,50.4619,57.24922,96.79493,5.95966-19.72899,11.93366-42.77028,15.85317-66.09332-50.30211-59.44492-71.16889-119.81599-62.86092-182.8054-25.03023,15.26618-45.37035,37.44164-58.42191,63.86273,3.04876,29.01773,31.73783,66.32276,48.18044,88.24107Z" fill="#ff9d1d"/>
    <path d="M105.87877,260.38106c-7.08809.82751-67.23526-12.76788-86.72107-32.50271,19.25483,36.66811,52.75184,64.66039,93.15684,76.6371.01708-.04812.03418-.09629.0513-.14452,3.6975-10.42055,3.19975-21.87522-1.1544-32.03892-1.78222-4.16016-3.55936-8.13724-5.33267-11.95096Z" fill="#ff9d1d"/>
    <path d="M140.8211,192.14716c2.29287-21.16358,5.53115-43.11829,9.77971-59.45764-21.09058-27.58284-36.8224-92.41655-5.90487-131.21549-20.32577,1.5213-39.55614,6.9419-56.94203,15.55087-10.24474,60.33944,7.35541,118.17436,53.06719,175.12225Z" fill="#ff9d1d"/>
    <path d="M254.63961,90.37286c15.1154,20.01186,47.35177,75.54022,49.77707,111.64727,12.08061-37.22519,8.03093-82.43604-9.9408-116.41858-9.88569-.65287-25.206-.42623-39.83627,4.77131Z" fill="#124295"/>
    <path d="M154.56891,118.81811c15.80635-60.89323,70.07788-78.53287,119.93176-63.15996C246.53252,22.76118,205.08267,1.7134,158.6792,1.0452c-30.92284,31.47813-22.37746,88.57361-4.11029,117.77291Z" fill="#124295"/>
    <path d="M182.48652,225.09957c14.06399-84.17067,27.16994-154.22777,105.82556-150.48792-.92941-1.50369-1.881-2.99238-2.85998-4.46118-47.20365-19.78253-110.7551-8.47473-123.24504,60.28335.05968.07631.12099.16958.18066.24523l-.30524.24067c-10.14771,50.44338-21.11233,136.30389-39.38656,176.27733,3.93288.873,7.91795,1.60283,11.95747,2.17059,11.01142-8.10448,38.05114-32.68207,47.83313-84.26807Z" fill="#ff9d1d"/>
    <path d="M44.84211,231.90875c24.6014,11.17415,44.55605,15.41195,55.48432,17.01934C72.98016,191.79719,31.51402,162.51637,10.33447,104.19927c-14.08373,45.61079-18.82532,102.57003,34.50763,127.70948Z" fill="#124295"/>
    <path d="M209.97562,147.3625c-20.57732,49.3015-4.47162,106.29454-60.14312,163.39045,32.76551,1.5482,64.89429-7.86591,90.67319-24.66401,9.72068-53.98291-17.94778-114.73846-30.53007-138.72645Z" fill="#124295"/>
    <path d="M244.69489,94.80861c-14.58872,8.07422-23.04184,20.5539-30.10026,38.72032,15.16208,20.04783,46.39047,108.06721,37.88613,143.9729,76.10025-47.41905,28.21919-132.32792-7.78587-182.69322Z" fill="#ff9d1d"/>
  </g>
  <g>
    <g>
      <path d="M424.37747,60.57814l-14.63519,110.57641h-43.67567l-16.61546-110.57641h30.32583c3.52164,30.45645,6.04009,56.23131,7.54488,77.31414,1.48912-21.3075,3.06184-40.22718,4.73384-56.75381l1.99595-20.56032h30.32583Z" fill="#ff9d1d"/>
      <path d="M457.97937,60.57814v110.57641h-28.75311V60.57814h28.75311Z" fill="#ff9d1d"/>
      <path d="M530.44471,94.04418h-26.70491v-8.19801c0-3.82469-.34485-6.25953-1.0241-7.30453-.68447-1.05022-1.82352-1.57272-3.41714-1.57272-1.72947,0-3.04094.70537-3.92397,2.12134-.88825,1.41075-1.33247,3.55299-1.33247,6.42151,0,3.69407.49647,6.47376,1.49444,8.33908.95617,1.87055,3.66272,4.12251,8.12486,6.76113,12.80122,7.59713,20.86337,13.83054,24.18647,18.70023,3.32309,4.87491,4.98454,12.72807,4.98454,23.56469,0,7.87928-.9195,13.68424-2.76392,17.41488-1.84442,3.73587-5.40786,6.86563-10.69032,9.39453-5.28246,2.52367-11.42705,3.78812-18.43898,3.78812-7.69641,0-14.26422-1.45777-19.70343-4.36809-5.44444-2.91554-9.00788-6.62528-10.69032-11.13445s-2.52889-10.90455-2.52889-19.19138v-7.24183h26.70491v13.45434c0,4.14341.3762,6.80816,1.1286,7.99423.7524,1.18085,2.08477,1.7765,3.99712,1.7765s3.33354-.7524,4.26881-2.25719c.93005-1.49957,1.4003-3.73064,1.4003-6.69321,0-6.51033-.88825-10.7687-2.66474-12.76987-1.82352-2.00117-6.30656-5.35039-13.45434-10.04243-7.14778-4.73384-11.88685-8.17188-14.20674-10.3089-2.31989-2.14224-4.24791-5.09959-5.77361-8.88248-1.5257-3.77767-2.28332-8.60555-2.28332-14.47844,0-8.4697,1.07635-14.66131,3.23949-18.57483,2.16314-3.91874,5.65866-6.98058,10.48655-9.18553,4.82266-2.21017,10.65375-3.31264,17.48281-3.31264,7.46651,0,13.83054,1.20697,19.0921,3.61569,5.25634,2.41394,8.7414,5.45489,10.44997,9.1176,1.70335,3.66794,2.56024,9.89613,2.56024,18.67933v4.37331Z" fill="#ff9d1d"/>
      <path d="M570.59874,60.57814v110.57641h-28.75311V60.57814h28.75311Z" fill="#ff9d1d"/>
      <path d="M647.85018,125.32618c0,11.10832-.26125,18.97715-.78897,23.59604-.5225,4.62411-2.16314,8.8459-4.91671,12.67059s-6.47376,6.76113-11.1658,8.80933-10.15215,3.07229-16.39079,3.07229c-5.91991,0-11.23372-.96662-15.94666-2.89987-4.71294-1.93847-8.50628-4.83834-11.3748-8.71005-2.86852-3.87172-4.57186-8.08306-5.12049-12.63402s-.82032-12.52429-.82032-23.90432v-18.91968c0-11.10832.26125-18.97715.78375-23.59604.52772-4.62411,2.16314-8.8459,4.92194-12.67059,2.75357-3.82469,6.47376-6.76113,11.1658-8.80933,4.68681-2.0482,10.15215-3.07229,16.39079-3.07229,5.91991,0,11.23372.96662,15.94666,2.89987,4.71294,1.93847,8.50628,4.83834,11.3748,8.71005s4.57186,8.08306,5.12049,12.63402c.5434,4.55096.82032,12.52429.82032,23.90432v18.91968ZM619.09707,88.99162c0-5.14661-.28737-8.43835-.8569-9.87-.56952-1.43687-1.73992-2.15269-3.51642-2.15269-1.49957,0-2.65429.57997-3.44849,1.74515-.79942,1.15995-1.19652,4.58754-1.19652,10.27755v51.63332c0,6.42151.26125,10.38205.78897,11.88162.5225,1.5048,1.73992,2.25719,3.65227,2.25719,1.95415,0,3.20814-.86735,3.75677-2.59682.5434-1.72947.82032-5.85199.82032-12.36232v-50.813Z" fill="#ff9d1d"/>
      <path d="M722.77117,60.57814v110.57641h-25.20001l-14.95914-50.2696v50.2696h-24.04017V60.57814h24.04017l16.11909,49.7889v-49.7889h24.04006Z" fill="#ff9d1d"/>
      <path d="M734.31327,60.57814h47.94448v22.12782h-19.19138v20.96787h17.96351v21.0358h-17.96351v24.31709h21.10372v22.12782h-49.85683V60.57814Z" fill="#ff9d1d"/>
      <path d="M821.18913,60.57814v88.44858h17.48281v22.12782h-46.23591V60.57814h28.75311Z" fill="#ff9d1d"/>
      <path d="M874.38995,60.57814v110.57641h-28.75311V60.57814h28.75311Z" fill="#ff9d1d"/>
      <path d="M943.85616,60.57814v22.12782h-17.07526v88.44858h-28.75311v-88.44858h-17.00733v-22.12782h62.8357Z" fill="#ff9d1d"/>
      <path d="M950.40829,60.57814h47.94448v22.12782h-19.19138v20.96787h17.96351v21.0358h-17.96351v24.31709h21.10372v22.12782h-49.85683V60.57814Z" fill="#ff9d1d"/>
    </g>
    <g>
      <path d="M371.68721,191.29015h8.15905l22.23075,60.96503h-8.60409l-5.55769-15.59755h-24.56721l-5.55769,15.59755h-8.33918l22.23605-60.96503ZM385.31387,229.30389l-9.68489-27.70367-9.6796,27.70367h19.36449Z" fill="#124295"/>
      <path d="M407.43867,229.21382v-14.88231c0-16.04789,7.44381-24.11687,22.77116-24.11687,14.34721,0,21.69565,6.99347,22.23605,21.16054h-7.88884c-.45034-9.41469-5.02258-13.8068-14.34721-13.8068-10.22,0-14.70218,5.19742-14.70218,16.94327v14.52204c0,11.74585,4.48218,16.94327,14.70218,16.94327,9.32463,0,13.89687-4.39211,14.34721-13.71674h7.88884c-.5404,14.07701-7.88884,21.07047-22.23605,21.07047-15.32735,0-22.77116-8.06898-22.77116-24.11687Z" fill="#124295"/>
      <path d="M479.59325,191.29015h8.15905l22.23075,60.96503h-8.60409l-5.55769-15.59755h-24.56721l-5.55769,15.59755h-8.33918l22.23605-60.96503ZM493.21992,229.30389l-9.68489-27.70367-9.6796,27.70367h19.36449Z" fill="#124295"/>
      <path d="M519.01628,191.29015h20.98041c15.95782,0,23.12613,7.44381,23.12613,23.66653v13.63197c0,16.22273-7.16831,23.66653-23.12613,23.66653h-20.98041v-60.96503ZM539.00595,244.90144c11.47565,0,16.04789-4.66231,16.04789-16.40286v-13.45183c0-11.74055-4.57225-16.40286-16.04789-16.40286h-11.92069v46.25756h11.92069Z" fill="#124295"/>
      <path d="M576.91373,191.29015h39.89456v7.35374h-31.82558v18.73402h27.3434v7.35374h-27.3434v20.1698h32.72096v7.35374h-40.78994v-60.96503Z" fill="#124295"/>
      <path d="M629.15812,191.29015h12.10082l18.37905,47.87347,18.37905-47.87347h12.01605v60.96503h-8.06898v-50.5649l-19.54463,50.5649h-5.82789l-19.63469-50.74503v50.74503h-7.79878v-60.96503Z" fill="#124295"/>
      <path d="M718.96062,226.25749l-21.60558-34.96734h9.41469l16.49293,26.62816,16.40816-26.62816h8.96436l-21.60558,34.96734v25.99769h-8.06898v-25.99769Z" fill="#124295"/>
    </g>
  </g>
</svg>