<?xml version="1.0" encoding="UTF-8"?>
<svg id="Layer_1" xmlns="http://www.w3.org/2000/svg" version="1.1" viewBox="0 0 1000 1000">
  <!-- Generator: Adobe Illustrator 29.5.1, SVG Export Plug-In . SVG Version: 2.1.0 Build 141)  -->
  <path d="M208.75496,563.29397c60.01348,79.79284,121.89583,162.28202,184.10958,311.28585,19.16585-63.44708,38.37784-137.54628,50.98272-212.55159C282.07913,470.85744,214.97297,276.7082,241.69085,74.13858c-80.4955,49.09498-145.90793,120.40976-187.88088,205.37817,9.8046,93.31903,102.0667,213.28945,154.94498,283.77723Z" fill="#ff9d1d"/>
  <path d="M338.29405,835.73005c-22.7948,2.66122-216.224-41.06061-278.88902-104.52649,61.9222,117.92213,169.64632,207.9434,299.58603,246.45967.05494-.15474.10993-.30966.16496-.46476,11.89092-33.51178,10.29019-70.3492-3.71247-103.03497-5.73151-13.3788-11.44665-26.16881-17.14952-38.43346Z" fill="#ff9d1d"/>
  <path d="M450.66621,616.29448c7.37372-68.06063,17.78781-138.66546,31.45086-191.21169-67.82586-88.70451-118.41833-297.20528-18.98966-421.98002-65.36628,4.8924-127.20983,22.32467-183.12166,50.01054-32.94638,194.04751,23.65448,380.04064,170.66045,563.18118Z" fill="#ff9d1d"/>
  <path d="M816.69874,288.99532c48.61008,64.35679,152.28005,242.93218,160.07965,359.04997,38.85042-119.71367,25.82692-265.10867-31.96895-374.39418-31.79171-2.09959-81.06078-1.37071-128.1107,15.34421Z" fill="#124295"/>
  <path d="M494.87823,380.4733c50.83214-195.82845,225.36565-252.55633,385.69233-203.11812C790.6269,71.56076,657.32699,3.87255,508.09663,1.72367c-99.44572,101.23151-71.96439,284.84665-13.2184,378.74963Z" fill="#124295"/>
  <path d="M584.65934,722.26719c45.22881-270.68709,87.37667-495.98595,340.32775-483.95885-2.98893-4.83577-6.04917-9.6233-9.19751-14.34685-151.80372-63.61926-356.18082-27.25414-396.3476,193.86712.19192.24541.38909.54535.58101.78866l-.98163.77398c-32.63434,162.22245-67.8958,438.34397-126.66448,566.89584,12.64789,2.80749,25.46357,5.15459,38.4544,6.98046,35.41198-26.06345,122.36986-105.1033,153.82807-271.00034Z" fill="#ff9d1d"/>
  <path d="M142.00433,744.16502c79.1164,35.93531,143.28921,49.56377,178.43376,54.73304C232.49437,615.16901,99.14213,521.00388,31.03014,333.46008c-45.29233,146.68118-60.54093,329.85818,110.97418,410.70494Z" fill="#124295"/>
  <path d="M673.06239,472.2701c-66.17525,158.55024-14.38041,341.83597-193.41616,525.45251,105.37163,4.9789,208.69561-25.29624,291.59878-79.31776,31.26104-173.60533-57.71882-368.99104-98.18262-446.13475Z" fill="#124295"/>
  <path d="M784.71721,303.26037c-46.91633,25.96615-74.10099,66.09993-96.80037,124.52189,48.76022,64.47245,149.18858,347.53676,121.8392,463.00699,244.73319-152.49642,90.75098-425.55754-25.03883-587.52888Z" fill="#ff9d1d"/>
</svg>