<?xml version="1.0" encoding="UTF-8"?>
<svg id="Layer_1" xmlns="http://www.w3.org/2000/svg" version="1.1" viewBox="0 0 1000 312">
  <!-- Generator: Adobe Illustrator 29.5.1, SVG Export Plug-In . SVG Version: 2.1.0 Build 141)  -->
  <g>
    <g>
      <path d="M423.84146,60.93165l-14.61667,110.43641h-43.62036l-16.59442-110.43641h30.28741c3.51718,30.41789,6.03244,56.16012,7.53534,77.21624,1.48724-21.28052,3.05798-40.17625,4.72784-56.68196l1.99341-20.53429h30.28745Z" fill="#fff"/>
      <path d="M457.40079,60.93165v110.43641h-28.71671V60.93165h28.71671Z" fill="#fff"/>
      <path d="M529.77441,94.35533h-26.67111v-8.18763c0-3.81985-.34442-6.25161-1.0228-7.29528-.68362-1.04889-1.8212-1.57073-3.41281-1.57073-1.72729,0-3.03708.70448-3.91901,2.11866-.88712,1.40896-1.33078,3.54849-1.33078,6.41338,0,3.68939.49585,6.46556,1.49255,8.32852.95496,1.86818,3.65808,4.1173,8.11456,6.75257,12.78503,7.58751,20.83698,13.81303,24.15582,18.67655,3.31891,4.86874,4.97821,12.71195,4.97821,23.53486,0,7.86931-.91833,13.66692-2.76044,17.39284-1.8421,3.73114-5.401,6.85693-10.67682,9.38263-5.27576,2.52048-11.41257,3.78333-18.41565,3.78333-7.68665,0-14.24615-1.45593-19.67847-4.36256-5.43753-2.91185-8.99646-6.6169-10.67679-11.12035s-2.5257-10.89075-2.5257-19.16708v-7.23267h26.67111v13.43732c0,4.13817.37573,6.79955,1.12717,7.98412.75146,1.17935,2.08212,1.77425,3.99203,1.77425s3.32932-.75145,4.2634-2.25433c.92886-1.49767,1.39853-3.72592,1.39853-6.68472,0-6.50209-.88712-10.75507-2.66138-12.75369-1.8212-1.99864-6.29858-5.34361-13.43732-10.02971-7.13873-4.72785-11.8718-8.16153-14.18875-10.29585-2.31696-2.13953-4.24255-5.09313-5.7663-8.87123-1.52377-3.77288-2.28043-8.59466-2.28043-14.46011,0-8.45898,1.07498-14.64275,3.23538-18.55131,2.1604-3.91378,5.65149-6.97175,10.47327-9.1739,4.81656-2.20737,10.64026-3.30845,17.46066-3.30845,7.45706,0,13.81302,1.20544,19.06793,3.61111,5.24969,2.41089,8.73035,5.44798,10.43677,9.10606,1.70117,3.6633,2.55701,9.8836,2.55701,18.65568v4.36778l.00012-.00004Z" fill="#fff"/>
      <path d="M569.87762,60.93165v110.43641h-28.71667V60.93165h28.71667Z" fill="#fff"/>
      <path d="M647.03125,125.59772c0,11.09425-.26093,18.95312-.78796,23.56616-.52185,4.61826-2.1604,8.8347-4.91046,12.65456s-6.46558,6.75256-11.15167,8.79817-10.13928,3.06841-16.37006,3.06841c-5.91241,0-11.21948-.96539-15.92645-2.89619-4.70697-1.93602-8.49548-4.83221-11.36041-8.69904-2.86487-3.86681-4.5661-8.07281-5.11401-12.61803s-.81927-12.50844-.81927-23.87405v-18.89573c0-11.09426.26093-18.95313.78278-23.56617.52704-4.61826,2.1604-8.8347,4.91571-12.65455,2.75006-3.81985,6.46558-6.75257,11.15167-8.79818,4.68091-2.0456,10.13928-3.0684,16.37006-3.0684,5.91241,0,11.21948.9654,15.92645,2.8962,4.70697,1.93602,8.49548,4.83221,11.36041,8.69903s4.5661,8.07282,5.11401,12.61802c.54272,4.5452.81927,12.50844.81927,23.87405v18.89573l-.00006.00002ZM618.31451,89.30916c0-5.1401-.28699-8.42767-.85583-9.85751-.56879-1.43505-1.73773-2.14997-3.51196-2.14997-1.49768,0-2.65094.57924-3.44415,1.74294-.7984,1.15848-1.19501,4.58173-1.19501,10.26454v51.56795c0,6.41338.26093,10.36891.78796,11.86658.52185,1.50288,1.73773,2.25433,3.64764,2.25433,1.95166,0,3.2041-.86626,3.75201-2.59354.54272-1.72728.81927-5.84457.81927-12.34666v-50.74867s.00006.00002.00006.00002Z" fill="#fff"/>
      <path d="M721.85736,60.93165v110.43641h-25.16809l-14.94019-50.20596v50.20596h-24.0097V60.93165h24.0097l16.09869,49.72587v-49.72587h24.00964-.00006Z" fill="#fff"/>
    </g>
    <g>
      <path d="M733.38483,60.93165h47.88379v22.09981h-19.16705v20.94133h17.94073v21.00917h-17.94073v24.28629h21.07703v22.09981h-49.7937V60.93165h-.00006Z" fill="#fff"/>
      <path d="M820.15076,60.93165v88.3366h17.46069v22.09981h-46.17737V60.93165h28.71667Z" fill="#fff"/>
      <path d="M873.28418,60.93165v110.43641h-28.71667V60.93165h28.71667Z" fill="#fff"/>
      <path d="M942.66248,60.93165v22.09981h-17.05365v88.3366h-28.71667v-88.3366h-16.98578v-22.09981h62.75616-.00006Z" fill="#fff"/>
      <path d="M949.2063,60.93165h47.88379v22.09981h-19.16705v20.94133h17.94073v21.00917h-17.94073v24.28629h21.07703v22.09981h-49.7937V60.93165h-.00006Z" fill="#fff"/>
    </g>
    <g>
      <path d="M366.71774,191.48212h8.04932v60.83237h-8.04932v-60.83237Z" fill="#fff"/>
      <path d="M391.24445,191.48212h9.57175l28.0014,46.24892v-46.24892h7.77979v60.83237h-7.86719l-29.70596-49.02429v49.02429h-7.77979v-60.83237Z" fill="#fff"/>
      <path d="M463.47699,198.90497h-17.98529v-7.42285h44.0126v7.42285h-17.978v53.40953h-8.04932v-53.40953Z" fill="#fff"/>
      <path d="M498.3913,191.48212h39.80945v7.33543h-31.76016v18.69916h27.28751v7.33543h-27.28751v20.12691h32.65616v7.33543h-40.70544v-60.83237Z" fill="#fff"/>
      <path d="M550.57703,191.48212h23.34662c13.86957,0,19.59515,5.27394,19.59515,18.07269,0,10.37305-3.75879,15.82909-12.61664,17.53365l14.85297,25.22603h-9.30225l-14.49603-24.69426h-13.33051v24.69426h-8.04932v-60.83237ZM573.20984,220.28481c9.12738,0,12.2597-2.9502,12.2597-10.72998,0-7.78706-3.13232-10.73727-12.2597-10.73727h-14.58344v21.46725h14.58344Z" fill="#fff"/>
      <path d="M607.06061,191.48212h9.57178l28.0014,46.24892v-46.24892h7.77979v60.83237h-7.86719l-29.70593-49.02429v49.02429h-7.77979v-60.83237h-.00006Z" fill="#fff"/>
      <path d="M683.67108,191.48212h8.14398l22.18842,60.83237h-8.58838l-5.55072-15.56685h-24.51215l-5.54346,15.56685h-8.31885l22.18109-60.83237h.00006ZM697.27112,229.41222l-9.65918-27.64445-9.66644,27.64445h19.32562Z" fill="#fff"/>
      <path d="M727.62543,198.90497h-17.98529v-7.42285h44.01257v7.42285h-17.97803v53.40953h-8.04932v-53.40953h.00006Z" fill="#fff"/>
      <path d="M762.53973,191.48212h8.04932v60.83237h-8.04932v-60.83237Z" fill="#fff"/>
      <path d="M784.47321,229.14268v-14.48875c0-16.1059,7.77979-24.24991,23.61615-24.24991s23.61615,8.14401,23.61615,24.24991v14.48875c0,16.1059-7.77979,24.24261-23.61615,24.24261s-23.61615-8.13672-23.61615-24.24261ZM823.65619,229.14268v-14.48875c0-11.63326-4.82959-16.91447-15.56683-16.91447s-15.56683,5.28122-15.56683,16.91447v14.48875c0,11.63326,4.82959,16.9072,15.56683,16.9072s15.56683-5.27394,15.56683-16.9072Z" fill="#fff"/>
      <path d="M845.60425,191.48212h9.57178l28.0014,46.24892v-46.24892h7.77979v60.83237h-7.86719l-29.70593-49.02429v49.02429h-7.77979v-60.83237h-.00006Z" fill="#fff"/>
      <path d="M922.21472,191.48212h8.14398l22.18842,60.83237h-8.58838l-5.55072-15.56685h-24.51215l-5.54346,15.56685h-8.31885l22.18109-60.83237h.00006ZM935.81476,229.41222l-9.65918-27.64445-9.66644,27.64445h19.32562Z" fill="#fff"/>
      <path d="M961.60895,191.48212h8.04932v53.40953h29.34174v7.42285h-37.39105v-60.83238Z" fill="#fff"/>
    </g>
  </g>
  <g>
    <path d="M65.59833,175.66653c18.6613,24.81174,37.90374,50.4619,57.24922,96.79492,5.95966-19.72899,11.93365-42.77026,15.85316-66.09332-50.3021-59.44492-71.16889-119.81599-62.86092-182.80539-25.03023,15.26618-45.37035,37.44164-58.42191,63.86273,3.04876,29.01773,31.73783,66.32275,48.18044,88.24106Z" fill="#fff"/>
    <path d="M105.87876,260.38104c-7.08809.82751-67.23526-12.76787-86.72106-32.50272,19.25482,36.66812,52.75184,64.6604,93.15684,76.63712.01708-.04813.03418-.09628.0513-.14453,3.6975-10.42056,3.19975-21.87521-1.1544-32.03891-1.78222-4.16016-3.55936-8.13724-5.33267-11.95096Z" fill="#fff"/>
    <path d="M140.82109,192.14716c2.29288-21.16357,5.53114-43.11829,9.77971-59.45764-21.09058-27.58283-36.8224-92.41654-5.90488-131.21548-20.32577,1.5213-39.55614,6.9419-56.94203,15.55087-10.24474,60.33944,7.35541,118.17435,53.06718,175.12226h.00002Z" fill="#fff"/>
    <path d="M254.63959,90.37286c15.11539,20.01186,47.35178,75.54022,49.77707,111.64726,12.0806-37.22519,8.03091-82.43604-9.9408-116.41858-9.88568-.65287-25.20599-.42623-39.83626,4.77131h-.00002Z" fill="#fff"/>
    <path d="M154.56889,118.81811c15.80635-60.89322,70.07787-78.53287,119.93178-63.15996C246.5325,22.76118,205.08266,1.7134,158.67918,1.0452c-30.92283,31.47813-22.37746,88.5736-4.11029,117.77291Z" fill="#fff"/>
    <path d="M182.4865,225.09956c14.06398-84.17067,27.16994-154.22775,105.82555-150.48792-.92941-1.50369-1.88101-2.99238-2.85999-4.46118-47.20364-19.78253-110.7551-8.47472-123.24503,60.28336.05968.07631.12099.16959.18066.24522l-.30524.24068c-10.14771,50.44337-21.11234,136.30388-39.38656,176.27733,3.93288.87299,7.91795,1.60284,11.95747,2.17059,11.01141-8.10449,38.05113-32.68207,47.83313-84.26807v-.00002Z" fill="#fff"/>
    <path d="M44.8421,231.90874c24.60139,11.17415,44.55605,15.41196,55.48431,17.01933C72.98015,191.79718,31.51402,162.51636,10.33447,104.19926c-14.08373,45.61079-18.82531,102.57003,34.50763,127.70947v.00002Z" fill="#fff"/>
    <path d="M209.9756,147.3625c-20.57732,49.3015-4.47162,106.29454-60.14311,163.39046,32.7655,1.54819,64.89429-7.86591,90.67319-24.664,9.72067-53.98291-17.94778-114.73846-30.53008-138.72644v-.00002Z" fill="#fff"/>
    <path d="M244.69489,94.8086c-14.58871,8.07422-23.04184,20.5539-30.10027,38.72033,15.16208,20.04784,46.39046,108.0672,37.88612,143.9729,76.10025-47.41905,28.21918-132.32793-7.78587-182.69321l.00002-.00002Z" fill="#fff"/>
  </g>
</svg>