<?xml version="1.0" encoding="UTF-8"?>
<svg id="Layer_1" xmlns="http://www.w3.org/2000/svg" version="1.1" viewBox="0 0 1000 212.61085">
  <!-- Generator: Adobe Illustrator 29.5.1, SVG Export Plug-In . SVG Version: 2.1.0 Build 141)  -->
  <g>
    <g>
      <path d="M341.07596,43.2883l-16.72,126.32824h-49.89736l-18.98237-126.32824h34.6458c4.02331,34.79504,6.90051,64.24158,8.61967,88.3277,1.70125-24.3428,3.49801-45.95762,5.40818-64.83851l2.28027-23.48919h34.6458Z" fill="#ff9d1d"/>
      <path d="M379.46452,43.2883v126.32824h-32.84904V43.2883h32.84904Z" fill="#ff9d1d"/>
      <path d="M462.2527,81.52165h-30.50908v-9.36583c0-4.36953-.39397-7.15122-1.16998-8.34508-.78198-1.19983-2.08328-1.79676-3.90392-1.79676-1.97584,0-3.47413.80586-4.48294,2.42353-1.01478,1.61171-1.52228,4.05912-1.52228,7.33627,0,4.22029.56719,7.39596,1.70733,9.527,1.09238,2.13701,4.18448,4.70978,9.28226,7.72427,14.62478,8.67936,23.83541,15.80073,27.63188,21.36412,3.79647,5.56935,5.6946,14.54121,5.6946,26.92153,0,9.0017-1.05048,15.63359-3.15765,19.89567-2.10716,4.26805-6.17822,7.84366-12.21318,10.7328-6.03496,2.88317-13.05485,4.32774-21.06565,4.32774-8.79278,0-16.29618-1.66543-22.51022-4.99033-6.22001-3.33087-10.29107-7.56907-12.21318-12.72057s-2.88914-12.45792-2.88914-21.92523v-8.27345h30.50908v15.37094c0,4.73365.42979,7.77799,1.28937,9.13303.85958,1.34906,2.38175,2.02956,4.56651,2.02956s3.80841-.85958,4.87692-2.57874c1.06253-1.71319,1.59977-4.26208,1.59977-7.64667,0-7.43774-1.01478-12.30272-3.04434-14.58896-2.08328-2.28624-7.20494-6.11256-15.37094-11.47299-8.166-5.40818-13.58015-9.33598-16.23052-11.77742-2.65037-2.44741-4.85304-5.82603-6.59607-10.14781-1.74303-4.3158-2.60858-9.83143-2.60858-16.54092,0-9.67623,1.22968-16.74985,3.70096-21.22085,2.47129-4.47697,6.46475-7.97498,11.98038-10.49403,5.50966-2.52501,12.1714-3.78453,19.97327-3.78453,8.53013,0,15.80073,1.37891,21.81181,4.13075,6.00511,2.75782,9.98663,6.23195,11.9386,10.41642,1.94599,4.19045,2.92496,11.30585,2.92496,21.34024v4.9963Z" fill="#ff9d1d"/>
      <path d="M508.12675,43.2883v126.32824h-32.84904V43.2883h32.84904Z" fill="#ff9d1d"/>
      <path d="M596.38282,117.25984c0,12.69073-.29846,21.68049-.90136,26.95735-.59693,5.28283-2.47129,10.10602-5.61711,14.47555s-7.39596,7.72427-12.75639,10.06424-11.59835,3.50995-18.72569,3.50995c-6.76321,0-12.83399-1.10432-18.2183-3.31296-5.38431-2.21461-9.71802-5.52757-12.99516-9.95082s-5.22314-9.2345-5.84991-14.43376-.93718-14.30841-.93718-27.30954v-21.61483c0-12.69073.29846-21.68049.89539-26.95735.6029-5.28283,2.47129-10.10602,5.62308-14.47555,3.14582-4.36953,7.39596-7.72427,12.75639-10.06424,5.35446-2.33996,11.59835-3.50995,18.72569-3.50995,6.76321,0,12.83399,1.10432,18.2183,3.31296,5.38431,2.21461,9.71802,5.52757,12.99516,9.95082s5.22314,9.2345,5.84991,14.43376c.62081,5.19926.93718,14.30841.93718,27.30954v21.61483ZM563.53377,75.74934c0-5.87976-.32831-9.64042-.97896-11.276-.65065-1.64156-1.98778-2.45935-4.01734-2.45935-1.71319,0-3.0324.66259-3.93974,1.99375-.9133,1.32518-1.36697,5.24104-1.36697,11.74161v58.9886c0,7.33627.29846,11.86099.90136,13.57418.59693,1.71916,1.98778,2.57874,4.17254,2.57874,2.23252,0,3.66515-.9909,4.29192-2.96674.62081-1.97584.93718-6.68561.93718-14.12336v-58.05142Z" fill="#ff9d1d"/>
      <path d="M681.97646,43.2883v126.32824h-28.7898l-17.0901-57.43061v57.43061h-27.46474V43.2883h27.46474l18.41528,56.88144v-56.88144h27.46462Z" fill="#ff9d1d"/>
    </g>
    <g>
      <path d="M695.16275,43.2883h54.77427v25.27998h-21.92523v23.95479h20.52244v24.03239h-20.52244v27.78111h24.10999v25.27998h-56.95904V43.2883Z" fill="#ff9d1d"/>
      <path d="M794.41427,43.2883v101.04827h19.97327v25.27998h-52.82231V43.2883h32.84904Z" fill="#ff9d1d"/>
      <path d="M855.19365,43.2883v126.32824h-32.84904V43.2883h32.84904Z" fill="#ff9d1d"/>
      <path d="M934.55546,43.2883v25.27998h-19.50766v101.04827h-32.84904v-101.04827h-19.43006v-25.27998h71.78677Z" fill="#ff9d1d"/>
      <path d="M942.04096,43.2883h54.77427v25.27998h-21.92523v23.95479h20.52244v24.03239h-20.52244v27.78111h24.10999v25.27998h-56.95904V43.2883Z" fill="#ff9d1d"/>
    </g>
  </g>
  <g>
    <path d="M44.90544,119.68458c12.6835,16.86375,25.76197,34.29735,38.91048,65.78844,4.05059-13.40917,8.11093-29.0696,10.7749-44.92153C60.40207,100.14867,46.21958,59.11637,51.86624,16.30447c-17.01225,10.37594-30.83678,25.44789-39.70752,43.40547,2.07214,19.72243,21.5712,45.07747,32.74671,59.97465Z" fill="#ff9d1d"/>
    <path d="M72.28276,177.26235c-4.81755.56243-45.69767-8.67792-58.94155-22.09106,13.08689,24.92215,35.85375,43.94762,63.31575,52.0878.01161-.0327.02323-.06545.03486-.09822,2.51308-7.08252,2.17477-14.86789-.78461-21.77583-1.21132-2.82753-2.41918-5.53062-3.62445-8.12269Z" fill="#ff9d1d"/>
    <path d="M96.03196,130.88593c1.55839-14.38422,3.75935-29.30613,6.64696-40.41147-14.3346-18.74718-25.02702-62.81259-4.01335-89.183-13.81478,1.03398-26.88505,4.71819-38.70169,10.56943-6.96302,41.0108,4.99924,80.31936,36.06808,119.02503Z" fill="#ff9d1d"/>
    <path d="M173.39078,61.71318c10.27346,13.60143,32.18349,51.34229,33.83189,75.8831,8.21081-25.30078,5.45837-56.02916-6.75645-79.12601-6.71899-.44374-17.13172-.28969-27.07544,3.24291Z" fill="#124295"/>
    <path d="M105.37591,81.04651c10.74307-41.38719,47.62971-53.3763,81.51381-42.92782C167.88065,15.75966,139.7085,1.45415,108.16954,1c-21.01727,21.39469-15.20925,60.20067-2.79363,80.04651Z" fill="#124295"/>
    <path d="M124.35062,153.28264c9.55884-57.20813,18.46655-104.82372,71.92627-102.28186-.63169-1.02201-1.27846-2.03383-1.94384-3.03212-32.08282-13.44556-75.27672-5.76-83.76574,40.97268.04056.05187.08223.11526.12279.16668l-.20746.16358c-6.89708,34.28476-14.34938,92.64142-26.76979,119.8101,2.67306.59335,5.38158,1.08939,8.12711,1.47528,7.48411-5.50836,25.86215-22.21296,32.51066-57.27433Z" fill="#ff9d1d"/>
    <path d="M30.79808,157.91062c16.72079,7.59472,30.28333,10.47501,37.71093,11.56751-18.58639-38.83006-46.7696-58.7313-61.16467-98.36758-9.57227,31.00021-12.79497,69.71359,23.45374,86.80008Z" fill="#124295"/>
    <path d="M143.03409,100.44722c-13.98575,33.50866-3.03922,72.24502-40.87737,111.0513,22.26967,1.05226,44.10659-5.34621,61.62769-16.76334,6.60684-36.69047-12.19853-77.98409-20.75032-94.28796Z" fill="#124295"/>
    <path d="M166.63168,64.72801c-9.91549,5.48779-15.66081,13.96983-20.45819,26.31697,10.30519,13.62587,31.53013,73.44985,25.75,97.85381,51.72292-32.22922,19.17969-89.93908-5.29181-124.17078Z" fill="#ff9d1d"/>
  </g>
</svg>