<svg xmlns="http://www.w3.org/2000/svg" version="1.1" viewBox="0 0 762.8 96.9">
  <defs>
    <style>
      .st0 {
        fill: #ffa736;
      }

      .st1 {
        fill: #fff;
      }

      .st2 {
        opacity: .2;
      }
    </style>
  </defs>
  <path class="st1" d="M0,31.4v65.5h762.8V31.4c-97.7,17.5-232.5,28.3-381.4,28.3S97.7,48.9,0,31.4Z"/>
  <path class="st0" d="M381.4,40C232.5,40,97.7,29.2,0,11.7v19.7c97.7,17.5,232.5,28.3,381.4,28.3s283.7-10.8,381.4-28.3V11.7c-97.7,17.5-232.5,28.3-381.4,28.3Z"/>
  <g class="st2">
    <path class="st1" d="M0,5.7v6c97.7,17.5,232.5,28.3,381.4,28.3s283.7-10.8,381.4-28.3v-6c-97.7,17.5-232.5,28.3-381.4,28.3S97.7,23.2,0,5.7Z"/>
  </g>
  <path class="st0" d="M381.4,28.3C232.5,28.3,97.7,17.5,0,0v5.7c97.7,17.5,232.5,28.3,381.4,28.3s283.7-10.8,381.4-28.3V0c-97.7,17.5-232.5,28.3-381.4,28.3Z"/>
</svg>