<?xml version="1.0" encoding="UTF-8"?>
<svg id="Layer_1" xmlns="http://www.w3.org/2000/svg" version="1.1" viewBox="0 0 23.2165 33.13702">
  <!-- Generator: Adobe Illustrator 29.2.1, SVG Export Plug-In . SVG Version: 2.1.0 Build 116)  -->
  <path id="Path_1339" d="M9.39425,11.35c.7199.23381,1.47209.35293,2.229.353,2.42452-.001,4.68435-1.22703,6.007-3.259l1.108-1.692c.62249-.87747,1.83845-1.08418,2.71593-.46169.828.58739,1.06607,1.71219.54708,2.58469l-1.108,1.7c-1.095,1.67615-2.62247,3.02534-4.421,3.905v15.711c0,1.07475-.87125,1.946-1.946,1.946s-1.946-.87125-1.946-1.946v-5.838h-1.944v5.838c0,1.07475-.87125,1.946-1.946,1.946s-1.946-.87125-1.946-1.946v-15.727c-1.74807-.86388-3.23849-2.17188-4.322-3.793l-1.194-1.778c-.59757-.89498-.35648-2.10493.5385-2.7025.89498-.59757,2.10493-.35648,2.7025.5385l1.186,1.783c.86007,1.29155,2.1154,2.26971,3.578,2.788.052.013.109.036.161.054M13.55625,8.266c-1.8612,1.0753-4.2417.4382-5.31699-1.423s-.4382-4.2417,1.423-5.31699c1.8612-1.0753,4.24169-.4382,5.31699,1.423.34128.59072.5213,1.26077.522,1.94299.00036,1.39069-.74153,2.67584-1.946,3.371" fill="#ffa736"/>
</svg>