<?xml version="1.0" encoding="UTF-8"?>
<svg id="Layer_1" xmlns="http://www.w3.org/2000/svg" version="1.1" viewBox="0 0 12.50412 18.81078">
  <!-- Generator: Adobe Illustrator 29.2.1, SVG Export Plug-In . SVG Version: 2.1.0 Build 116)  -->
  <g id="Group_132">
    <g id="Group_32">
      <path id="Path_117" d="M1.78706,11.50601h2.363V2.05101c-.00056-.5799.46909-1.05045,1.04899-1.05101.00167,0,.00334,0,.00501,0h2.1c.57879,0,1.048.4692,1.048,1.048,0,.001,0,.002,0,.003v9.456h2.365c.4352.00052.78758.35374.78706.78894-.00024.20085-.07717.39403-.21506.54006l-4.466,4.728c-.2967.31536-.79287.33047-1.10823.03377-.0116-.01091-.02286-.02217-.03377-.03377L1.21506,12.83601c-.29879-.31643-.28449-.81516.03194-1.11394.14603-.13789.33921-.21482.54006-.21506" fill="#404040"/>
    </g>
  </g>
</svg>