<?xml version="1.0" encoding="UTF-8"?>
<svg id="Layer_1" xmlns="http://www.w3.org/2000/svg" version="1.1" viewBox="0 0 23.2165 33.13702">
  <!-- Generator: Adobe Illustrator 29.2.1, SVG Export Plug-In . SVG Version: 2.1.0 Build 116)  -->
  <path id="Path_1340" d="M6.15226,25.30606c-.53958-.0012-.97603-.43959-.97483-.97917.00023-.10288.01671-.20509.04883-.30283l1.9-5.68-1.746,2.296c-.6141.88135-1.8264,1.098-2.70775.48391-.88135-.6141-1.098-1.8264-.48391-2.70775.02896-.04156.05953-.08198.09165-.12116l3.578-4.725c2.40787-3.17564,6.9342-3.79804,10.10983-1.39017.52464.3978.99237.86553,1.39017,1.39017l3.583,4.725c.67768.83345.55141,2.05846-.28204,2.73615-.83345.67768-2.05847.55141-2.73615-.28204-.02852-.03507-.0558-.07113-.08181-.1081l-1.738-2.3,1.892,5.68c.16845.51262-.11055,1.06473-.62317,1.23317-.09774.03212-.19995.0486-.30283.04883h-1.081v4.865c.02436,1.07392-.82648,1.96425-1.9004,1.9886-1.07392.02436-1.96425-.82648-1.9886-1.9004-.00067-.0294-.00067-.05881,0-.08821v-4.862h-.973v4.865c0,1.07557-.87193,1.9475-1.9475,1.9475s-1.9475-.87193-1.9475-1.9475v-4.865h-1.079ZM13.55726,8.24306c-1.86152,1.07475-4.24182.43694-5.31657-1.42457s-.43694-4.24182,1.42457-5.31657c1.86151-1.07475,4.24182-.43694,5.31657,1.42457.34152.59153.52135,1.26253.52143,1.94557.00036,1.39069-.74153,2.67584-1.946,3.371" fill="#ffa736"/>
</svg>