<?xml version="1.0" encoding="UTF-8"?>
<svg id="Layer_1" xmlns="http://www.w3.org/2000/svg" version="1.1" viewBox="0 0 18.81077 12.50406">
  <!-- Generator: Adobe Illustrator 29.2.1, SVG Export Plug-In . SVG Version: 2.1.0 Build 116)  -->
  <g id="Group_32">
    <path id="Path_117" d="M7.30377,10.71703c-.00024.20085-.07717.39403-.21506.54006-.29879.31643-.79751.33073-1.11394.03194L1.24677,6.82303c-.0116-.01091-.02286-.02217-.03377-.03377-.2967-.31535-.28158-.81153.03377-1.10823L5.97477,1.21503c.14603-.13789.33921-.21482.54006-.21506.4352-.00052.78842.35186.78894.78706v2.365s9.456,0,9.456,0c.001,0,.002,0,.003,0,.57879,0,1.048.46921,1.048,1.048v2.1c0,.00167,0,.00334,0,.00501-.00056.5799-.47111,1.04955-1.05101,1.04899H7.30477s0,2.363,0,2.363" fill="#ffa736"/>
  </g>
</svg>