<?xml version="1.0" encoding="UTF-8"?>
<svg id="Layer_1" xmlns="http://www.w3.org/2000/svg" version="1.1" viewBox="0 0 18.81077 12.50406">
  <!-- Generator: Adobe Illustrator 29.2.1, SVG Export Plug-In . SVG Version: 2.1.0 Build 116)  -->
  <g id="Group_32">
    <path id="Path_117" d="M11.506,10.71703v-2.363H2.051c-.5799.00056-1.05045-.46909-1.05101-1.04899,0-.00167,0-.00334,0-.00501v-2.1c0-.57879.4692-1.048,1.048-1.048.001,0,.002,0,.003,0h9.456V1.78703c.00052-.4352.35374-.78758.78894-.78706.20085.00024.39403.07717.54006.21506l4.728,4.466c.31536.2967.33047.79287.03377,1.10823-.01091.0116-.02217.02286-.03377.03377l-4.728,4.466c-.31643.29879-.81516.28449-1.11394-.03194-.13789-.14603-.21482-.33921-.21506-.54006" fill="#ffa736"/>
  </g>
</svg>