<?xml version="1.0" encoding="UTF-8"?>
<svg id="Layer_1" xmlns="http://www.w3.org/2000/svg" xmlns:xlink="http://www.w3.org/1999/xlink" version="1.1" viewBox="0 0 50 50">
  <!-- Generator: Adobe Illustrator 29.2.1, SVG Export Plug-In . SVG Version: 2.1.0 Build 116)  -->
  <g id="Group_17">
    <g id="Group_16">
      <path id="Path_105" d="M40,20.5c0,4.1-1.3,8.2-3.7,11.5l11.9,11.9c1.1,1.2,1.1,3.1-.1,4.2-1.2,1.1-3,1.1-4.1,0l-11.9-11.9c-8.7,6.4-20.9,4.5-27.2-4.2C-1.6,23.3.3,11.1,9,4.8,17.7-1.6,29.9.3,36.2,9c2.4,3.3,3.8,7.4,3.8,11.5M20.5,34c7.5,0,13.5-6,13.5-13.5s-6-13.5-13.5-13.5-13.5,6-13.5,13.5c0,2.4.6,4.7,1.8,6.7,2.4,4.2,6.9,6.7,11.7,6.7" fill="#fff"/>
    </g>
  </g>
</svg>