<?xml version="1.0" encoding="UTF-8"?>
<svg id="Layer_1" xmlns="http://www.w3.org/2000/svg" version="1.1" viewBox="0 0 1000 1000">
  <!-- Generator: Adobe Illustrator 29.6.1, SVG Export Plug-In . SVG Version: 2.1.1 Build 9)  -->
  <path d="M206.375,480.93677h12.80273l4.7832,19.97754c1.26611,4.85352,2.11035,9.56689,3.37646,14.49072h.28125c1.26611-4.92383,2.18066-9.63721,3.37646-14.49072l4.64258-19.97754h12.38037l-13.50586,45.72314h-14.63135l-13.50586-45.72314Z" fill="#e6e6e6"/>
  <path d="M266.87207,500.91431h-13.36475v-9.42578h25.46387v35.17139h-12.09912v-25.74561ZM264.76221,479.67065c0-4.2207,3.23584-7.1748,7.73779-7.1748s7.7373,2.9541,7.7373,7.1748-3.23535,7.03418-7.7373,7.03418-7.73779-2.81348-7.73779-7.03418Z" fill="#e6e6e6"/>
  <path d="M293.46387,509.07397c0-11.53613,7.31543-18.42969,14.70166-18.42969,3.72803,0,6.11963,1.26611,8.22998,3.51709h.28125l-.5625-5.06445v-11.396h12.09863v48.95898h-9.84766l-.84424-3.23584h-.28125c-2.46191,2.3916-5.90869,4.08008-9.07422,4.08008-8.93359,0-14.70166-7.03467-14.70166-18.43018ZM316.11426,515.12378v-12.94336c-1.40723-1.26611-2.95459-1.68799-4.64258-1.68799-2.95459,0-5.62744,2.25098-5.62744,8.44092,0,6.33105,2.03955,8.72266,5.48682,8.72266,1.96924,0,3.44678-.5625,4.7832-2.53223Z" fill="#e6e6e6"/>
  <path d="M336.23438,509.07397c0-11.53613,9.00391-18.42969,18.42969-18.42969,11.11426,0,16.7417,7.59717,16.7417,17.02295,0,2.11035-.35156,4.2207-.49219,5.06494h-25.53467v-7.87842h17.16406l-1.68848,2.10986c0-4.64258-1.8291-7.1748-5.76807-7.1748-4.64258,0-7.17529,2.95459-7.17529,9.28516,0,6.6123,3.23584,9.28564,9.70752,9.28564,2.81396,0,5.34619-.70361,8.44141-2.11035l3.93896,7.1748c-4.2207,2.67334-9.70703,4.08008-14.06836,4.08008-11.11426,0-19.69629-6.75293-19.69629-18.43018Z" fill="#e6e6e6"/>
  <path d="M377.87988,509.07397c0-11.67676,8.86328-18.42969,18.14844-18.42969s18.14844,6.75293,18.14844,18.42969-8.86328,18.43018-18.14844,18.43018-18.14844-6.75293-18.14844-18.43018ZM401.79639,509.07397c0-5.3457-1.68848-8.72217-5.76807-8.72217-4.08008,0-5.76807,3.37646-5.76807,8.72217,0,5.34619,1.68799,8.72266,5.76807,8.72266,4.07959,0,5.76807-3.37646,5.76807-8.72266Z" fill="#e6e6e6"/>
  <path d="M465.95312,480.93677h31.30273v10.12939h-19.2041v8.72266h16.46094v10.12939h-16.46094v16.7417h-12.09863v-45.72314Z" fill="#e6e6e6"/>
  <path d="M520.11914,500.91431h-13.36523v-9.42578h25.46484v35.17139h-12.09961v-25.74561ZM518.00879,479.67065c0-4.2207,3.23633-7.1748,7.73828-7.1748s7.7373,2.9541,7.7373,7.1748-3.23535,7.03418-7.7373,7.03418-7.73828-2.81348-7.73828-7.03418Z" fill="#e6e6e6"/>
  <path d="M557.12207,512.16919v-25.04199h-10.55176v-9.42627h22.65039v34.89062c0,4.07959,2.81445,5.20508,5.27637,5.20508,1.47656,0,3.02441-.28125,5.06445-.98486l2.60254,8.86328c-3.79883,1.12549-6.33105,1.8291-10.90332,1.8291-9.35547,0-14.13867-6.19043-14.13867-15.33496Z" fill="#e6e6e6"/>
  <path d="M589.48242,509.07397c0-11.53613,9.00391-18.42969,18.42969-18.42969,11.11426,0,16.74121,7.59717,16.74121,17.02295,0,2.11035-.35156,4.2207-.49219,5.06494h-25.53418v-7.87842h17.16309l-1.68848,2.10986c0-4.64258-1.82812-7.1748-5.76758-7.1748-4.64258,0-7.1748,2.95459-7.1748,9.28516,0,6.6123,3.23535,9.28564,9.70703,9.28564,2.81348,0,5.3457-.70361,8.44141-2.11035l3.93945,7.1748c-4.2207,2.67334-9.70801,4.08008-14.06934,4.08008-11.11426,0-19.69531-6.75293-19.69531-18.43018Z" fill="#e6e6e6"/>
  <path d="M673.47461,520.96216l6.89355-8.30029c3.44727,2.60254,7.52734,4.43164,11.67773,4.43164,3.65723,0,5.06445-1.19629,5.06445-2.67334,0-2.67285-2.3916-3.23584-6.6123-4.99414l-5.69824-2.3916c-5.27539-1.96973-9.63672-6.12012-9.63672-12.73242,0-7.80811,7.03418-14.20898,17.44531-14.20898,5.41602,0,11.18457,1.96924,15.61621,6.11963l-6.0498,7.59717c-3.30566-2.18066-5.90918-3.30615-10.26953-3.30615-2.67383,0-4.50195.98486-4.50195,3.09521,0,2.10986,2.60254,2.88379,7.1748,4.57227l5.27539,2.18066c6.12012,2.25098,9.63672,6.18994,9.63672,12.521,0,7.73779-6.4707,14.63135-18.28906,14.63135-5.97852,0-12.59082-2.11035-17.72656-6.54199Z" fill="#e6e6e6"/>
  <path d="M716.10547,509.07397c0-11.53613,9.00391-18.42969,18.42969-18.42969,11.11426,0,16.74121,7.59717,16.74121,17.02295,0,2.11035-.35156,4.2207-.49219,5.06494h-25.53418v-7.87842h17.16309l-1.68848,2.10986c0-4.64258-1.82812-7.1748-5.76758-7.1748-4.64258,0-7.1748,2.95459-7.1748,9.28516,0,6.6123,3.23535,9.28564,9.70703,9.28564,2.81348,0,5.3457-.70361,8.44141-2.11035l3.93945,7.1748c-4.2207,2.67334-9.70801,4.08008-14.06934,4.08008-11.11426,0-19.69531-6.75293-19.69531-18.43018Z" fill="#e6e6e6"/>
  <path d="M766.19141,511.74731v-10.83301h-8.44141v-9.00391l9.00391-.42188,1.54785-10.55176h9.98828v10.55176h13.92871v9.42578h-13.92871v10.62207c0,4.99414,2.32129,6.5415,6.82324,6.5415,2.39258,0,4.50195-.49219,6.40137-1.12549l2.11035,8.72266c-3.09473.84424-6.89355,1.8291-11.67676,1.8291-11.53613,0-15.75684-6.33105-15.75684-15.75684Z" fill="#e6e6e6"/>
</svg>