<?xml version="1.0" encoding="UTF-8"?>
<svg id="Layer_1" xmlns="http://www.w3.org/2000/svg" version="1.1" viewBox="0 0 1000 1000">
  <!-- Generator: Adobe Illustrator 29.5.1, SVG Export Plug-In . SVG Version: 2.1.0 Build 141)  -->
  <path d="M667.53726,284.27828h-335.07451c-26.61159,0-48.18446,21.57287-48.18446,48.18433v335.07465c0,26.61159,21.57287,48.18446,48.18446,48.18446h335.07451c26.61159,0,48.18446-21.57287,48.18446-48.18446v-335.07465c0-26.61146-21.57287-48.18433-48.18446-48.18433ZM586.15054,350.62151c31.06227,0,56.24327,25.181,56.24327,56.24327s-25.181,56.24314-56.24327,56.24314-56.24314-25.18087-56.24314-56.24314,25.18087-56.24327,56.24314-56.24327ZM634.06979,654.28597h-272.39081c-14.35633,0-23.51829-15.31982-16.72587-27.96774l78.82817-146.78436c7.13437-13.28478,26.1628-13.35081,33.3891-.11593l41.70403,76.37891c5.61484,10.28327,19.11208,13.07638,28.34698,5.86608l34.46038-26.90541c8.53432-6.66334,20.90429-4.8512,27.16872,3.98019l60.70439,85.5787c8.91776,12.57199-.07145,29.96957-15.4851,29.96957Z" fill="#fff"/>
</svg>