<?xml version="1.0" encoding="UTF-8"?>
<svg id="Layer_1" xmlns="http://www.w3.org/2000/svg" version="1.1" viewBox="0 0 250 250">
  <!-- Generator: Adobe Illustrator 29.6.1, SVG Export Plug-In . SVG Version: 2.1.1 Build 9)  -->
  <path d="M181.42285,87.95508c-.63965,0-1.2793-.24414-1.76758-.73242-.97656-.97607-.97656-2.55908,0-3.53516l58.00488-58.00488c3.47754-3.47803,3.47754-9.13721,0-12.61523l-.72266-.72119c-3.47852-3.47852-9.13672-3.47852-12.61523-.00098l-58.00488,58.00488c-.97656.97656-2.55859.97656-3.53516,0-.97656-.97607-.97656-2.55908,0-3.53516l58.00488-58.00488c2.62891-2.62939,6.125-4.07715,9.84277-4.07715s7.21387,1.44775,9.84277,4.07715l.72266.72119c2.62988,2.62988,4.07715,6.12549,4.07715,9.84375s-1.44727,7.21387-4.07715,9.84277l-58.00488,58.00488c-.48828.48828-1.12793.73242-1.76758.73242Z" fill="#fbb03b"/>
  <path d="M37.97363,245.26709c-5.01172,0-10.02246-1.90625-13.83691-5.72168l-13.67676-13.67676c-3.69629-3.69531-5.73242-8.60938-5.73242-13.83691,0-5.22656,2.03613-10.14062,5.73242-13.83691l119.56543-119.56494c2.13086-2.13184,4.78418-3.71777,7.67188-4.58594l26.13281-7.85547c1.01074-.30615,2.10645.06104,2.7334.91309.62695.85156.64941,2.00537.05762,2.88135l-22.91211,33.87988c-.61523.90967-.08398,1.61279.17285,1.87305.25586.25928.94922.79932,1.87012.19678l34.29688-22.56592c.87891-.57715,2.02539-.54443,2.86816.08398.84277.62793,1.20312,1.7168.90039,2.72412l-7.85547,26.13281c-.86816,2.88721-2.4541,5.54004-4.58594,7.67188l-119.56543,119.56592c-3.81445,3.81445-8.82715,5.72168-13.83691,5.72168ZM158.5459,72.99805l-19.40918,5.83398c-2.09863.63135-4.02637,1.78369-5.57617,3.33301L13.99512,201.73047c-2.75195,2.75146-4.26758,6.41064-4.26758,10.30127,0,3.8916,1.51562,7.5498,4.26758,10.30176l13.67676,13.67676c5.67969,5.67969,14.92188,5.67969,20.60352,0l119.56543-119.56592c1.54883-1.5498,2.70117-3.47754,3.33203-5.57617l5.875-19.5415-28.54785,18.78271c-2.65918,1.74951-5.94336,1.40039-8.17676-.86084-2.23438-2.2627-2.53809-5.55322-.75586-8.18701l18.97852-28.06348Z" fill="#fbb03b"/>
  <path d="M139.3623,242.53467c-6.83203,0-13.25879-2.66406-18.09766-7.50195-4.81836-4.83008-7.4707-11.24512-7.4707-18.06543s2.65234-13.23535,7.46777-18.06348c4.8418-4.83984,11.26855-7.50391,18.10059-7.50391,6.85645,0,13.28906,2.66943,18.11133,7.51709,4.80762,4.83154,7.45605,11.24268,7.45605,18.05029s-2.64844,13.21875-7.45605,18.05078c-4.82227,4.84668-11.25488,7.5166-18.11133,7.5166ZM139.3623,196.3999c-5.49609,0-10.66797,2.14404-14.5625,6.0376-3.87207,3.88232-6.00586,9.04248-6.00586,14.52979s2.13379,10.64746,6.00879,14.53223c3.8916,3.89062,9.06348,6.03516,14.55957,6.03516,5.5166,0,10.68945-2.14648,14.56641-6.04395,3.87012-3.88867,6.00098-9.0459,6.00098-14.52344s-2.13086-10.63477-6.00098-14.52393c-3.87695-3.89697-9.0498-6.04346-14.56641-6.04346Z" fill="#fbb03b"/>
  <path d="M181.42285,201.62939c-6.83301,0-13.25977-2.66455-18.09668-7.50244-4.81836-4.8291-7.4707-11.24414-7.4707-18.06543,0-6.82031,2.65234-13.23535,7.46875-18.06348,4.83984-4.83984,11.2666-7.50439,18.09863-7.50439,6.85547,0,13.28809,2.66943,18.1123,7.5166,4.80762,4.8335,7.45508,11.24414,7.45508,18.05127s-2.64746,13.21777-7.45508,18.05078c-4.82422,4.84766-11.25586,7.51709-18.1123,7.51709ZM181.42285,155.49365c-5.49609,0-10.66797,2.14404-14.56152,6.0376-3.87207,3.88184-6.00586,9.04297-6.00586,14.53027,0,5.48779,2.13379,10.64893,6.00781,14.53223,3.8916,3.8916,9.0625,6.03564,14.55957,6.03564,5.51562,0,10.68945-2.14648,14.56738-6.04346,3.86914-3.88965,6-9.04785,6-14.52441s-2.13086-10.63477-6-14.52441c-3.87793-3.89697-9.05176-6.04346-14.56738-6.04346Z" fill="#fbb03b"/>
</svg>