<?xml version="1.0" encoding="UTF-8"?>
<svg id="Layer_1" xmlns="http://www.w3.org/2000/svg" version="1.1" viewBox="0 0 250 250">
  <!-- Generator: Adobe Illustrator 29.6.1, SVG Export Plug-In . SVG Version: 2.1.1 Build 9)  -->
  <g>
    <path d="M64.45923,240.10083c-11.28662,0-22.57373-.04688-25.97168-.13965-.79688-.02148-1.53564-.42188-1.98828-1.07812-6.82129-9.87305-22.37256-36.7959-19.46631-73.45801,1.68555-21.26807,9.07666-37.77344,14.97998-47.87402,7.15918-12.24951,11.63525-25.34375,13.3042-38.91943,1.25195-10.18359,1.16992-18.13281-.24316-23.62891l-3.40771-10.41406c-.83594-2.55371-1.18359-5.81738-1.03418-9.70068.66064-17.16895,12.81445-24.98877,23.82715-24.98877s23.16699,7.81982,23.82764,24.98877c.14941,3.88232-.19873,7.14648-1.03467,9.70068l-3.40771,10.41406c-1.41309,5.49512-1.49463,13.44434-.24268,23.62891,1.66846,13.57471,6.14453,26.66895,13.3042,38.91943,5.90332,10.10107,13.29395,26.60645,14.97998,47.87402,2.90576,36.66211-12.64551,63.58496-19.4668,73.45801-.45264.65625-1.19141,1.05664-1.98828,1.07812-3.39795.09277-14.68506.13965-25.97168.13965ZM90.36255,237.46216h.01025-.01025ZM39.89819,234.9895c8.68359.14258,40.43848.14258,49.12207,0,6.82227-10.19629,20.56299-35.33594,17.88135-69.16895-1.61133-20.3252-8.67236-36.09619-14.3125-45.74707-7.50439-12.84082-12.19824-26.57861-13.9502-40.83154-1.33447-10.85791-1.20459-19.46143.38574-25.57178.01318-.0498.02734-.09863.04346-.14746l3.43213-10.48877c.65088-1.98975.91699-4.66553.79053-7.95361-.37402-9.71973-6.42676-20.18115-18.83154-20.18115s-18.45703,10.46143-18.83105,20.18115c-.12646,3.28906.13916,5.96484.79004,7.95361l3.43213,10.48877c.01611.04883.03027.09766.04346.14746,1.59082,6.11133,1.7207,14.71484.38623,25.57178-1.75244,14.25391-6.44629,27.9917-13.95068,40.83154-5.63965,9.65088-12.70117,25.4209-14.31201,45.74707-2.68213,33.83301,11.05859,58.97266,17.88086,69.16895Z" fill="#fbb03b"/>
    <path d="M80.25122,70.31763h-30.54541c-1.38086,0-2.5-1.11914-2.5-2.5s1.11914-2.5,2.5-2.5h30.54541c1.38086,0,2.5,1.11914,2.5,2.5s-1.11914,2.5-2.5,2.5Z" fill="#fbb03b"/>
    <path d="M82.93774,96.42065h-37.82861c-1.38086,0-2.5-1.11914-2.5-2.5s1.11914-2.5,2.5-2.5h37.82861c1.38086,0,2.5,1.11914,2.5,2.5s-1.11914,2.5-2.5,2.5Z" fill="#fbb03b"/>
  </g>
  <path d="M158.10132,239.78442c-15.23535,0-29.98877-4.40723-42.66553-12.74414-1.15381-.75879-1.47412-2.30859-.71533-3.46289.75928-1.15234,2.30859-1.47363,3.4624-.71484,11.85889,7.7998,25.6626,11.92188,39.91846,11.92188,40.12646,0,72.77197-32.64551,72.77197-72.77197s-32.64551-72.77197-72.77197-72.77197c-19.56934,0-37.93115,7.65771-51.70264,21.56299-.97168.98145-2.55518.98877-3.53564.01709-.98096-.97168-.98877-2.55469-.01709-3.53564,14.71777-14.86035,34.34131-23.04443,55.25537-23.04443,42.88379,0,77.77197,34.88818,77.77197,77.77197s-34.88818,77.77197-77.77197,77.77197Z" fill="#fbb03b"/>
  <path d="M187.80835,133.89429c-6.83594,0-12.39697-5.56152-12.39697-12.39746s5.56104-12.39697,12.39697-12.39697,12.39746,5.56104,12.39746,12.39697-5.56152,12.39746-12.39746,12.39746ZM187.80835,114.09985c-4.07861,0-7.39697,3.31836-7.39697,7.39697,0,4.0791,3.31836,7.39746,7.39697,7.39746,4.0791,0,7.39746-3.31836,7.39746-7.39746,0-4.07861-3.31836-7.39697-7.39746-7.39697Z" fill="#fbb03b"/>
  <path d="M211.18921,160.90259c-6.83594,0-12.39697-5.56104-12.39697-12.39697s5.56104-12.39697,12.39697-12.39697,12.39697,5.56104,12.39697,12.39697-5.56104,12.39697-12.39697,12.39697ZM211.18921,141.10864c-4.07861,0-7.39697,3.31836-7.39697,7.39697s3.31836,7.39697,7.39697,7.39697,7.39697-3.31836,7.39697-7.39697-3.31836-7.39697-7.39697-7.39697Z" fill="#fbb03b"/>
  <path d="M179.21655,163.51245c-6.83594,0-12.39746-5.56104-12.39746-12.39697s5.56152-12.39746,12.39746-12.39746,12.39697,5.56152,12.39697,12.39746-5.56104,12.39697-12.39697,12.39697ZM179.21655,143.71802c-4.0791,0-7.39746,3.31836-7.39746,7.39746,0,4.07861,3.31836,7.39697,7.39746,7.39697,4.07861,0,7.39697-3.31836,7.39697-7.39697,0-4.0791-3.31836-7.39746-7.39697-7.39746Z" fill="#fbb03b"/>
</svg>