<?xml version="1.0" encoding="UTF-8"?>
<svg id="Layer_1" xmlns="http://www.w3.org/2000/svg" version="1.1" viewBox="0 0 250 250">
  <!-- Generator: Adobe Illustrator 29.6.1, SVG Export Plug-In . SVG Version: 2.1.1 Build 9)  -->
  <path d="M172.88525,237.50708c-16.27637.00049-31.97119-5.90283-44.21436-16.6333L13.57666,120.00464c-5.58789-4.89795-6.15039-13.42871-1.25293-19.01709l12.92529-14.74805c.4375-.49854,1.05469-.80322,1.71582-.84668.66504-.0376,1.31396.17773,1.8125.61475l123.34912,108.10449c5.74805,5.0376,13.11768,7.80908,20.7583,7.80908h.08008l59.90918-.15088h.02441c5.29785,0,9.61475,4.30273,9.62842,9.604l.0249,9.87842c.02197,8.86572-7.17285,16.09717-16.03857,16.11963l-53.4585.13477h-.16943ZM226.50684,234.87231h.00977-.00977ZM27.36182,91.41528l-11.27783,12.86816c-3.08008,3.51465-2.72656,8.88037.78857,11.96094l115.09424,100.86914c11.36914,9.96484,25.93262,15.41699,41.0752,15.39355l53.4585-.13477c6.10889-.01562,11.06641-4.99805,11.05127-11.10693l-.0249-9.87842c-.00684-2.55176-2.12354-4.63916-4.64014-4.6167l-59.90918.15088c-8.89648.00195-17.46289-3.19092-24.14648-9.04834L27.36182,91.41528Z" fill="#fbb03b"/>
  <path d="M238.30664,209.15894c-.96533,0-1.88428-.56201-2.29395-1.50342l-9.9458-22.8623c-6.1001-12.92139-18.82812-21.28467-33.18555-21.75732-6.32812-.2085-11.76611-4.65674-13.22461-10.81738l-17.06055-61.7417c-.21143-.76611-.76758-1.104-1.08008-1.2373-.55713-.23779-1.1875-.20654-1.73096.0874-16.75879,9.03857-32.05176,8.17871-44.22363-2.4873-11.49072-10.06885-20.87109-29.84229-18.81006-36.16846,4.72998-14.51611,7.56006-25.24561.85059-31.125-1.68604-1.47705-4.2583-1.30664-5.73486.37793L28.98486,89.56274c-.92529,1.02539-2.50635,1.10547-3.53076.18018-1.0249-.92529-1.10547-2.50635-.18018-3.53076L88.13135,16.60132c3.26953-3.73145,9.00732-4.10889,12.76562-.81592,8.99414,7.88086,5.76465,20.61133.6084,36.43457-.29297.8999.30029,5.35889,3.97363,12.74561,3.5791,7.19824,8.45508,13.80029,13.37744,18.11328,10.61377,9.2998,23.58447,9.92139,38.55566,1.84717,1.89062-1.02051,4.10254-1.12305,6.06641-.28564,1.93994.82812,3.375,2.46973,3.93701,4.50488l17.0835,61.83154c.96338,4.06055,4.46826,6.92773,8.54688,7.06201,16.24072.53418,30.63818,9.99512,37.57422,24.69043l9.97754,22.93213c.55078,1.26611-.0293,2.73877-1.29541,3.28955-.32471.14111-.66309.20801-.99561.20801Z" fill="#fbb03b"/>
  <path d="M62.9292,121.75757c-.58496,0-1.17236-.2041-1.64648-.61963l-35.80225-31.37109c-1.03857-.91016-1.14258-2.48926-.23291-3.52783.90967-1.03906,2.48877-1.14209,3.52783-.23291l33.86719,29.67529c13.57715-17.46582,11.33398-42.79297-5.5166-57.55859-1.03857-.91016-1.14258-2.48975-.23291-3.52783.90967-1.03955,2.48975-1.14307,3.52783-.23291,19.55615,17.13623,21.52539,46.9873,4.38965,66.54297-.49414.56396-1.18604.85254-1.88135.85254Z" fill="#fbb03b"/>
  <path d="M150.29053,112.45825c-1.07959,0-2.07568-.70459-2.39648-1.79248-.39111-1.32422.36523-2.71484,1.68945-3.10547l17.85791-5.27246c1.32275-.39355,2.71484.36523,3.10547,1.68945.39111,1.32422-.36523,2.71484-1.68945,3.10547l-17.85791,5.27246c-.23633.06982-.47461.10303-.70898.10303Z" fill="#fbb03b"/>
  <path d="M154.25781,131.28882c-1.07959,0-2.07568-.70459-2.39648-1.79248-.39111-1.32422.36523-2.71484,1.68945-3.10547l17.39844-5.13672c1.32471-.39209,2.71436.36523,3.10547,1.68945s-.36523,2.71484-1.68945,3.10547l-17.39844,5.13672c-.23633.06982-.47461.10303-.70898.10303Z" fill="#fbb03b"/>
  <path d="M160.40771,150.40747c-1.07959,0-2.07568-.70459-2.39648-1.79248-.39111-1.32422.36523-2.71484,1.68945-3.10547l18.23389-5.38379c1.3252-.3916,2.71484.36523,3.10547,1.68945.39111,1.32422-.36523,2.71484-1.68945,3.10547l-18.23389,5.38379c-.23633.06982-.47461.10303-.70898.10303Z" fill="#fbb03b"/>
  <path d="M122.05811,237.50708H55.12256c-1.38086,0-2.5-1.11914-2.5-2.5s1.11914-2.5,2.5-2.5h66.93555c1.38086,0,2.5,1.11914,2.5,2.5s-1.11914,2.5-2.5,2.5Z" fill="#fbb03b"/>
  <path d="M173.04834,237.50708h-50.99023c-1.38086,0-2.5-1.11914-2.5-2.5s1.11914-2.5,2.5-2.5h50.99023c1.38086,0,2.5,1.11914,2.5,2.5s-1.11914,2.5-2.5,2.5Z" fill="#fbb03b"/>
  <path d="M89.98682,209.15845h-34.86426c-1.38086,0-2.5-1.11914-2.5-2.5s1.11914-2.5,2.5-2.5h34.86426c1.38086,0,2.5,1.11914,2.5,2.5s-1.11914,2.5-2.5,2.5Z" fill="#fbb03b"/>
  <path d="M46.31055,174.99487h-28.06348c-1.38086,0-2.5-1.11914-2.5-2.5s1.11914-2.5,2.5-2.5h28.06348c1.38086,0,2.5,1.11914,2.5,2.5s-1.11914,2.5-2.5,2.5Z" fill="#fbb03b"/>
  <path d="M177.1416,183.77173c-.2207,0-.44482-.0293-.66797-.09082l-.56836-.15723c-20.42041-5.64648-36.44873-21.06494-42.87549-41.24512-17.41797-54.7002-16.70508-55.58984-15.52393-57.06299.86377-1.07715,2.43848-1.25,3.51416-.38721.75195.60303,1.06348,1.55127.88965,2.43555.16357,1.70557,2.18604,10.47803,15.88477,53.49756,5.91162,18.56445,20.65723,32.74854,39.44336,37.94287l.56885.15723c1.33057.36816,2.11133,1.74561,1.74316,3.07617-.30664,1.10791-1.3125,1.83398-2.4082,1.83398ZM121.41016,88.33911h0Z" fill="#fbb03b"/>
  <path d="M167.39307,206.47583c-.3291,0-.66357-.06494-.98535-.20312-1.26855-.54492-1.85547-2.01465-1.31104-3.28369l19.4917-45.40869c.54492-1.26904,2.01465-1.85693,3.28369-1.31104,1.26855.54492,1.85547,2.01465,1.31104,3.28369l-19.4917,45.40869c-.40674.94678-1.3291,1.51416-2.29834,1.51416Z" fill="#fbb03b"/>
</svg>