<?xml version="1.0" encoding="UTF-8"?>
<svg id="Layer_1" xmlns="http://www.w3.org/2000/svg" version="1.1" viewBox="0 0 250 250">
  <!-- Generator: Adobe Illustrator 29.6.1, SVG Export Plug-In . SVG Version: 2.1.1 Build 9)  -->
  <path d="M25.57837,243.83057c-3.42139,0-6.63818-1.33203-9.05762-3.75195l-5.99121-5.99121c-4.99414-4.99414-4.99414-13.11914,0-18.11328l49.2749-49.27539c.9375-.9375,2.59766-.9375,3.53516,0l20.57031,20.57031c.46924.46875.73242,1.10449.73242,1.76758s-.26318,1.29883-.73242,1.76758l-49.2749,49.27441c-2.41895,2.41992-5.63574,3.75195-9.05664,3.75195ZM61.57202,172.00146l-47.50732,47.50781c-3.04443,3.04492-3.04443,7.99805,0,11.04297l5.9917,5.99121h.00049c1.47461,1.47461,3.43555,2.28711,5.52148,2.28711,2.08545,0,4.04639-.8125,5.521-2.28711l47.50732-47.50684-17.03467-17.03516Z" fill="#fbb03b"/>
  <path d="M82.17114,191.56396c-.64502,0-1.28516-.24805-1.76855-.73242l-20.59766-20.59766c-.85645-.85547-.97607-2.20215-.28418-3.19629,13.72607-19.71484,23.2749-42.58398,29.19189-69.91504l.34766-1.60742c2.48535-11.50391,5.05566-23.39941,9.66064-34.5293,10.03516-24.25586,32.34717-43.10059,58.22852-49.17969,23.98682-5.63672,48.86768.84766,64.93457,16.91406.00098.00098.00244.00195.00342.00293l.0293.0293c16.06689,16.06641,22.54785,40.94824,16.91357,64.93457-6.07959,25.88184-24.92432,48.19336-49.18066,58.22949-11.12891,4.60352-23.02393,7.17383-34.52734,9.66016l-1.60889.34766c-27.33154,5.91699-50.20068,15.46582-69.91455,29.19141-.43262.30078-.93164.44824-1.42773.44824ZM64.8103,168.16846l17.65771,17.65723c19.86963-13.47461,42.78906-22.89941,69.98779-28.78809l1.61035-.34863c11.2876-2.43945,22.95898-4.96094,33.67236-9.39355,22.79443-9.43066,40.50635-30.41016,46.22461-54.75098,5.24121-22.31543-.729-45.4043-15.58154-60.25684-.00098-.00098-.00195-.00098-.00244-.00195-.01025-.00977-.02051-.01953-.03027-.03027-14.85352-14.85254-37.94238-20.82422-60.25586-15.58203-24.3418,5.71777-45.32129,23.42969-54.75195,46.22461-4.43262,10.71387-6.95459,22.38574-9.39355,33.67285l-.34814,1.61035c-5.88818,27.19727-15.31299,50.11621-28.78906,69.9873Z" fill="#fbb03b"/>
  <path d="M87.86743,170.10107c-1.89453,0-3.75879-.74219-5.1875-2.17188-2.354-2.35449-2.84521-5.88867-1.22168-8.79492l13.4375-24.06152c1.07275-1.92188,2.93848-3.19727,5.11865-3.5,2.18506-.30371,4.32471.41602,5.88086,1.97266l11.16846,11.16895c1.55664,1.55664,2.27539,3.69922,1.97266,5.87988-.30322,2.17969-1.5791,4.0459-3.50049,5.11914l-24.05908,13.43848c-1.14258.6377-2.38232.94922-3.60938.94922ZM100.97827,136.50537c-.09131,0-.18311.00684-.27588.01953-.61377.08496-1.13916.44434-1.44141.98535l-13.4375,24.06152h0c-.80811,1.44727.0957,2.52637.39209,2.82227s1.375,1.20117,2.82324.39258l24.05859-13.43848c.5415-.30273.90088-.82812.98633-1.44238s-.11719-1.21777-.55566-1.65625l-11.16797-11.16895c-.37305-.37305-.86523-.5752-1.38184-.5752ZM83.64087,160.35303h.00977-.00977Z" fill="#fbb03b"/>
  <path d="M149.52759,231.98291c-7.55859,0-14.66846-2.94922-20.0293-8.31055-5.35889-5.3584-8.31006-12.48926-8.31006-20.07812.00928-7.56738,2.96094-14.67969,8.31055-20.0293,5.34814-5.34961,12.45996-8.30078,20.02539-8.31055,7.59229,0,14.72314,2.95117,20.08252,8.31055,5.37793,5.37793,8.3291,12.5166,8.31006,20.10059-.01904,7.5625-2.9707,14.66797-8.31006,20.00684h0c-.00049.00098,0,0-.00049,0-5.33936,5.33984-12.44434,8.29199-20.00586,8.31055h-.07275ZM149.52759,180.25439c-6.229.00781-12.0874,2.43945-16.49316,6.8457-4.40723,4.40723-6.83838,10.26562-6.84619,16.49707,0,6.25098,2.43115,12.12598,6.8457,16.54004,4.41553,4.41602,10.27148,6.8457,16.49365,6.8457h.06006c6.23096-.01562,12.08447-2.44727,16.48291-6.8457h.00049c4.39893-4.39844,6.83008-10.25195,6.8457-16.4834.01562-6.24414-2.41553-12.12305-6.8457-16.55371-4.41455-4.41406-10.29004-6.8457-16.54346-6.8457Z" fill="#fbb03b"/>
  <path d="M156.44507,147.61475c-14.83447,0-28.25879-5.33203-38.18848-15.2627-10.95703-10.95605-16.31641-26.16797-15.09082-42.83301,1.21533-16.52637,8.77686-32.52051,21.29248-45.03516,12.51514-12.51562,28.50879-20.07715,45.03564-21.29297,16.65869-1.22363,31.87598,4.13281,42.83301,15.09082,10.95703,10.95605,16.31641,26.16797,15.09082,42.83301-1.21533,16.52637-8.77686,32.52051-21.29248,45.03613h0c-12.51562,12.51562-28.50928,20.07715-45.03564,21.29199-1.56152.11523-3.11084.17188-4.64453.17188ZM174.12329,28.02002c-1.4082,0-2.82861.05176-4.2627.15723-15.33105,1.12793-30.19971,8.1748-41.86719,19.8418s-18.71387,26.53613-19.84131,41.86621c-1.11719,15.19238,3.72705,29.01855,13.63965,38.93164,9.91309,9.91211,23.73779,14.75781,38.93115,13.63965,15.32959-1.12695,30.19971-8.1748,41.86719-19.84082,11.66748-11.66797,18.71387-26.53711,19.84131-41.86719,1.11719-15.19238-3.72705-29.01855-13.63965-38.93164-8.97705-8.97656-21.16504-13.79688-34.66846-13.79688ZM204.35767,124.3833h.00977-.00977Z" fill="#fbb03b"/>
  <g>
    <path d="M111.07104,119.69775c-.63965,0-1.27979-.24414-1.76758-.73242-.97656-.97656-.97656-2.55859,0-3.53516L195.57739,29.15576c.97559-.97656,2.55957-.97656,3.53516,0,.97656.97656.97656,2.55859,0,3.53516l-86.27393,86.27441c-.48779.48828-1.12793.73242-1.76758.73242Z" fill="#fbb03b"/>
    <path d="M133.41138,142.0376c-.63965,0-1.27979-.24414-1.76758-.73242-.97656-.97656-.97656-2.55859,0-3.53516l86.27393-86.27441c.97559-.97656,2.55957-.97656,3.53516,0,.97656.97656.97656,2.55859,0,3.53516l-86.27393,86.27441c-.48779.48828-1.12793.73242-1.76758.73242Z" fill="#fbb03b"/>
  </g>
  <path d="M213.06714,116.42041c-.63965,0-1.27979-.24414-1.76758-.73242l-76.37646-76.37598c-.97656-.97656-.97656-2.55859,0-3.53516.97559-.97656,2.55957-.97656,3.53516,0l76.37646,76.37598c.97656.97656.97656,2.55859,0,3.53516-.48779.48828-1.12793.73242-1.76758.73242Z" fill="#fbb03b"/>
  <path d="M194.10083,135.44775c-.63965,0-1.27979-.24414-1.76758-.73242L115.89624,58.27881c-.97656-.97656-.97656-2.55859,0-3.53516.97559-.97656,2.55957-.97656,3.53516,0l76.43701,76.43652c.97656.97656.97656,2.55859,0,3.53516-.48779.48828-1.12793.73242-1.76758.73242Z" fill="#fbb03b"/>
  <path d="M223.86157,89.2417c-.63965,0-1.27979-.24414-1.76758-.73242l-60.02197-60.02148c-.97656-.97656-.97656-2.55859,0-3.53516.97559-.97656,2.55957-.97656,3.53516,0l60.02197,60.02148c.97656.97656.97656,2.55859,0,3.53516-.48779.48828-1.12793.73242-1.76758.73242Z" fill="#fbb03b"/>
  <path d="M167.30542,146.63037c-.63965,0-1.27979-.24414-1.76758-.73242l-60.82422-60.82422c-.97656-.97656-.97656-2.55859,0-3.53516.97559-.97656,2.55957-.97656,3.53516,0l60.82422,60.82422c.97656.97656.97656,2.55859,0,3.53516-.48779.48828-1.12793.73242-1.76758.73242Z" fill="#fbb03b"/>
</svg>