<?xml version="1.0" encoding="UTF-8"?>
<svg id="Layer_1" xmlns="http://www.w3.org/2000/svg" version="1.1" viewBox="0 0 250 250">
  <!-- Generator: Adobe Illustrator 29.6.1, SVG Export Plug-In . SVG Version: 2.1.1 Build 9)  -->
  <g>
    <path d="M31.95044,243.86035c-2.146.00049-4.19482-.84375-5.73145-2.38623l-20.43066-20.43115c-1.76172-1.75391-2.6123-4.18359-2.32959-6.66211.28418-2.49072,1.66895-4.67822,3.79883-6.00244,6.98096-4.33545,13.85156-9.08447,20.42188-14.1167,16.25684-12.42773,24.18848-18.82812,26.84912-28.45215,2.37012-8.55029-.46973-15.81641-3.21582-22.84326-.64795-1.65723-1.31787-3.37109-1.896-5.05225-2.86426-8.32617-4.18945-17.6001-3.93896-27.56348.68262-27.40576,13.02539-53.73145,24.86523-65.57129,20.93115-20.93164,47.45752-33.78955,74.69238-36.20508,27.40576-2.43506,52.24316,5.98291,69.9458,23.69043,27.04443,27.03516,31.84277,70.29346,12.24414,110.22559-.60742,1.23926-2.10449,1.75195-3.3457,1.14258-1.23926-.6084-1.75098-2.10596-1.14258-3.3457,18.64111-37.98193,14.21729-78.98682-11.27051-104.46582-16.65918-16.66406-40.08496-24.56592-65.98926-22.2666-26.06836,2.31201-51.49609,14.65674-71.59912,34.75977-11.13721,11.13818-22.75195,36.06641-23.40234,62.16162-.23535,9.36621.99902,18.05029,3.66895,25.81152.54492,1.5835,1.1665,3.17432,1.82471,4.85889,2.90234,7.42627,6.19238,15.84375,3.37793,25.99707-3.22607,11.66895-12.78809,18.97852-28.62939,31.08936-6.69775,5.12939-13.70361,9.97217-20.82178,14.39258-.82373.51172-1.35986,1.3584-1.46973,2.32227-.1084.95117.21729,1.88281.89355,2.55615l20.43799,20.43848c.67725.67969,1.6084,1.00732,2.56152.89697.96289-.10986,1.80908-.64551,2.32129-1.47021,4.41846-7.11475,9.26172-14.12109,14.39404-20.82227,12.10938-15.84033,19.41943-25.40234,31.08984-28.62891,10.1499-2.81152,18.56934.47607,25.99512,3.37891,1.68457.6582,3.27539,1.27979,4.85938,1.8252,15.40186,5.29346,34.56689,4.89844,53.96484-1.11377,1.31982-.4082,2.71973.3291,3.12842,1.64795s-.3291,2.71924-1.64795,3.12842c-20.40479,6.32227-40.67334,6.7002-57.07129,1.06543-1.68213-.57861-3.396-1.24854-5.05322-1.89648-7.02783-2.74658-14.29443-5.58643-22.8418-3.2168-9.625,2.66113-16.02539,10.59277-28.45215,26.84863-5.03516,6.57422-9.78467,13.44434-14.11768,20.42236-1.32422,2.13037-3.51172,3.51514-6.00195,3.79932-.31299.03564-.62598.05322-.93604.05322Z" fill="#fbb03b"/>
    <path d="M47.0896,225.85156c-.64014,0-1.27979-.24414-1.76807-.73242l-23.15967-23.16992c-.97607-.97656-.97607-2.55957.00049-3.53564.97656-.97656,2.55908-.97607,3.53564.00049l23.15967,23.16992c.97607.97656.97607,2.55957-.00049,3.53564-.48828.48779-1.12793.73193-1.76758.73193Z" fill="#fbb03b"/>
    <path d="M136.02368,200.95752c-.63965,0-1.27979-.24414-1.76758-.73242L46.21069,112.17969c-.97656-.97607-.97656-2.55908,0-3.53516.97559-.97656,2.55957-.97656,3.53516,0l88.04541,88.04541c.97656.97607.97656,2.55908,0,3.53516-.48779.48828-1.12793.73242-1.76758.73242Z" fill="#fbb03b"/>
  </g>
  <path d="M200.71802,204.49121c-16.17676,0-29.33789-13.16113-29.33789-29.33789s13.16113-29.3374,29.33789-29.3374,29.33789,13.16064,29.33789,29.3374-13.16113,29.33789-29.33789,29.33789ZM200.71802,150.81592c-13.41992,0-24.33789,10.91748-24.33789,24.3374s10.91797,24.33789,24.33789,24.33789,24.33789-10.91797,24.33789-24.33789-10.91797-24.3374-24.33789-24.3374Z" fill="#fbb03b"/>
</svg>