<?xml version="1.0" encoding="UTF-8"?>
<svg id="Layer_1" xmlns="http://www.w3.org/2000/svg" version="1.1" viewBox="0 0 250 250">
  <!-- Generator: Adobe Illustrator 29.6.1, SVG Export Plug-In . SVG Version: 2.1.1 Build 9)  -->
  <path d="M230.65942,165.84766c-.42578,0-.85742-.10889-1.25195-.33789l-32.58398-18.89014c-1.19434-.69238-1.60156-2.22217-.90918-3.4165.69336-1.19434,2.22461-1.60107,3.41699-.90869l32.58398,18.89014c1.19434.69238,1.60156,2.22217.90918,3.4165-.46387.7998-1.30273,1.24658-2.16504,1.24658Z" fill="#fbb03b"/>
  <path d="M246.12524,202.97266c-.42578,0-.85742-.10889-1.25195-.33789l-32.58301-18.89014c-1.19434-.69238-1.60156-2.22217-.90918-3.4165.69336-1.19385,2.22363-1.60059,3.41699-.90869l32.58301,18.89014c1.19434.69238,1.60156,2.22217.90918,3.4165-.46387.7998-1.30273,1.24658-2.16504,1.24658Z" fill="#fbb03b"/>
  <path d="M200.00415,205.5625c-.42578,0-.85742-.10889-1.25195-.33789l-32.58301-18.89014c-1.19434-.69238-1.60156-2.22217-.90918-3.4165.69336-1.19434,2.22461-1.60107,3.41699-.90869l32.58301,18.89014c1.19434.69238,1.60156,2.22217.90918,3.4165-.46387.7998-1.30273,1.24658-2.16504,1.24658Z" fill="#fbb03b"/>
  <path d="M155.44946,165.82227c-20.24609,0-48.70557-7.99756-78.28418-23.20068-23.33545-11.99463-43.59814-26.61133-57.05566-41.1582C6.07886,86.29736,1.01733,72.75977,5.85718,63.34326c9.71924-18.90576,56.2666-13.70605,105.97021,11.8418,23.33496,11.99463,43.59766,26.61133,57.05566,41.1582,14.03027,15.16602,19.0918,28.70361,14.25195,38.12012-3.93555,7.65527-13.90918,11.35889-27.68555,11.35889ZM33.55054,56.99561c-12.08643,0-20.36523,3.02783-23.24609,8.63379-3.75293,7.30127,1.15869,19.125,13.4751,32.43896,13.07129,14.12891,32.84229,28.37207,55.67188,40.10596,45.63721,23.45703,91.0791,29.86963,99.23633,14.00293,3.75293-7.30127-1.1582-19.125-13.47559-32.43896-13.07031-14.12891-32.84131-28.37207-55.6709-40.10596-30.39062-15.62061-57.59766-22.63672-75.99072-22.63672Z" fill="#fbb03b"/>
  <path d="M154.63208,146.0459c-17.0918,0-41.01855-6.70654-65.8667-19.47803-19.62988-10.09424-36.67871-22.39648-48.00586-34.64062-11.90186-12.86572-16.17236-24.39209-12.02441-32.45654,1.6123-3.12988,4.36719-5.54688,8.18848-7.18408,1.27002-.54395,2.73926.04395,3.28271,1.31299.54395,1.26953-.04395,2.73877-1.31299,3.28271-2.7251,1.16797-4.64697,2.80859-5.7124,4.87695-3.06982,5.96777,1.03027,15.72607,11.24902,26.77246,10.94043,11.82666,27.49805,23.75537,46.62158,33.58936,42.06006,21.61768,76.75146,23.61768,82.76318,11.92041.47559-.9209.78125-1.95654.91016-3.08105.15625-1.37158,1.38672-2.35205,2.76758-2.19971,1.37207.15723,2.35645,1.39648,2.19922,2.76807-.19727,1.729-.67969,3.34473-1.43164,4.80273-3.36426,6.54541-11.88379,9.71436-23.62793,9.71436Z" fill="#fbb03b"/>
  <path d="M134.02173,111.87793c-9.04297.00049-21.58203-3.38184-34.41992-9.50732-10.39355-4.94629-19.52832-11.01855-25.71973-17.09717-6.91895-6.79248-9.41553-12.81445-7.22021-17.41553,1.37598-2.89355,5.18311-6.20605,15.50244-5.56836,1.37793.08594,2.42529,1.27295,2.33936,2.65088-.08545,1.37744-1.26318,2.43262-2.65088,2.33936-5.70312-.35596-9.6958.66406-10.67676,2.72803-1.12354,2.35449,1.25635,6.83594,6.2085,11.69775,5.80615,5.69971,14.46045,11.43604,24.36816,16.15137,15.40381,7.34961,31.11865,10.72559,38.22412,8.20508,1.37402-.4873,2.27344-1.16064,2.67383-2.00195.70898-1.48389-.09375-3.55176-.89062-5.02588-.65723-1.21436-.20605-2.73145,1.00879-3.38867,1.21191-.65674,2.73047-.20557,3.3877,1.00879,2.44629,4.52051,1.89844,7.69238,1.00781,9.55713-.98926,2.08008-2.84668,3.6167-5.5166,4.56348-2.09473.74268-4.6748,1.10303-7.62598,1.10303Z" fill="#fbb03b"/>
</svg>