<?xml version="1.0" encoding="UTF-8"?>
<svg id="Layer_1" xmlns="http://www.w3.org/2000/svg" version="1.1" viewBox="0 0 250 250">
  <!-- Generator: Adobe Illustrator 29.6.1, SVG Export Plug-In . SVG Version: 2.1.1 Build 9)  -->
  <path d="M110.47974,117.74878c-29.95215,0-66.53906-26.17383-66.53906-56.72168,0-31.27637,29.84912-56.72119,66.53906-56.72119,19.95117,0,36.8623,5.71289,48.90625,16.52148,11.36475,10.19971,17.62402,24.47607,17.62402,40.19971,0,.7876-.01953,1.56592-.05811,2.34375-.06836,1.37939-1.23633,2.43896-2.62109,2.37305-1.37891-.06885-2.44141-1.24219-2.37305-2.62109.03467-.6958.05225-1.39111.05225-2.0957,0-14.28467-5.66943-27.23975-15.96387-36.47852-11.11133-9.97168-26.86816-15.24268-45.56641-15.24268-33.93262,0-61.53906,23.20215-61.53906,51.72119,0,13.02344,7.34912,25.93945,20.69385,36.36963,12.11572,9.46973,27.7666,15.35205,40.84521,15.35205,16.18701,0,30.09473-4.5127,41.33691-13.41211,1.08252-.85791,2.65527-.67529,3.51172.4082.85693,1.08252.67432,2.65479-.4082,3.51172-12.14697,9.61621-27.09912,14.49219-44.44043,14.49219Z" fill="#fbb03b"/>
  <path d="M72.69751,184.40796c-.7207,0-1.43506-.30957-1.92969-.90869-7.01855-8.50439-12.20947-18.61084-15.01172-29.22559-4.52002-17.11914-7.11182-34.77148-7.70361-52.4668-.20605-6.1626-.61182-11.61914-1.23975-16.68018l-1.92236-15.50049c-.16992-1.37012.80322-2.61865,2.17334-2.78857,1.37158-.17383,2.61865.80322,2.78857,2.17334l1.92236,15.5c.64697,5.21143,1.06396,10.81445,1.2749,17.12891.57959,17.32129,3.1167,34.6001,7.54053,51.35742,2.61914,9.92139,7.47217,19.36816,14.03418,27.31934.87891,1.06494.72803,2.64062-.33691,3.51953-.46582.38428-1.02979.57178-1.58984.57178Z" fill="#fbb03b"/>
  <path d="M151.07397,184.40796c-.74951,0-1.49072-.33545-1.98291-.9751-.84229-1.09424-.63818-2.66406.45605-3.50586l4.65527-3.58301c22.54297-17.35205,44.79199-69.99121,45.01416-70.521.03076-.07324.06494-.14502.10254-.21484,1.17236-2.18555,1.72314-5.19385,1.63672-8.94141-.35254-15.30859-11.76758-28.31396-27.14209-30.92334-3.47803-.59033-7.23584-1.08936-11.16943-1.4834-5.13281-.5127-10.10596,1.31592-13.65186,5.02002l-1.49609,1.5625c-5.47461,5.71826-6.12598,14.55762-1.54834,21.01758,2.1123,2.98047,5.2002,5.20654,8.69482,6.26758l12.49414,3.79492c1.32129.40137,2.06689,1.79736,1.66553,3.11865-.40088,1.32178-1.79785,2.06689-3.11865,1.66553l-12.49414-3.79492c-4.55029-1.38184-8.5708-4.28027-11.32129-8.16064-5.96045-8.41162-5.1123-19.92041,2.0166-27.3667l1.49609-1.5625c4.6167-4.82227,11.08643-7.20068,17.76123-6.53711,4.04639.40527,7.91797.91992,11.50781,1.52881,17.73145,3.00928,30.89648,18.03955,31.30469,35.73779.10449,4.56543-.62598,8.37012-2.17139,11.31104-1.43506,3.40625-23.23389,54.51123-46.53125,72.44336l-4.65527,3.58301c-.45459.3501-.99072.51904-1.52295.51904Z" fill="#fbb03b"/>
  <path d="M141.97437,245.69409h-60.18115c-6.39453,0-11.59717-5.20215-11.59717-11.59668v-52.18945c0-1.38086,1.11914-2.5,2.5-2.5h78.37598c1.38086,0,2.5,1.11914,2.5,2.5v52.18945c0,6.39453-5.20264,11.59668-11.59766,11.59668ZM75.19604,184.40796v49.68945c0,3.63721,2.95947,6.59668,6.59717,6.59668h60.18115c3.63818,0,6.59766-2.95947,6.59766-6.59668v-49.68945h-73.37598Z" fill="#fbb03b"/>
  <path d="M151.07397,226.38257h-35.80957c-8.45312,0-15.33008-6.87695-15.33008-15.33008s6.87695-15.33008,15.33008-15.33008h35.80957c1.38086,0,2.5,1.11914,2.5,2.5s-1.11914,2.5-2.5,2.5h-35.80957c-5.6958,0-10.33008,4.63428-10.33008,10.33008s4.63428,10.33008,10.33008,10.33008h35.80957c1.38086,0,2.5,1.11914,2.5,2.5s-1.11914,2.5-2.5,2.5Z" fill="#fbb03b"/>
</svg>