<?xml version="1.0" encoding="UTF-8"?>
<svg id="Layer_1" xmlns="http://www.w3.org/2000/svg" version="1.1" viewBox="0 0 250 250">
  <!-- Generator: Adobe Illustrator 29.6.1, SVG Export Plug-In . SVG Version: 2.1.1 Build 9)  -->
  <path d="M61.05493,239.40527c-18.07422.00098-32.68164-3.47461-39.14355-9.9375-9.74512-9.74512-12.69824-38.01953-7.18213-68.75879,3.91943-21.83984,15.56396-63.54785,49.51709-97.50098C97.44751,30.00586,140.64722,18.95996,163.44312,15.33008c29.75781-4.73633,59.21484-2.30273,67.0625,5.54297h0c.00049,0,0-.00098,0,0,7.84668,7.8457,10.28125,37.30371,5.54297,67.0625-3.62939,22.7959-14.67578,65.99609-47.87744,99.19727-33.95264,33.95312-75.66113,45.59766-97.50098,49.5166-10.35498,1.8584-20.43359,2.75586-29.61523,2.75586ZM193.21167,17.86914c-8.53906,0-18.32422.70215-28.98193,2.39844-22.19775,3.53516-64.24512,14.27246-96.44824,46.47559-32.98779,32.98828-44.31494,73.58594-48.13086,94.84961-5.84766,32.58594-1.51074,57.0332,5.7959,64.33984s31.75293,11.64062,64.34033,5.7959c21.26318-3.81641,61.86084-15.14355,94.84912-48.13086,32.20312-32.20312,42.94043-74.25098,46.47461-96.44824,5.25195-32.98438.96973-57.63086-4.14014-62.74121h0c-3.45898-3.45898-15.87109-6.53906-33.75879-6.53906Z" fill="#fbb03b"/>
  <path d="M235.51782,73.37207c-.78223,0-1.55273-.36621-2.04004-1.05176-14.92822-21.01465-33.09229-39.3418-53.98828-54.47363-1.11816-.80957-1.36816-2.37207-.55859-3.49023.80908-1.11914,2.37256-1.37012,3.49121-.55859,21.33838,15.45117,39.88721,34.16699,55.13184,55.62598.7998,1.12598.53516,2.68652-.59033,3.48633-.43945.3125-.94482.46191-1.4458.46191Z" fill="#fbb03b"/>
  <path d="M226.86401,118.73047c-.66895,0-1.33594-.26758-1.82764-.79688-.15381-.16602-.29053-.3584-.39453-.55859-20.1709-38.9668-51.33643-70.37402-90.12793-90.82617-1.22119-.64453-1.68945-2.15625-1.04541-3.37793s2.15625-1.68652,3.37744-1.0459c39.68213,20.92285,71.56641,53.0459,92.20947,92.89941.53857.98145.36768,2.24121-.48926,3.03613-.48193.44824-1.09326.66992-1.70215.66992Z" fill="#fbb03b"/>
  <path d="M76.06323,238.66211c-.46875,0-.94238-.13086-1.36426-.40625-23.94189-15.63086-44.72803-35.20996-61.78125-58.19434-.82275-1.1084-.59082-2.67383.51807-3.49707,1.10986-.82324,2.6748-.58984,3.49756.51855,16.69922,22.50684,37.0542,41.67969,60.49902,56.98535,1.15625.75488,1.48145,2.30469.72656,3.45996-.47949.73535-1.2793,1.13379-2.0957,1.13379Z" fill="#fbb03b"/>
  <path d="M120.95728,228.50293c-.40381,0-.80859-.09766-1.17578-.29492-41.82666-19.79395-75.72754-51.6875-98.04004-92.2334-.57422-.98828-.4126-2.27832.45996-3.08789,1.01123-.94141,2.59033-.88379,3.52979.12695l.00635.00684c.13916.15039.25977.31738.3584.49609,21.8208,39.67773,54.99219,70.875,95.92822,90.2207.22949.1084.44092.25195.62744.42383,1.01465.93652,1.08105,2.52051.14453,3.53516-.49365.53516-1.16553.80664-1.83887.80664Z" fill="#fbb03b"/>
  <path d="M169.93823,100.58691c-.63965,0-1.27979-.24414-1.76758-.73242l-17.79395-17.79395c-.97656-.97656-.97656-2.55859,0-3.53516.97559-.97656,2.55957-.97656,3.53516,0l17.79395,17.79395c.97656.97656.97656,2.55859,0,3.53516-.48779.48828-1.12793.73242-1.76758.73242Z" fill="#fbb03b"/>
  <path d="M151.58228,118.94336c-.63965,0-1.27979-.24414-1.76758-.73242l-17.79443-17.79395c-.97656-.97656-.97656-2.55859,0-3.53516.97559-.97656,2.55957-.97656,3.53516,0l17.79443,17.79395c.97656.97656.97656,2.55859,0,3.53516-.48779.48828-1.12793.73242-1.76758.73242Z" fill="#fbb03b"/>
  <path d="M133.22534,137.2998c-.63965,0-1.27979-.24414-1.76758-.73242l-17.79395-17.79395c-.97656-.97656-.97656-2.55859,0-3.53516.97559-.97656,2.55957-.97656,3.53516,0l17.79395,17.79395c.97656.97656.97656,2.55859,0,3.53516-.48779.48828-1.12793.73242-1.76758.73242Z" fill="#fbb03b"/>
  <path d="M114.8689,155.65625c-.63965,0-1.27979-.24414-1.76758-.73242l-17.79395-17.79395c-.97656-.97656-.97656-2.55859,0-3.53516.97559-.97656,2.55957-.97656,3.53516,0l17.79395,17.79395c.97656.97656.97656,2.55859,0,3.53516-.48779.48828-1.12793.73242-1.76758.73242Z" fill="#fbb03b"/>
  <path d="M96.51245,174.0127c-.63965,0-1.27979-.24414-1.76758-.73242l-17.79395-17.79395c-.97656-.97656-.97656-2.55859,0-3.53516.97559-.97656,2.55957-.97656,3.53516,0l17.79395,17.79395c.97656.97656.97656,2.55859,0,3.53516-.48779.48828-1.12793.73242-1.76758.73242Z" fill="#fbb03b"/>
  <path d="M79.29956,173.43164c-.63965,0-1.27979-.24414-1.76758-.73242-.97656-.97656-.97656-2.55859,0-3.53516l90.11865-90.11816c.97559-.97656,2.55957-.97656,3.53516,0,.97656.97656.97656,2.55859,0,3.53516l-90.11865,90.11816c-.48779.48828-1.12793.73242-1.76758.73242Z" fill="#fbb03b"/>
</svg>