<?xml version="1.0" encoding="UTF-8"?>
<svg id="Layer_1" xmlns="http://www.w3.org/2000/svg" version="1.1" viewBox="0 0 250 250">
  <!-- Generator: Adobe Illustrator 29.6.1, SVG Export Plug-In . SVG Version: 2.1.1 Build 9)  -->
  <path d="M164.48755,200.9502c-1.10498,0-2.11572-.73779-2.41406-1.85645-.35596-1.33398.4375-2.7041,1.77148-3.05957,14.24854-3.7998,24.19971-16.76611,24.19971-31.53271v-2.29688c0-15.04346-10.19971-28.07031-24.8042-31.67871l-91.12695-22.51611c-2.00977-.49707-3.77881-.76709-5.40723-.82568-7.12061-.25684-14.16016,2.45312-19.32617,7.43604-5.22168,5.03662-8.09766,11.8125-8.09766,19.08008v22.51025c0,17.43604,11.06299,32.98047,27.52832,38.68115,1.30469.45166,1.99609,1.87549,1.54443,3.18018-.45166,1.3042-1.87158,1.99658-3.18018,1.54443-18.47803-6.39697-30.89258-23.84033-30.89258-43.40576v-22.51025c0-8.63721,3.41895-16.69141,9.62646-22.67871,6.13818-5.92041,14.51416-9.13916,22.97803-8.83447,1.97656.07178,4.07812.38818,6.42578.96826l91.12695,22.51611c16.84229,4.16162,28.60498,19.18457,28.60498,36.5332v2.29688c0,17.02832-11.47754,31.98145-27.91162,36.36377-.21582.05762-.43262.08496-.64551.08496Z" fill="#fbb03b"/>
  <path d="M188.52173,152.95898c-.15186,0-.30566-.01367-.45996-.04248-1.35742-.25244-2.25342-1.55762-2.00098-2.91504l9.76025-52.48633-19.67822-3.65479-6.62939,35.6626c-.25244,1.35791-1.55615,2.25146-2.91504,2.00098-1.35742-.25244-2.25342-1.55762-2.00098-2.91504l7.08643-38.11963c.25195-1.35693,1.55713-2.25586,2.91406-2.00098l24.59424,4.56738c.65234.12109,1.22949.49609,1.60498,1.04297.37549.54639.51807,1.22021.39697,1.87207l-10.21729,54.94482c-.22363,1.20312-1.27441,2.04346-2.45508,2.04346Z" fill="#fbb03b"/>
  <path d="M176.60034,93.89746c-.15186,0-.30566-.01367-.45996-.04248-1.35742-.25244-2.25342-1.55762-2.00098-2.91504L190.50952,2.91992c.25244-1.35791,1.56152-2.25537,2.91504-2.00098,1.35742.25244,2.25342,1.55762,2.00098,2.91504l-16.37012,88.02002c-.22363,1.20312-1.27441,2.04346-2.45508,2.04346Z" fill="#fbb03b"/>
  <path d="M196.64038,97.62744c-.15186,0-.30566-.01367-.45996-.04248-1.35742-.25244-2.25342-1.55762-2.00098-2.91504L210.54907,6.6499c.25195-1.35791,1.56152-2.25342,2.91504-2.00098,1.35742.25244,2.25342,1.55762,2.00098,2.91504l-16.36963,88.02002c-.22363,1.20312-1.27441,2.04346-2.45508,2.04346Z" fill="#fbb03b"/>
  <path d="M106.60425,249.33545c-1.38086,0-2.5-1.11914-2.5-2.5,0-4.12354-1.47852-8.11865-4.16309-11.24902l-14.56299-16.98145c-.63574-.74121-.78174-1.78467-.37402-2.67188s1.29492-1.45557,2.27148-1.45557h59.87549c.96045,0,1.83594.55029,2.25244,1.41553s.30078,1.89258-.29834,2.64355l-13.6626,17.12598c-2.43213,3.04883-3.77148,6.87598-3.77148,10.77637,0,1.38086-1.11914,2.5-2.5,2.5s-2.5-1.11914-2.5-2.5c0-5.0293,1.72705-9.96387,4.86328-13.89453l10.42432-13.06689h-49.24561l11.02344,12.854c3.46143,4.03613,5.36768,9.18701,5.36768,14.50391,0,1.38086-1.11914,2.5-2.5,2.5Z" fill="#fbb03b"/>
  <path d="M130.68384,219.47559c-.99072,0-1.92822-.59229-2.32031-1.56787-.51514-1.28076.10547-2.73682,1.38672-3.25195,12.81055-5.15234,21.08838-17.40283,21.08838-31.20898,0-18.54102-15.08398-33.62549-33.625-33.62549s-33.62549,15.08447-33.62549,33.62549c0,13.81738,8.28076,26.06689,21.09619,31.20801,1.28174.51416,1.90381,1.96973,1.38965,3.25098-.51367,1.28174-1.96729,1.90576-3.25098,1.38965-14.72217-5.90576-24.23486-19.97705-24.23486-35.84863,0-21.29834,17.32715-38.62549,38.62549-38.62549s38.625,17.32715,38.625,38.62549c0,15.8584-9.5083,29.92969-24.22314,35.84766-.30566.12305-.62109.18115-.93164.18115Z" fill="#fbb03b"/>
</svg>