<?xml version="1.0" encoding="UTF-8"?>
<svg id="Layer_1" xmlns="http://www.w3.org/2000/svg" version="1.1" viewBox="0 0 250 250">
  <!-- Generator: Adobe Illustrator 29.6.1, SVG Export Plug-In . SVG Version: 2.1.1 Build 9)  -->
  <path d="M56.34375,244.34229c-11.98047,0-23.96094-4.56006-33.08105-13.68066h0l-1.72852-1.72852c-18.24023-18.24072-18.24023-47.9209,0-66.16162l17.09375-17.09277c.97656-.97656,2.55859-.97656,3.53516,0l64.35449,64.35449c.97656.97607.97656,2.55908,0,3.53516l-17.09277,17.09326c-9.12012,9.12061-21.10059,13.68066-33.08105,13.68066ZM26.79785,227.12646c16.29102,16.29102,42.80078,16.29102,59.0918,0l15.3252-15.32568-60.81934-60.81885-15.32617,15.32471c-16.29004,16.2915-16.29004,42.7998,0,59.09131l1.72852,1.72852Z" fill="#fbb03b"/>
  <path d="M101.64062,211.40869c-.63965,0-1.2793-.24414-1.76758-.73242-.97656-.97607-.97656-2.55908,0-3.53516l9.77832-9.77881c.12695-.12744.15332-.27246.15332-.37109,0-.09912-.02637-.24414-.15332-.37109l-53.9043-53.90527c-.20605-.20459-.53906-.2041-.74316.00049l-9.77832,9.77832c-.97656.97656-2.55859.97656-3.53516,0-.97656-.97607-.97656-2.55908,0-3.53516l9.77832-9.77881c2.15234-2.15381,5.65723-2.15527,7.81348-.00049l53.9043,53.90527c1.04395,1.04297,1.61816,2.43066,1.61816,3.90674,0,1.47559-.57422,2.86328-1.61816,3.90674l-9.77832,9.77832c-.48828.48828-1.12793.73242-1.76758.73242Z" fill="#fbb03b"/>
  <g>
    <path d="M66.38867,152.3291c-.44434,0-.89355-.11816-1.2998-.36621-1.17871-.71924-1.55176-2.25781-.83203-3.43652L137.20801,28.95459l-10.04004-17.88721-20.2627,3.50293-48.66602,126.43896c-.49512,1.2876-1.9375,1.93213-3.23145,1.43506-1.28809-.49561-1.93066-1.94238-1.43457-3.23096L102.74902,11.45068c.31543-.82129,1.04004-1.41553,1.90723-1.56543l23.40137-4.0459c1.04102-.18164,2.08691.31592,2.60547,1.23975l11.62109,20.70459c.44238.78809.4248,1.75391-.0459,2.52588l-73.71387,120.82129c-.4707.77197-1.29297,1.19824-2.13574,1.19824Z" fill="#fbb03b"/>
    <path d="M77.32324,163.2627c-.5791,0-1.16016-.19971-1.63281-.60742-1.04492-.90234-1.16113-2.48096-.25879-3.52637l93.6543-108.48242-6.97949-19.29248-21.98438.15332h-.01758c-1.37305,0-2.49023-1.10791-2.5-2.48242-.00977-1.38086,1.10156-2.50781,2.48242-2.51758l23.75195-.16553h.01758c1.05273,0,1.99219.65918,2.35059,1.64941l8.07812,22.33057c.30762.8501.13281,1.7998-.45801,2.48438l-94.61035,109.59033c-.49414.57275-1.19238.86621-1.89355.86621Z" fill="#fbb03b"/>
    <path d="M112.25586,198.95996c-1.00488,0-1.95215-.60938-2.33398-1.60254-.49609-1.28857.14648-2.73535,1.43457-3.23096l126.43848-48.6665,3.50293-20.26221-17.88965-10.03906-119.56934,72.95068c-1.17578.71875-2.7168.34766-3.43555-.83203-.71973-1.17871-.34668-2.71729.83203-3.43652l120.82129-73.71436c.82031-.50098,1.83984-.47852,2.62793.01465l20.60156,11.56104c.92383.51855,1.41992,1.5625,1.24023,2.60596l-4.0459,23.40137c-.15039.86719-.74512,1.59131-1.56543,1.90723l-127.76172,49.17578c-.2959.11377-.59961.16748-.89746.16748Z" fill="#fbb03b"/>
    <path d="M91.60449,177.5415c-.70117,0-1.39941-.29346-1.89355-.86621-.90234-1.04541-.78613-2.62402.25879-3.52637l109.59668-94.604c.68555-.59033,1.63379-.76562,2.48438-.4585l22.33008,8.07812c.99609.36035,1.65625,1.30908,1.64941,2.36865l-.16504,23.75195c-.00977,1.37451-1.12695,2.48242-2.5,2.48242h-.01758c-1.38086-.00977-2.49219-1.13672-2.48242-2.51758l.15234-21.98486-19.29199-6.979-108.48828,93.64795c-.47266.40771-1.05371.60742-1.63281.60742Z" fill="#fbb03b"/>
  </g>
  <path d="M201.33691,82.88477c-1.27637,0-2.36523-.97217-2.48633-2.26807l-2.30176-24.70605-24.70703-2.30225c-1.37402-.12793-2.38477-1.34668-2.25684-2.72119.12891-1.375,1.35254-2.37842,2.72168-2.25732l26.77148,2.49463c1.19727.11182,2.14551,1.06006,2.25684,2.25732l2.49414,26.771c.12793,1.375-.88281,2.59326-2.25781,2.72119-.07812.00732-.15723.01074-.23438.01074Z" fill="#fbb03b"/>
</svg>