<?xml version="1.0" encoding="UTF-8"?>
<svg id="Layer_1" xmlns="http://www.w3.org/2000/svg" version="1.1" viewBox="0 0 250 250">
  <!-- Generator: Adobe Illustrator 29.6.1, SVG Export Plug-In . SVG Version: 2.1.1 Build 9)  -->
  <path d="M165.91699,182.63501c-.39209,0-.79004-.09229-1.16113-.2876-1.22217-.64209-1.69238-2.15381-1.0498-3.37598L242.43701,29.17456c.64258-1.22168,2.1543-1.69141,3.37598-1.0498,1.22217.64209,1.69238,2.15381,1.0498,3.37598l-78.73096,149.79688c-.44727.85107-1.31592,1.3374-2.21484,1.3374Z" fill="#fbb03b"/>
  <path d="M88.26221,218.11792h-55.43164c-9.34473,0-17.65088-5.9375-20.66895-14.77441l-8.43701-24.61865c-1.22998-3.58691-.67236-7.41357,1.53027-10.49805,2.20215-3.08301,5.64014-4.85156,9.43213-4.85156h115.21045c2.89307,0,5.55127-1.45312,7.11084-3.8877L227.66162,18.0896c.74463-1.1626,2.2915-1.50098,3.45361-.75537,1.1626.74512,1.50049,2.2915.75537,3.45361l-90.65283,141.39746c-2.48291,3.87598-6.71484,6.18994-11.32031,6.18994H14.68701c-2.15674,0-4.11182,1.00537-5.36328,2.75781-1.25244,1.75342-1.56885,3.9292-.86914,5.97021l8.4375,24.62158c2.32812,6.81543,8.73242,11.39307,15.93848,11.39307h55.43164c1.38086,0,2.5,1.11914,2.5,2.5s-1.11914,2.5-2.5,2.5Z" fill="#fbb03b"/>
  <path d="M48.51074,218.12085c-1.04688,0-2.02197-.6626-2.37109-1.70996l-16.57666-49.74805c-.43652-1.31006.27148-2.72607,1.58105-3.16211,1.30713-.4375,2.7251.271,3.16211,1.58105l16.57666,49.74805c.43652,1.31006-.27148,2.72607-1.58105,3.16211-.26221.0874-.52881.12891-.79102.12891Z" fill="#fbb03b"/>
  <path d="M130.45605,212.88696c-16.28711,0-33.59766-5.2168-33.59766-14.88428s17.31055-14.88379,33.59766-14.88379,33.59717,5.21631,33.59717,14.88379-17.31006,14.88428-33.59717,14.88428ZM130.45605,188.1189c-17.71826,0-28.59766,5.75684-28.59766,9.88379,0,4.12744,10.87939,9.88428,28.59766,9.88428s28.59717-5.75684,28.59717-9.88428c0-4.12695-10.87939-9.88379-28.59717-9.88379Z" fill="#fbb03b"/>
  <path d="M130.45605,233.41138c-16.28711,0-33.59766-5.2168-33.59766-14.88428v-18.6543c0-1.38086,1.11914-2.5,2.5-2.5s2.5,1.11914,2.5,2.5v18.6543c0,4.12744,10.87939,9.88428,28.59766,9.88428s28.59717-5.75684,28.59717-9.88428v-18.6543c0-1.38086,1.11914-2.5,2.5-2.5s2.5,1.11914,2.5,2.5v18.6543c0,9.66748-17.31006,14.88428-33.59717,14.88428Z" fill="#fbb03b"/>
  <path d="M181.69287,152.61792c-.5166,0-1.0376-.15918-1.48486-.49023l-24.22021-17.92139c-1.11035-.82129-1.34424-2.38672-.52295-3.49658.8208-1.11035,2.38672-1.34424,3.49658-.52295l24.22021,17.92139c1.11035.82129,1.34424,2.38672.52295,3.49658-.49023.66309-1.24609,1.01318-2.01172,1.01318Z" fill="#fbb03b"/>
</svg>