<?xml version="1.0" encoding="UTF-8"?>
<svg id="Layer_1" xmlns="http://www.w3.org/2000/svg" version="1.1" viewBox="0 0 250 250">
  <!-- Generator: Adobe Illustrator 29.6.1, SVG Export Plug-In . SVG Version: 2.1.1 Build 9)  -->
  <path d="M124.95459,242.61792c-28.53271.00098-57.13672-10.28418-79.71973-31.10254C-2.47656,167.53247-5.50977,92.93432,38.47314,45.22338,82.45312-2.48511,157.0542-5.51246,204.76514,38.46118h0c47.71143,43.98291,50.74463,118.58105,6.76221,166.29248-23.16455,25.12793-54.82422,37.86328-86.57275,37.86426ZM125.04395,12.35669c-30.40332,0-60.71191,12.19238-82.89502,36.25537C.03516,94.29614,2.93945,165.72485,48.62354,207.8396c22.13037,20.40039,50.8877,30.97656,80.95459,29.73926,30.07422-1.22266,57.87207-14.08398,78.27295-36.21387,20.40039-22.13037,30.9624-50.88086,29.73975-80.95459-1.22314-30.07422-14.08447-57.87207-36.21436-78.27295-21.62061-19.93115-49.01562-29.78076-76.33252-29.78076Z" fill="#fbb03b"/>
  <g>
    <g>
      <path d="M10.43652,139.35961c-1.18896,0-2.24316-.85156-2.4585-2.06299-.2417-1.35938.66455-2.65723,2.02393-2.89893,5.8584-1.0415,11.72607-2.4707,17.43994-4.24805,11.99756-3.7334,23.38916-8.99854,33.85986-15.64893.03174-.02197.06396-.04346.09668-.06396,10.49951-6.62939,20.1582-14.69336,28.70801-23.96729,8.5542-9.28027,15.80957-19.56445,21.56396-30.56689,5.81104-11.01953,10.15186-22.83301,12.90479-35.11963,1.12744-5.0332,1.98193-10.13379,2.53906-15.15869.15234-1.37207,1.3916-2.35742,2.76025-2.20947,1.37256.15234,2.36182,1.38818,2.20947,2.76025-.57764,5.20703-1.4624,10.48926-2.62988,15.70068-2.84961,12.71826-7.34375,24.94873-13.35693,36.35156-5.95361,11.38379-13.46289,22.02832-22.31445,31.63086-8.82373,9.57178-18.79248,17.89941-29.62988,24.75244-.02832.01953-.05664.03857-.08496.05664-10.86621,6.91211-22.68896,12.38184-35.14062,16.25684-5.91357,1.83936-11.98633,3.31836-18.05029,4.39648-.14795.02637-.29541.03906-.44043.03906Z" fill="#fbb03b"/>
      <path d="M104.77441,106.48657c-.60596,0-1.21338-.21875-1.69385-.66211l-25.6543-23.6499c-1.01514-.93555-1.07959-2.51709-.14355-3.53223s2.51758-1.07959,3.53223-.14355l25.6543,23.6499c1.01514.93555,1.07959,2.51709.14355,3.53223-.49268.53467-1.16455.80566-1.83838.80566Z" fill="#fbb03b"/>
      <path d="M72.04932,133.78247c-.82861,0-1.63916-.41162-2.11475-1.16357l-18.65918-29.48389c-.73877-1.1665-.39111-2.71094.77539-3.44922s2.71143-.39111,3.44922.77539l18.65918,29.48389c.73877,1.1665.39111,2.71094-.77539,3.44922-.41455.2627-.87744.38818-1.33447.38818Z" fill="#fbb03b"/>
      <path d="M33.36865,151.677c-1.06494,0-2.05176-.68555-2.38574-1.75586l-10.39209-33.30859c-.41113-1.31787.32422-2.71973,1.64209-3.13135,1.31738-.41113,2.71973.32324,3.13135,1.64209l10.39209,33.30859c.41113,1.31787-.32422,2.71973-1.64209,3.13135-.24805.07715-.49854.11377-.74561.11377Z" fill="#fbb03b"/>
      <path d="M144.021,31.64917c-.18164,0-.36621-.02002-.55078-.06152l-34.04248-7.6543c-1.34717-.30273-2.19385-1.64014-1.89062-2.9873.30273-1.34766,1.64111-2.19531,2.9873-1.89062l34.04248,7.6543c1.34717.30273,2.19385,1.64014,1.89062,2.9873-.26123,1.1626-1.29297,1.95215-2.43652,1.95215Z" fill="#fbb03b"/>
      <path d="M129.3208,71.65112c-.3916,0-.78857-.09229-1.15918-.28662l-30.90088-16.2041c-1.22266-.64111-1.69434-2.15234-1.05273-3.375s2.15283-1.69287,3.375-1.05273l30.90088,16.2041c1.22266.64111,1.69434,2.15234,1.05273,3.375-.44678.85205-1.31641,1.33936-2.21582,1.33936Z" fill="#fbb03b"/>
    </g>
    <g>
      <path d="M122.46387,242.63647c-.63965,0-1.27881-.24316-1.76611-.73047-.58984-.58984-.82471-1.40039-.70264-2.16406.58398-6.08008,1.56006-12.2002,2.90186-18.19141,2.85107-12.72559,7.34277-24.95312,13.3501-36.34473.01709-.03174.03418-.06348.05225-.09424,5.93848-11.33398,13.43018-21.94092,22.27002-31.5293,8.86768-9.62061,18.86523-17.97119,29.71436-24.82031,10.86963-6.91504,22.69482-12.38721,35.14014-16.25977,5.09619-1.58594,10.28906-2.89697,15.43457-3.896,1.35645-.26367,2.66748.62256,2.93066,1.97754.26318,1.35547-.62207,2.66748-1.97754,2.93066-4.96631.96436-9.97998,2.22998-14.90186,3.76221-12.02344,3.74121-23.4458,9.02637-33.94971,15.7085-10.48535,6.61963-20.14355,14.68848-28.71436,23.98584-8.56689,9.29297-15.82227,19.57178-21.56494,30.55225-.01904.03613-.03857.07178-.05908.10693-5.77686,10.97412-10.09912,22.75439-12.8457,35.01318-1.30762,5.83984-2.25586,11.80371-2.81836,17.72754-.05469.5791-.31006,1.12012-.72119,1.53125-.48877.48926-1.13086.73438-1.77246.73438Z" fill="#fbb03b"/>
      <path d="M173.22852,169.59155c-.60596,0-1.21338-.21875-1.69385-.66211l-25.6543-23.6499c-1.01514-.93555-1.07959-2.51709-.14355-3.53223.93604-1.01562,2.51758-1.0791,3.53223-.14355l25.6543,23.6499c1.01514.93555,1.07959,2.51709.14355,3.53223-.49268.53467-1.16455.80566-1.83838.80566Z" fill="#fbb03b"/>
      <path d="M153.92578,196.98217c-.3916,0-.78857-.09229-1.15918-.28662l-30.90137-16.2041c-1.22266-.64111-1.69434-2.15186-1.05273-3.375.64111-1.22314,2.15332-1.69385,3.375-1.05273l30.90137,16.2041c1.22266.64111,1.69434,2.15186,1.05273,3.375-.44678.85205-1.31641,1.33936-2.21582,1.33936Z" fill="#fbb03b"/>
      <path d="M142.37598,228.4353c-.18164,0-.36621-.02051-.55078-.06152l-34.04248-7.6543c-1.34717-.30371-2.19385-1.64062-1.89062-2.98828.30225-1.34766,1.64014-2.19238,2.9873-1.89062l34.04248,7.6543c1.34717.30371,2.19385,1.64062,1.89062,2.98828-.26123,1.16211-1.29297,1.95215-2.43652,1.95215Z" fill="#fbb03b"/>
      <path d="M229.37109,134.06079c-1.06494,0-2.05176-.68555-2.38574-1.75586l-10.39258-33.30859c-.41113-1.31787.32422-2.71973,1.64209-3.13135,1.31592-.41113,2.71973.32324,3.13135,1.64209l10.39258,33.30859c.41113,1.31787-.32422,2.71973-1.64209,3.13135-.24805.07715-.49854.11377-.74561.11377Z" fill="#fbb03b"/>
      <path d="M198.96436,148.13061c-.82861,0-1.63916-.41162-2.11475-1.16357l-18.65967-29.48389c-.73877-1.1665-.39111-2.71094.77539-3.44922s2.71143-.39111,3.44922.77539l18.65967,29.48389c.73877,1.1665.39111,2.71094-.77539,3.44922-.41455.2627-.87744.38818-1.33447.38818Z" fill="#fbb03b"/>
    </g>
  </g>
</svg>