<?xml version="1.0" encoding="UTF-8"?>
<svg id="Layer_1" xmlns="http://www.w3.org/2000/svg" version="1.1" viewBox="0 0 250 250">
  <!-- Generator: Adobe Illustrator 29.6.1, SVG Export Plug-In . SVG Version: 2.1.1 Build 9)  -->
  <path d="M224.56396,135.75146c-.51025,0-1.02441-.15527-1.46826-.47852-1.1167-.81152-1.36377-2.375-.55176-3.49219l16.89648-23.23242c.8125-1.11719,2.37646-1.36328,3.49219-.55078,1.1167.81152,1.36377,2.375.55176,3.49219l-16.89648,23.23242c-.48926.67285-1.25146,1.0293-2.02393,1.0293Z" fill="#fbb03b"/>
  <g>
    <path d="M148.50293,160.49463h-47.00879c-1.08301,0-2.04297-.69727-2.37744-1.72754l-14.52637-44.70801c-.33496-1.03027.03174-2.1582.90771-2.79492l38.03076-27.63184c.87695-.63672,2.0625-.63672,2.93945,0l38.03076,27.63184c.87598.63672,1.24268,1.76465.90771,2.79492l-14.52637,44.70801c-.33447,1.03027-1.29443,1.72754-2.37744,1.72754ZM103.31055,155.49463h43.37598l13.40381-41.25293-35.0918-25.49707-35.0918,25.49707,13.40381,41.25293Z" fill="#fbb03b"/>
    <path d="M86.97021,115.7583c-.25928,0-.51953-.04004-.77246-.12207l-38.03076-12.35352c-1.03027-.33496-1.72754-1.29492-1.72754-2.37793v-10.11035c0-1.38086,1.11914-2.5,2.5-2.5s2.5,1.11914,2.5,2.5v8.29395l35.09229,11.39941,35.97021-26.10742v-36.89746l-35.09277-11.39941-35.96973,26.10742v7.89062c0,1.38086-1.11914,2.5-2.5,2.5s-2.5-1.11914-2.5-2.5v-9.16504c0-.80078.3833-1.55273,1.03174-2.02344l38.03125-27.60352c.64697-.46973,1.47998-.60156,2.24072-.35449l38.03125,12.35352c1.03027.33496,1.72754,1.29492,1.72754,2.37793v39.98828c0,.80078-.3833,1.55273-1.03174,2.02344l-38.03174,27.60352c-.43213.31348-.94727.47656-1.46826.47656Z" fill="#fbb03b"/>
    <path d="M172.00488,192.84033c-.78516,0-1.54346-.37109-2.02295-1.03027l-5.12109-7.04883c-.81152-1.11719-.56396-2.68066.55322-3.49219,1.11621-.80957,2.68018-.56348,3.4917.55273l4.05371,5.5791,35.09277-11.40625,13.75684-42.26465-21.68701-29.85059-35.09326,11.40625-13.75684,42.26465,7.48389,10.30176c.81152,1.11719.56396,2.68066-.55322,3.49219-1.11523.81152-2.67969.56348-3.4917-.55273l-8.2334-11.33301c-.4707-.64844-.60254-1.48242-.35498-2.24316l14.54541-44.6875c.24756-.76074.84424-1.35645,1.60449-1.60449l38.03125-12.36133c1.03076-.33301,2.15869.0332,2.79541.9082l23.50439,32.35156c.4707.64844.60254,1.48242.35498,2.24316l-14.54541,44.6875c-.24756.76074-.84424,1.35645-1.60449,1.60449l-38.03125,12.36133c-.25439.08203-.51514.12207-.77246.12207Z" fill="#fbb03b"/>
    <path d="M78.08789,192.84814c-.25732,0-.51758-.04004-.77197-.12207l-38.03174-12.35742c-.76172-.24805-1.3584-.84473-1.60547-1.60645l-14.49902-44.70312c-.24707-.76074-.11475-1.59375.35547-2.24121l23.50195-32.35449c.63574-.875,1.76318-1.24023,2.79492-.9082l38.03125,12.35645c.76172.24805,1.3584.84473,1.60547,1.60645l14.49951,44.70312c.24707.76074.11475,1.59375-.35547,2.24023l-23.50146,32.35547c-.47949.66016-1.23828,1.03125-2.02344,1.03125ZM42.0415,176.00732l35.0918,11.40137,21.68652-29.85547-13.71387-42.28027-35.09131-11.40137-21.68652,29.85547,13.71338,42.28027Z" fill="#fbb03b"/>
    <path d="M163.03467,115.75732c-.521,0-1.03613-.16309-1.46826-.47656l-38.03418-27.60352c-.64795-.4707-1.03174-1.22266-1.03174-2.02344v-39.98828c0-1.08301.69775-2.04297,1.72754-2.37793l38.03369-12.35352c.76123-.24609,1.59326-.11523,2.24072.35449l38.03467,27.60352c.64795.4707,1.03174,1.22266,1.03174,2.02344v39.98926c0,1.08301-.69775,2.04297-1.72754,2.37793l-38.03418,12.35254c-.25293.08203-.51318.12207-.77246.12207ZM127.50049,84.37939l35.97266,26.10742,35.0957-11.39844v-36.89844l-35.97314-26.10742-35.09521,11.39941v36.89746Z" fill="#fbb03b"/>
    <path d="M101.49854,225.20361c-.80029,0-1.55225-.38281-2.02246-1.03027l-23.50439-32.35156c-.63672-.87695-.63672-2.06348,0-2.93945l23.50879-32.34961c.47021-.64648,1.22168-1.03027,2.021-1.03027l46.99561-.02441h.00146c.80029,0,1.55225.38281,2.02246,1.03027l18.32666,25.22461h0l5.17773,7.12695c.63672.87695.63672,2.06348,0,2.93945l-23.50879,32.34961c-.47021.64648-1.22168,1.03027-2.021,1.03027l-46.99561.02441h-.00146ZM81.08447,190.35205l21.6875,29.85059,44.44824-.02246,21.69238-29.85059-21.6875-29.85059-44.44824.02246-21.69238,29.85059Z" fill="#fbb03b"/>
    <path d="M125.00732,48.16064c-.26025,0-.521-.04102-.77148-.12207l-38.03418-12.3418c-.76123-.24707-1.3584-.84375-1.60596-1.60449s-.11572-1.59375.354-2.24219l16.76465-23.10156c.81104-1.11719,2.375-1.36621,3.4917-.55469,1.11768.81055,1.36621,2.37402.55518,3.49219l-14.74414,20.31641,33.98975,11.0293,37.23389-12.09082c.24902-.08105.50977-.12207.77197-.12207,1.38086,0,2.51416,1.11914,2.51416,2.5,0,1.18652-.81543,2.17969-1.92041,2.43555l-37.82715,12.28418c-.25049.08105-.51123.12207-.77197.12207Z" fill="#fbb03b"/>
    <path d="M163.01465,35.81885c-.77344,0-1.53613-.35742-2.02539-1.03125l-16.99219-23.41504c-.81104-1.11816-.5625-2.68164.55518-3.49219,1.1167-.80957,2.68018-.5625,3.4917.55469l16.99219,23.41504c.81104,1.11816.5625,2.68164-.55518,3.49219-.44336.32129-.95703.47656-1.46631.47656Z" fill="#fbb03b"/>
    <path d="M224.56543,135.76904c-.82959,0-1.62939-.41309-2.0957-1.14941l-23.41699-32.23633c-.31055-.42773-.47754-.94141-.47754-1.46973v-39.97559c0-.7998.3833-1.55176,1.03027-2.02246.64746-.4707,1.47998-.60254,2.24219-.35547l27.40332,8.90039c1.31299.42676,2.03174,1.83691,1.60547,3.15039-.42676,1.31348-1.83643,2.0293-3.15039,1.60547l-24.13086-7.83789v35.72266l23.01318,31.68066c.07422.10254.14014.20898.19824.32129.63428,1.22656.16162,2.74902-1.06494,3.38281-.37061.19238-.7666.2832-1.15625.2832Z" fill="#fbb03b"/>
    <path d="M25.41553,135.76318c-.37305,0-.75098-.08398-1.10645-.26172-1.23486-.61719-1.74268-2.10449-1.125-3.33984.06104-.12305.14648-.26855.22754-.37988l23.01367-31.68066.0127-35.72266-24.13135,7.83203c-1.31348.4248-2.72412-.29297-3.1499-1.60645-.42627-1.3125.29297-2.72266,1.60596-3.14941l27.40479-8.89453c.76074-.24707,1.59473-.11523,2.24219.35547s1.03027,1.22266,1.02979,2.02344l-.01465,39.97559c0,.52734-.16748,1.04102-.47754,1.46875l-23.46484,32.30273c-.47852.68457-1.26074,1.07715-2.06689,1.07715Z" fill="#fbb03b"/>
    <path d="M25.43604,135.75146c-.77246,0-1.53467-.35645-2.02393-1.0293l-16.79688-23.0957c-.81201-1.11719-.56494-2.68066.55176-3.49219,1.11621-.81348,2.67969-.56641,3.49219.55078l16.79688,23.0957c.81201,1.11719.56494,2.68066-.55176,3.49219-.44385.32324-.9585.47852-1.46826.47852Z" fill="#fbb03b"/>
    <path d="M101.55957,225.16162c-.61035,0-1.16943-.21777-1.60352-.5791-.16211-.13281-.30811-.28613-.43359-.45898l-23.00732-31.68359-33.98242-11.04785-.01709,25.21484c-.00098,1.37988-1.12012,2.49805-2.5,2.49805h-.00146c-1.38086-.00098-2.49951-1.12109-2.49854-2.50195l.01953-28.64453c.00098-1.37988,1.12012-2.49805,2.5-2.49805.2627,0,.55176.04102.80127.12207l37.9624,12.3418c.12354.04102.24414.09082.36035.14941.17725.09082.34619.20312.50098.33398.16748.13477.31787.29199.44629.46875l23.35693,32.16504c.37158.43555.59619.99805.59619,1.61328,0,1.38086-1.11914,2.50684-2.5,2.50684Z" fill="#fbb03b"/>
    <path d="M74.08447,234.09424c-1.05371,0-2.03369-.67188-2.37695-1.72754-.42676-1.31348.2915-2.72363,1.60449-3.15137l27.33398-8.8877c.28809-.10547.60889-.17285.89941-.17285,1.38086,0,2.50684,1.11914,2.50684,2.5,0,1.0918-.69482,2.01953-1.66846,2.36035-.04395.01758-.08643.0332-.12305.0459l-27.40283,8.91016c-.25684.08301-.51709.12305-.77344.12305Z" fill="#fbb03b"/>
    <path d="M175.73877,233.98975c-.25684,0-.51758-.04004-.7749-.12402l-27.19727-8.86328c-.76074-.24805-1.37842-.85156-1.625-1.61328-.24707-.76074-.13623-1.60059.33398-2.24805l23.47656-32.30859c.14941-.20508.32764-.38477.52637-.5332.22559-.17578.47998-.31445.75146-.40332l38.02002-12.35645c.25-.08105.51074-.12207.77295-.12207,1.38086,0,2.50732,1.11914,2.50732,2.5,0,1.16504-.79248,2.14453-1.87012,2.42188l-37.12207,12.06445-20.99658,28.89551,23.97119,7.8125c1.31299.42773,2.03027,1.83887,1.60254,3.15137-.34375,1.05566-1.32373,1.72656-2.37646,1.72656Z" fill="#fbb03b"/>
    <path d="M210.02295,209.06592c-1.38086,0-2.5-1.11914-2.5-2.5v-28.5918c0-1.38086,1.11914-2.52832,2.5-2.52832s2.5,1.09082,2.5,2.47168v28.64844c0,1.38086-1.11914,2.5-2.5,2.5Z" fill="#fbb03b"/>
    <path d="M125.00781,245.48291c-16.10498,0-31.71973-3.13184-46.41113-9.30762-7.93848-3.31836-15.57666-7.55078-22.69824-12.57812-.9292-.66602-1.84375-1.32227-2.74316-1.99219-6.88037-5.16406-13.22852-11.07812-18.875-17.58398-18.86768-21.79395-29.25781-49.68066-29.25781-78.52344,0-3.34473.13965-6.69824.41504-9.96875.49316-6.0459,3.13867-19.24219,3.91992-21.99609l-.02002-.00488c.92432-3.36426,2.02051-6.74121,3.2583-10.03516.00293-.00781.00537-.01465.0083-.02148.01953-.06934.04199-.1377.06738-.20605,2.5498-6.77539,5.76367-13.39941,9.55127-19.6875C38.88184,35.98291,66.32764,15.98975,97.55518,8.68896c.08496-.0293.17188-.05469.26074-.0752,17.78711-4.09473,36.58984-4.09668,54.35449,0,31.35938,7.26855,58.91602,27.30078,75.60645,54.96191,3.80127,6.28516,7.01611,12.91211,9.55371,19.69434.03955.09863.0791.20996.11377.32715,1.16943,3.08691,2.2417,6.38867,3.1875,9.81738.03467.10059.06641.21094.0918.33008,1.94482,7.07324,3.23682,14.4043,3.83984,21.79102.27441,3.26562.41406,6.61914.41406,9.96191,0,28.83691-10.37402,56.70117-29.21045,78.46094-5.51904,6.3877-11.77002,12.23633-18.57764,17.37988-1.06201.81836-2.21924,1.66113-3.42383,2.49219-.02588.01953-.05225.03809-.0791.05664l.00049.00098c-6.93945,4.8584-14.41211,8.98242-22.20898,12.25684-14.71484,6.19629-30.35059,9.33789-46.47021,9.33789ZM14.16943,94.81299c-.14551.63672-3.17529,14.09375-3.74902,21.12891-.26416,3.1377-.39795,6.35059-.39795,9.55566,0,27.6416,9.95654,54.36523,28.03613,75.24805,5.4126,6.2373,11.5,11.9082,18.09082,16.85449.86816.64746,1.7583,1.28613,2.64746,1.92285,6.80908,4.80664,14.12598,8.86133,21.73291,12.04102,14.0791,5.91895,29.04199,8.91895,44.47803,8.91895,15.44971,0,30.43262-3.00977,44.53174-8.94629,7.43945-3.125,14.56836-7.05469,21.19287-11.68359.03857-.0293.07812-.05859.11914-.08691,1.15967-.79785,2.27148-1.60645,3.30469-2.40234,6.5459-4.94629,12.53809-10.55176,17.8291-16.67578,18.05176-20.85254,27.99219-47.55566,27.99219-75.19043,0-3.20312-.13379-6.41602-.39697-9.5498-.58154-7.12109-1.82861-14.17969-3.70801-20.9873-.00391-.0127-.00732-.02539-.01074-.03809-.00684-.02344-.01367-.04688-.02002-.06934-.92334-3.36035-1.97119-6.58789-3.11426-9.59277-.02783-.07324-.05176-.14746-.07275-.22266-2.45703-6.55078-5.52734-12.87402-9.15771-18.87598-15.99756-26.51367-42.40527-45.71191-72.45312-52.67578-16.93994-3.9082-34.87695-3.92578-51.85303-.05762-.08154.02832-.16504.05273-.25049.07227-30.0249,6.94824-56.42676,26.1416-72.43604,52.65918-3.63037,6.02637-6.71045,12.375-9.15332,18.86719-.00244.00684-.00537.01367-.00781.02051-.01953.06836-.0415.13574-.06689.20312-1.17969,3.13965-2.2251,6.35645-3.10693,9.5625ZM235.78223,94.32861h0ZM235.78223,94.31885v.00195-.00195ZM235.78223,94.31201h0ZM235.78223,94.30225v.00195-.00195ZM232.67529,85.09229l.00439.01172-.00439-.01172ZM232.61768,84.88428c.00049.00195.00049.00293.00098.00391-.00049-.00098-.00049-.00195-.00098-.00391ZM232.61621,84.87842c.00049.00195.00098.00293.00146.00488-.00049-.00195-.00098-.00293-.00146-.00488ZM232.61475,84.87158l.00146.00586-.00146-.00586ZM232.61377,84.86475c0,.00195.00049.00391.00098.00586-.00049-.00195-.00098-.00391-.00098-.00586Z" fill="#fbb03b"/>
  </g>
</svg>