<?xml version="1.0" encoding="UTF-8"?>
<svg id="Layer_1" xmlns="http://www.w3.org/2000/svg" version="1.1" viewBox="0 0 250 250">
  <!-- Generator: Adobe Illustrator 29.6.1, SVG Export Plug-In . SVG Version: 2.1.1 Build 9)  -->
  <path d="M41.25659,241.73096c-.57715,0-1.14307-.2002-1.59619-.57617-.6001-.49756-.93359-1.24658-.90186-2.02539l.96436-23.6792c.04492-1.10645-.35254-2.15527-1.12012-2.95312-.76807-.79883-1.77686-1.21973-2.90723-1.23535l-24.86914.03564h-.00342c-.76123,0-1.48047-.34668-1.95508-.94189-.4751-.59619-.65234-1.37646-.48096-2.11914,4.84619-21.03809,20.78857-74.64111,64.05225-117.90381,27.65283-27.65332,70.34277-63.09668,116.67822-74.9082,28.06836-7.15527,44.07617-2.26758,44.74316-2.05566.38232.12109.72949.33203,1.0127.61572l1.19629,1.19629c.28369.2832.49463.63037.61572,1.0127.21143.66748,5.09912,16.67529-2.05566,44.74268-11.81152,46.33545-47.25488,89.02588-74.9082,116.67871-43.26123,43.26221-96.86523,59.20557-117.90381,64.05225-.18555.04297-.37402.06396-.56104.06396ZM35.7019,206.26172c2.47803,0,4.78711.9834,6.50488,2.76953,1.7207,1.78955,2.61328,4.1416,2.51221,6.62207l-.83008,20.37842c22.45557-5.55127,71.98779-21.64258,112.29736-61.95215,27.08301-27.08301,61.81445-68.82764,73.47461-113.89795,6.21533-24.02393,3.14941-38.95752,2.40381-41.93555l-.25732-.25684c-2.96143-.74219-17.89844-3.81543-41.93506,2.40381-45.07031,11.66016-86.81494,46.3916-113.89795,73.47461-40.38574,40.38574-56.46143,90.0293-61.98389,112.42529l21.69824-.03125h.01318Z" fill="#fbb03b"/>
  <path d="M139.55981,112.99414c-.63184,0-1.26367-.23779-1.75049-.71484-.98584-.9668-1.00098-2.5498-.03467-3.53564l61.22217-62.43262c.9668-.98633,2.54932-1.00098,3.53564-.03467.98584.9668,1.00098,2.5498.03467,3.53564l-61.22217,62.43262c-.48975.49902-1.13721.74951-1.78516.74951Z" fill="#fbb03b"/>
  <path d="M114.73218,211.82617c-1.0752,0-2.06836-.69873-2.39355-1.78125l-16.70703-55.62256-55.62256-16.70752c-1.32227-.39746-2.07227-1.7915-1.67529-3.11377s1.7915-2.07129,3.11377-1.67529l56.91064,17.09473c.8042.2417,1.43359.87109,1.67529,1.67529l17.09424,56.91064c.39697,1.32227-.35303,2.71631-1.67529,3.11377-.23975.07178-.48193.10596-.72021.10596Z" fill="#fbb03b"/>
  <path d="M80.1394,229.17822c-1.0752.00049-2.06787-.69873-2.39355-1.78125l-12.72705-42.36621-42.36621-12.72656c-1.32227-.39746-2.07227-1.7915-1.67529-3.11377.39746-1.32227,1.79395-2.07227,3.11377-1.67529l43.6543,13.11377c.8042.2417,1.43359.87109,1.67529,1.67529l13.11426,43.6543c.39697,1.32227-.35303,2.71631-1.67529,3.11377-.23975.07178-.48193.10596-.72021.10596Z" fill="#fbb03b"/>
</svg>