<?xml version="1.0" encoding="UTF-8"?>
<svg id="Layer_1" xmlns="http://www.w3.org/2000/svg" version="1.1" viewBox="0 0 250 250">
  <!-- Generator: Adobe Illustrator 29.6.1, SVG Export Plug-In . SVG Version: 2.1.1 Build 9)  -->
  <path d="M183.88306,227.51709c-.11426,0-.22998-.00781-.34668-.02441-1.36768-.18994-2.32227-1.45264-2.13232-2.81982.01465-.10596.03369-.2041.05615-.30176.00586-.03223.01221-.06396.01904-.09619,7.06396-31.84912,2.1167-73.59521-13.57373-114.53369-1.57568-4.09912-3.13086-7.8877-4.75391-11.57861C147.00073,61.15674,123.60913,30.40967,98.97241,13.79932c-1.14502-.77197-1.44727-2.32568-.67529-3.47021.77148-1.14453,2.32471-1.44775,3.47021-.67529,25.40332,17.12695,49.44629,48.65576,65.96436,86.50244,1.65186,3.75781,3.23682,7.61768,4.8418,11.79346,16.02441,41.81006,21.05273,84.57764,13.7998,117.35254-.00977.05176-.02051.10156-.03174.15137-.2124,1.20264-1.26074,2.06348-2.4585,2.06348ZM186.3562,225.36035c0,.00195-.00049.00391-.00049.00586,0-.00195.00049-.00391.00049-.00586Z" fill="#fbb03b"/>
  <path d="M118.30786,243.20703c-.43066,0-.8667-.11133-1.26465-.3457-1.19043-.69971-1.58789-2.23193-.8877-3.42188,13.39795-22.78418,19.58887-51.28662,17.43164-80.25732-1.34766-18.03711-5.73291-35.12158-13.03271-50.77881-16.74072-35.94824-47.15283-59.35205-79.36816-61.08008-1.37891-.07422-2.43652-1.25195-2.36279-2.63037.07422-1.37891,1.26416-2.43555,2.63037-2.36279,34.06494,1.82715,66.11084,26.33594,83.63232,63.96143,7.55615,16.20605,12.09424,33.87598,13.4873,52.51855,2.23193,29.97656-4.19922,59.51074-18.1084,83.16357-.46533.79248-1.30029,1.2334-2.15723,1.2334Z" fill="#fbb03b"/>
  <path d="M232.31372,171.32129c-.46094,0-.92725-.12744-1.34424-.39453-17.09424-10.93115-30.80664-40.42383-34.93359-75.13477-.0791-.64844-.15088-1.30371-.22119-1.95068l-.01318-.11865c-2.13916-20.05273-.74316-39.69092,3.93115-55.30371.39551-1.32227,1.79248-2.07471,3.11182-1.67822,1.32275.396,2.07422,1.78955,1.67822,3.11182-4.48828,14.9917-5.81982,33.93213-3.75,53.3335l.01221.11279c.06836.62646.1377,1.26074.21484,1.89551,3.89795,32.77979,17.02344,61.51904,32.66309,71.52051,1.16357.74365,1.50342,2.28955.75928,3.45264-.47705.74609-1.28418,1.15381-2.1084,1.15381Z" fill="#fbb03b"/>
  <path d="M16.26147,167.68652c-.71973,0-1.43408-.30908-1.92822-.90723-.87988-1.06396-.73047-2.64014.33398-3.51953,31.84521-26.3252,67.98145-45.93945,107.40479-58.29883,14.00146-4.40576,28.45557-7.86182,42.9585-10.271,10.91211-1.81982,22.05273-3.07812,33.11035-3.73926,6.43701-.38721,12.88037-.58398,19.14941-.58398h19.02002c1.38086,0,2.5,1.11914,2.5,2.5s-1.11914,2.5-2.5,2.5h-19.02002c-6.16943,0-12.51123.19336-18.84961.5752-10.88428.65088-21.84863,1.88916-32.58936,3.68018-14.27441,2.37109-28.49902,5.77246-42.28076,10.10938-38.80566,12.16504-74.37354,31.47119-105.71777,57.38184-.46582.38525-1.03027.57324-1.59131.57324Z" fill="#fbb03b"/>
  <path d="M125.00024,243.4043c-65.28857,0-118.4043-53.11572-118.4043-118.4043S59.71167,6.5957,125.00024,6.5957s118.40381,53.11572,118.40381,118.4043-53.11572,118.4043-118.40381,118.4043ZM125.00024,11.5957C62.46899,11.5957,11.59595,62.46875,11.59595,125s50.87305,113.4043,113.4043,113.4043,113.40381-50.87305,113.40381-113.4043S187.53149,11.5957,125.00024,11.5957Z" fill="#fbb03b"/>
</svg>