<?xml version="1.0" encoding="UTF-8"?>
<svg id="Layer_1" xmlns="http://www.w3.org/2000/svg" version="1.1" viewBox="0 0 250 250">
  <!-- Generator: Adobe Illustrator 29.6.1, SVG Export Plug-In . SVG Version: 2.1.1 Build 9)  -->
  <path d="M124.8208,239.60254c-63.13281,0-114.49512-51.3623-114.49512-114.49561S61.68799,10.61182,124.8208,10.61182s114.49561,51.3623,114.49561,114.49512-51.3623,114.49561-114.49561,114.49561ZM124.8208,15.61182c-60.37598,0-109.49512,49.11914-109.49512,109.49512s49.11914,109.49561,109.49512,109.49561,109.49561-49.11914,109.49561-109.49561S185.19727,15.61182,124.8208,15.61182Z" fill="#fbb03b"/>
  <g>
    <path d="M226.03125,79.72705c-.48145,0-.96875-.13916-1.39746-.42871-18.40332-12.43066-39.91504-19.00098-62.21094-19.00098-21.62207,0-42.59229,6.20996-60.64355,17.95801-1.15723.75293-2.70605.42578-3.45898-.73145-.75342-1.15723-.42578-2.70605.73145-3.45898,18.86475-12.27783,40.77832-18.76758,63.37109-18.76758,23.29688,0,45.77734,6.8667,65.00977,19.85742,1.14453.77295,1.44531,2.32715.67188,3.47119-.48242.71484-1.27148,1.10059-2.07324,1.10107Z" fill="#fbb03b"/>
    <path d="M127.44141,121.57227c-.63281,0-1.2666-.23877-1.75342-.71777-27.50879-27.06738-39.6123-66.0918-32.37695-104.39014.25635-1.35693,1.56836-2.24854,2.92041-1.99268,1.35693.25635,2.24902,1.56396,1.99268,2.92041-6.92529,36.65771,4.65234,74.00244,30.97021,99.89795.98438.96875.99707,2.55127.0293,3.53564-.48926.49707-1.13574.74658-1.78223.74658Z" fill="#fbb03b"/>
  </g>
  <g>
    <path d="M102.39062,237.35254c-.94482,0-1.84961-.53906-2.27148-1.45312-.57861-1.25391-.03125-2.73926,1.22266-3.31738,21.20166-9.7832,39.5-25.15625,52.91602-44.45605,14.46191-20.8125,22.60254-45.14062,23.54102-70.35352.0498-1.34619,1.15625-2.4126,2.49707-2.4126.01562,0,.03125,0,.04785.00049,1.3623.02539,2.45312,1.13135,2.45312,2.49414v.01074c-.97559,26.26367-9.42383,51.51367-24.43359,73.11426-13.92383,20.03027-32.91699,35.98633-54.92676,46.1416-.33887.15723-.69531.23145-1.0459.23145Z" fill="#fbb03b"/>
    <path d="M233.51953,147.88281c-.60547,0-1.21289-.21875-1.69336-.66211-16.32324-15.04883-36.60547-24.7749-58.6543-28.12695-15.17676-2.30811-30.3457-1.50098-45.08984,2.39697-1.33203.35352-2.70215-.44238-3.05566-1.77783-.35303-1.33496.44336-2.70312,1.77832-3.05615,15.4082-4.07373,31.26074-4.91602,47.11914-2.50635,23.03809,3.50244,44.23242,13.66699,61.29102,29.39453,1.01562.93555,1.08008,2.51758.14355,3.53223-.49219.53516-1.16504.80566-1.83887.80566Z" fill="#fbb03b"/>
  </g>
  <path d="M43.2583,204.35156c-1.13477,0-2.16211-.77832-2.43213-1.93066-.31494-1.34375.51904-2.68945,1.86377-3.00391,18.58545-4.35645,35.87109-13.55762,49.98926-26.60742,3.59277-3.32031,6.99561-6.90527,10.11475-10.65723,8.82031-10.60742,15.50635-22.61719,19.87354-35.69531.29736-.88281.58301-1.75977.84668-2.63574.24805-.80859.48145-1.59375.70459-2.39014.27832-.99414.54541-1.98877.80176-2.98291.34473-1.33789,1.71289-2.13867,3.04492-1.79688,1.33691.34473,2.1416,1.70801,1.79688,3.04492-.26465,1.02832-.54102,2.05615-.8291,3.08398-.23438.83496-.47852,1.65918-.73438,2.49414-.27637.91602-.57812,1.84473-.8916,2.77344-4.56152,13.66211-11.55029,26.21484-20.76855,37.30176-3.2583,3.91895-6.81348,7.66406-10.56592,11.13184-14.75146,13.63574-32.81641,23.25-52.24219,27.80273-.19141.04492-.38379.06738-.57227.06738Z" fill="#fbb03b"/>
  <g>
    <path d="M104.79053,166.29492c-.36865,0-.74268-.08203-1.09619-.25488-.02393-.01172-.04834-.02441-.07373-.03809-.06104-.0293-.12158-.06055-.18018-.09473-20.79053-10.39453-38.04248-26.5127-49.89502-46.62012-11.93945-20.25342-17.67969-43.34473-16.59912-66.77686.06396-1.37939,1.23877-2.43457,2.61279-2.38232,1.37939.06396,2.4458,1.2334,2.38232,2.61279-1.03613,22.45898,4.46631,44.59277,15.91162,64.00732,11.38281,19.31152,27.9585,34.7832,47.93555,44.74316.01807.00879.03613.01855.0542.02832.04688.02344.09326.04883.13867.0752,1.17432.63379,1.64844,2.08789,1.05713,3.29688-.43359.8877-1.32275,1.40332-2.24805,1.40332ZM106.46094,161.95996v.00098-.00098ZM106.45801,161.95801h0Z" fill="#fbb03b"/>
    <path d="M43.2583,204.35156c-1.13477,0-2.16211-.77832-2.43213-1.93066-.31494-1.34375.51904-2.68945,1.86377-3.00391,18.58545-4.35645,35.87109-13.55762,49.98926-26.60742,3.59277-3.32031,6.99561-6.90527,10.11475-10.65723,8.82031-10.60742,15.50635-22.61719,19.87354-35.69531.29736-.88281.58301-1.75977.84668-2.63574.24805-.80859.48145-1.59375.70459-2.39014.27832-.99414.54541-1.98877.80176-2.98291.34473-1.33789,1.71289-2.13867,3.04492-1.79688,1.33691.34473,2.1416,1.70801,1.79688,3.04492-.26465,1.02832-.54102,2.05615-.8291,3.08398-.23438.83496-.47852,1.65918-.73438,2.49414-.27637.91602-.57812,1.84473-.8916,2.77344-4.56152,13.66211-11.55029,26.21484-20.76855,37.30176-3.2583,3.91895-6.81348,7.66406-10.56592,11.13184-14.75146,13.63574-32.81641,23.25-52.24219,27.80273-.19141.04492-.38379.06738-.57227.06738Z" fill="#fbb03b"/>
  </g>
</svg>