<?xml version="1.0" encoding="UTF-8"?>
<svg id="Layer_1" xmlns="http://www.w3.org/2000/svg" version="1.1" viewBox="0 0 1000 312">
  <!-- Generator: Adobe Illustrator 29.5.1, SVG Export Plug-In . SVG Version: 2.1.0 Build 141)  -->
  <g>
    <path d="M65.59834,175.66655c18.66131,24.81174,37.90374,50.4619,57.24922,96.79494,5.95966-19.72899,11.93365-42.77028,15.85316-66.09332-50.30211-59.44492-71.16889-119.81599-62.86092-182.8054-25.03023,15.26618-45.37035,37.44164-58.42191,63.86273,3.04876,29.01773,31.73783,66.32277,48.18044,88.24107v-.00002Z" fill="#fff"/>
    <path d="M105.87877,260.38107c-7.08809.82751-67.23526-12.76788-86.72107-32.50272,19.25483,36.66812,52.75184,64.6604,93.15684,76.63708.01708-.04813.03418-.09628.0513-.14453,3.6975-10.42056,3.19975-21.87521-1.1544-32.03891-1.78222-4.16016-3.55936-8.13724-5.33267-11.95096v.00003Z" fill="#fff"/>
    <path d="M140.82111,192.14716c2.29288-21.16357,5.53114-43.11829,9.77971-59.45764-21.09058-27.58284-36.8224-92.41655-5.90488-131.21548-20.32577,1.5213-39.55614,6.9419-56.94203,15.55087-10.24474,60.33944,7.35541,118.17437,53.06718,175.12226h.00002Z" fill="#fff"/>
    <path d="M254.6396,90.37286c15.1154,20.01186,47.35176,75.54022,49.77708,111.64728,12.0806-37.22519,8.03094-82.43604-9.9408-116.41858-9.88568-.65287-25.20599-.42623-39.83627,4.77131h-.00002Z" fill="#fff"/>
    <path d="M154.56891,118.81811c15.80635-60.89323,70.07788-78.53287,119.93176-63.15996C246.53252,22.76118,205.08267,1.7134,158.6792,1.0452c-30.92284,31.47813-22.37746,88.5736-4.11029,117.77291Z" fill="#fff"/>
    <path d="M182.48653,225.09956c14.064-84.17067,27.16994-154.22777,105.82555-150.48792-.92941-1.50369-1.88101-2.99238-2.85999-4.46118-47.20364-19.78253-110.7551-8.47473-123.24504,60.28336.05968.07631.12099.16959.18066.24522l-.30524.24068c-10.14771,50.44337-21.11234,136.30391-39.38656,176.27733,3.93288.87299,7.91795,1.60284,11.95747,2.17059,11.01141-8.10449,38.05115-32.68207,47.83313-84.26807l.00002-.00002Z" fill="#fff"/>
    <path d="M44.84211,231.90875c24.6014,11.17415,44.55605,15.41196,55.48432,17.01935C72.98016,191.7972,31.51402,162.51637,10.33447,104.19927c-14.08373,45.61079-18.82532,102.57003,34.50763,127.70948h.00001Z" fill="#fff"/>
    <path d="M209.97562,147.3625c-20.57732,49.3015-4.47162,106.29454-60.14313,163.39046,32.7655,1.54819,64.89429-7.86591,90.67319-24.664,9.72067-53.98291-17.94778-114.73846-30.53008-138.72646h.00002Z" fill="#fff"/>
    <path d="M244.69489,94.80861c-14.58871,8.07422-23.04184,20.5539-30.10027,38.72032,15.16208,20.04784,46.39046,108.0672,37.88612,143.9729,76.10025-47.41905,28.21918-132.32793-7.78587-182.69322h.00002Z" fill="#fff"/>
  </g>
  <g>
    <g>
      <path d="M424.37747,60.57814l-14.63519,110.5764h-43.67566l-16.61545-110.57641h30.32584c3.52164,30.45645,6.0401,56.23132,7.54489,77.31414,1.48911-21.3075,3.06183-40.22718,4.73383-56.75381l1.99594-20.56032h30.32584-.00003Z" fill="#fff"/>
      <path d="M457.97937,60.57814v110.5764h-28.75311V60.57814h28.75311Z" fill="#fff"/>
      <path d="M530.4447,94.04418h-26.7049v-8.19801c0-3.82469-.34485-6.25953-1.02411-7.30453-.68448-1.05022-1.82352-1.57272-3.41714-1.57272-1.72946,0-3.04095.70537-3.92398,2.12134-.88824,1.41075-1.33246,3.55299-1.33246,6.42151,0,3.69407.49646,6.47376,1.49445,8.33908.95618,1.87055,3.66272,4.12251,8.12485,6.76113,12.80124,7.59713,20.86337,13.83054,24.18649,18.70023,3.32312,4.87491,4.98456,12.72807,4.98456,23.56468,0,7.87927-.91949,13.68423-2.76392,17.41489-1.84442,3.73587-5.40784,6.86563-10.69031,9.39453-5.28247,2.52367-11.42706,3.78812-18.43896,3.78812-7.69641,0-14.26422-1.45776-19.70343-4.36809-5.44443-2.91554-9.00787-6.62527-10.69031-11.13445s-2.5289-10.90456-2.5289-19.19138v-7.24184h26.70493v13.45435c0,4.14342.37619,6.80817,1.1286,7.99423.75241,1.18085,2.08478,1.7765,3.99713,1.7765s3.33353-.7524,4.2688-2.25719c.93005-1.49957,1.4003-3.73064,1.4003-6.69321,0-6.51033-.88824-10.76869-2.66473-12.76987-1.82352-2.00117-6.30655-5.35039-13.45435-10.04243-7.14777-4.73384-11.88684-8.17188-14.20673-10.3089-2.31989-2.14224-4.24792-5.09959-5.77362-8.88248-1.5257-3.77767-2.28333-8.60555-2.28333-14.47844,0-8.4697,1.07635-14.66131,3.2395-18.57483,2.16315-3.91874,5.65866-6.98058,10.48654-9.18553,4.82266-2.21017,10.65375-3.31264,17.48282-3.31264,7.46652,0,13.83054,1.20697,19.09207,3.61569,5.25635,2.41394,8.74139,5.45489,10.44995,9.1176,1.70337,3.66794,2.56024,9.89613,2.56024,18.67933v4.37331h-.00006Z" fill="#fff"/>
      <path d="M570.59875,60.57814v110.5764h-28.75311V60.57814h28.75311Z" fill="#fff"/>
      <path d="M647.85016,125.32618c0,11.10831-.26123,18.97715-.78894,23.59605-.52252,4.62411-2.16315,8.8459-4.91669,12.67059s-6.47375,6.76112-11.16577,8.80933-10.15216,3.0723-16.39081,3.0723c-5.91992,0-11.2337-.96661-15.94666-2.89987-4.71295-1.93848-8.50629-4.83833-11.37482-8.71005s-4.57184-8.08305-5.12048-12.63402-.82031-12.52429-.82031-23.90432v-18.91968c0-11.10832.26123-18.97715.78375-23.59604.52771-4.62411,2.16315-8.8459,4.92194-12.67059,2.75354-3.82469,6.47375-6.76113,11.16577-8.80933,4.68683-2.0482,10.15216-3.07229,16.39081-3.07229,5.91992,0,11.2337.96662,15.94666,2.89987,4.71295,1.93847,8.50629,4.83834,11.37482,8.71005s4.57184,8.08306,5.12048,12.63402c.5434,4.55096.82031,12.52429.82031,23.90432v18.91968h-.00006ZM619.09705,88.99162c0-5.14661-.28735-8.43835-.85687-9.87-.56952-1.43687-1.73993-2.15269-3.51642-2.15269-1.49957,0-2.6543.57997-3.44849,1.74515-.79944,1.15995-1.19653,4.58754-1.19653,10.27755v51.63332c0,6.42151.26123,10.38205.78894,11.88162.52252,1.50481,1.73993,2.25719,3.65228,2.25719,1.95416,0,3.20813-.86736,3.75677-2.59682.5434-1.72948.82031-5.85199.82031-12.36232v-50.813Z" fill="#fff"/>
      <path d="M722.77118,60.57814v110.5764h-25.20001l-14.95917-50.2696v50.2696h-24.04016V60.57814h24.04016l16.11908,49.78889v-49.7889h24.0401Z" fill="#fff"/>
      <path d="M734.31329,60.57814h47.94446v22.12782h-19.19141v20.96787h17.9635v21.0358h-17.9635v24.31709h21.1037v22.12782h-49.85681V60.57814h.00006Z" fill="#fff"/>
      <path d="M821.18915,60.57814v88.44858h17.48279v22.12782h-46.2359V60.57814h28.75311Z" fill="#fff"/>
      <path d="M874.38995,60.57814v110.5764h-28.75311V60.57814h28.75311Z" fill="#fff"/>
      <path d="M943.85614,60.57814v22.12782h-17.07526v88.44858h-28.75311v-88.44858h-17.00732v-22.12782s62.83569,0,62.83569,0Z" fill="#fff"/>
      <path d="M950.40826,60.57814h47.94446v22.12782h-19.19141v20.96787h17.9635v21.0358h-17.9635v24.31709h21.1037v22.12782h-49.85681V60.57814h.00006Z" fill="#fff"/>
    </g>
    <g>
      <path d="M371.68719,191.29015h8.15906l22.23074,60.96503h-8.6041l-5.55768-15.59755h-24.5672l-5.55768,15.59755h-8.33917l22.23605-60.96503h-.00003ZM385.31387,229.30389l-9.68488-27.70367-9.6796,27.70367h19.3645-.00003Z" fill="#fff"/>
      <path d="M407.43866,229.21382v-14.88231c0-16.04788,7.44382-24.11687,22.77115-24.11687,14.3472,0,21.69565,6.99347,22.23605,21.16054h-7.88885c-.45035-9.41469-5.02258-13.80679-14.3472-13.80679-10.22,0-14.70218,5.19742-14.70218,16.94327v14.52203c0,11.74585,4.48218,16.94327,14.70218,16.94327,9.32462,0,13.89688-4.39211,14.3472-13.71674h7.88885c-.54041,14.07701-7.88885,21.07047-22.23605,21.07047-15.32736,0-22.77115-8.06898-22.77115-24.11687Z" fill="#fff"/>
      <path d="M479.59326,191.29015h8.15906l22.23074,60.96503h-8.6041l-5.55768-15.59755h-24.5672l-5.55768,15.59755h-8.33917l22.23605-60.96503h-.00003ZM493.21991,229.30389l-9.68488-27.70367-9.6796,27.70367h19.3645-.00003Z" fill="#fff"/>
      <path d="M519.0163,191.29015h20.98041c15.95782,0,23.1261,7.44382,23.1261,23.66653v13.63197c0,16.22273-7.16833,23.66653-23.1261,23.66653h-20.98041v-60.96504ZM539.00592,244.90144c11.47565,0,16.04791-4.66231,16.04791-16.40286v-13.45183c0-11.74055-4.57227-16.40286-16.04791-16.40286h-11.92072v46.25757h11.92072v-.00002Z" fill="#fff"/>
      <path d="M576.91376,191.29015h39.89459v7.35374h-31.82556v18.73402h27.34338v7.35374h-27.34338v20.1698h32.72095v7.35374h-40.78992v-60.96503l-.00006-.00003Z" fill="#fff"/>
      <path d="M629.15814,191.29015h12.10083l18.37903,47.87347,18.37903-47.87347h12.01605v60.96503h-8.06897v-50.5649l-19.54462,50.5649h-5.82788l-19.6347-50.74503v50.74503h-7.79877v-60.96503Z" fill="#fff"/>
      <path d="M718.96063,226.25749l-21.60559-34.96733h9.41467l16.49292,26.62816,16.40814-26.62816h8.96436l-21.60559,34.96735v25.9977h-8.06897v-25.9977l.00006-.00002Z" fill="#fff"/>
    </g>
  </g>
</svg>