<svg width="24" height="24" viewBox="0 0 24 24" fill="none" xmlns="http://www.w3.org/2000/svg">
<path fill-rule="evenodd" clip-rule="evenodd" d="M10.7373 2.15566C13.1446 1.8369 15.4081 2.25853 17.5278 3.42056C19.3546 4.66397 20.4641 6.35051 20.8565 8.48017C20.3829 8.55974 19.9169 8.6707 19.4584 8.81304C18.0881 5.18499 15.4472 3.56503 11.5362 3.95315C8.47313 4.35283 6.58688 6.06156 5.87738 9.07933C5.35174 11.5122 5.48489 13.9089 6.27682 16.2693C7.37977 18.9232 9.37698 20.2547 12.2685 20.2637C14.7037 20.4435 16.6121 19.5558 17.9938 17.6008C18.546 16.2271 18.4128 14.9401 17.5944 13.7395C17.3724 13.562 17.1506 13.3844 16.9286 13.2069C16.1179 16.7967 13.9653 18.0173 10.471 16.8685C8.86101 15.8872 8.3506 14.4891 8.93978 12.6743C9.62967 11.4736 10.6727 10.7856 12.0687 10.6105C13.1061 10.5593 14.1269 10.5372 15.1311 10.544C14.397 8.6267 13.0655 8.07192 11.1367 8.87961C10.807 9.05387 10.5408 9.29797 10.3378 9.61192C10.0272 9.4122 9.71646 9.21248 9.40579 9.01276C9.16222 8.86452 9.05127 8.6648 9.07292 8.41359C10.3266 6.97504 11.9022 6.46465 13.7997 6.8824C15.8315 7.59058 16.8744 9.03302 16.9286 11.2097C19.8117 12.6706 20.7437 14.9341 19.7247 18.0002C18.7434 20.0021 17.1678 21.267 14.998 21.7949C8.42938 22.8132 4.72344 20.0392 3.88017 13.4732C3.53915 10.5621 4.11612 7.85469 5.61109 5.3512C6.91174 3.62493 8.62046 2.55975 10.7373 2.15566Z" fill="white"/>
</svg>
